<svg width="24" height="24" viewBox="0 0 24 24" fill="none" xmlns="http://www.w3.org/2000/svg">
<path d="M12 2C9.34784 2 6.8043 3.05357 4.92893 4.92893C3.05357 6.8043 2 9.34784 2 12C2 14.6522 3.05357 17.1957 4.92893 19.0711C6.8043 20.9464 9.34784 22 12 22C14.6522 22 17.1957 20.9464 19.0711 19.0711C20.9464 17.1957 22 14.6522 22 12C22 9.34784 20.9464 6.8043 19.0711 4.92893C17.1957 3.05357 14.6522 2 12 2ZM12 20C10.9494 20 9.90901 19.7931 8.93834 19.391C7.96768 18.9889 7.08571 18.3996 6.34279 17.6567C5.59988 16.9138 5.01056 16.0318 4.6085 15.0612C4.20644 14.0905 3.9995 13.0501 3.9995 11.9995C3.9995 10.9489 4.20644 9.90851 4.6085 8.93784C5.01056 7.96718 5.59988 7.08521 6.34279 6.34229C7.08571 5.59938 7.96768 5.01006 8.93834 4.608C9.90901 4.20594 10.9494 3.999 12 3.999C14.1219 3.999 16.1568 4.84191 17.6572 6.34229C19.1576 7.84268 20.0005 9.87764 20.0005 11.9995C20.0005 14.1214 19.1576 16.1563 17.6572 17.6567C16.1568 19.1571 14.1219 20 12 20Z" fill="#FEFEFE"/>
<path d="M15 11H13V9C13 8.73478 12.8946 8.48043 12.7071 8.29289C12.5196 8.10536 12.2652 8 12 8C11.7348 8 11.4804 8.10536 11.2929 8.29289C11.1054 8.48043 11 8.73478 11 9V11H9C8.73478 11 8.48043 11.1054 8.29289 11.2929C8.10536 11.4804 8 11.7348 8 12C8 12.2652 8.10536 12.5196 8.29289 12.7071C8.48043 12.8946 8.73478 13 9 13H11V15C11 15.2652 11.1054 15.5196 11.2929 15.7071C11.4804 15.8946 11.7348 16 12 16C12.2652 16 12.5196 15.8946 12.7071 15.7071C12.8946 15.5196 13 15.2652 13 15V13H15C15.2652 13 15.5196 12.8946 15.7071 12.7071C15.8946 12.5196 16 12.2652 16 12C16 11.7348 15.8946 11.4804 15.7071 11.2929C15.5196 11.1054 15.2652 11 15 11Z" fill="#FEFEFE"/>
</svg>
