<svg width="21" height="20" viewBox="0 0 21 20" fill="none" xmlns="http://www.w3.org/2000/svg">
<path d="M10.5 1.66699C8.28982 1.66699 6.17021 2.54497 4.6074 4.10777C3.0446 5.67057 2.16663 7.79019 2.16663 10.0003C2.16663 12.2105 3.0446 14.3301 4.6074 15.8929C6.17021 17.4557 8.28982 18.3337 10.5 18.3337C12.7101 18.3337 14.8297 17.4557 16.3925 15.8929C17.9553 14.3301 18.8333 12.2105 18.8333 10.0003C18.8333 7.79019 17.9553 5.67057 16.3925 4.10777C14.8297 2.54497 12.7101 1.66699 10.5 1.66699ZM10.5 16.667C9.62443 16.667 8.75746 16.4945 7.94858 16.1595C7.13969 15.8244 6.40472 15.3333 5.78562 14.7142C5.16652 14.0952 4.67543 13.3602 4.34038 12.5513C4.00533 11.7424 3.83288 10.8754 3.83288 9.99991C3.83288 9.12438 4.00533 8.25741 4.34038 7.44853C4.67543 6.63964 5.16652 5.90466 5.78562 5.28557C6.40472 4.66647 7.13969 4.17538 7.94858 3.84033C8.75746 3.50527 9.62443 3.33283 10.5 3.33283C12.2682 3.33283 13.964 4.03525 15.2143 5.28557C16.4646 6.53589 17.167 8.23169 17.167 9.99991C17.167 11.7681 16.4646 13.4639 15.2143 14.7142C13.964 15.9646 12.2682 16.667 10.5 16.667Z" fill="#0C0D0D"/>
<path d="M13 9.16699H11.3333V7.50033C11.3333 7.27931 11.2455 7.06735 11.0892 6.91107C10.9329 6.75479 10.721 6.66699 10.5 6.66699C10.2789 6.66699 10.067 6.75479 9.9107 6.91107C9.75442 7.06735 9.66663 7.27931 9.66663 7.50033V9.16699H7.99996C7.77895 9.16699 7.56698 9.25479 7.4107 9.41107C7.25442 9.56735 7.16663 9.77931 7.16663 10.0003C7.16663 10.2213 7.25442 10.4333 7.4107 10.5896C7.56698 10.7459 7.77895 10.8337 7.99996 10.8337H9.66663V12.5003C9.66663 12.7213 9.75442 12.9333 9.9107 13.0896C10.067 13.2459 10.2789 13.3337 10.5 13.3337C10.721 13.3337 10.9329 13.2459 11.0892 13.0896C11.2455 12.9333 11.3333 12.7213 11.3333 12.5003V10.8337H13C13.221 10.8337 13.4329 10.7459 13.5892 10.5896C13.7455 10.4333 13.8333 10.2213 13.8333 10.0003C13.8333 9.77931 13.7455 9.56735 13.5892 9.41107C13.4329 9.25479 13.221 9.16699 13 9.16699Z" fill="#0C0D0D"/>
</svg>
