<svg width="21" height="20" viewBox="0 0 21 20" fill="none" xmlns="http://www.w3.org/2000/svg">
<path d="M10.5 1.66699C8.28988 1.66699 6.17027 2.54497 4.60746 4.10777C3.04466 5.67057 2.16669 7.79019 2.16669 10.0003C2.16669 12.2105 3.04466 14.3301 4.60746 15.8929C6.17027 17.4557 8.28988 18.3337 10.5 18.3337C12.7102 18.3337 14.8298 17.4557 16.3926 15.8929C17.9554 14.3301 18.8334 12.2105 18.8334 10.0003C18.8334 7.79019 17.9554 5.67057 16.3926 4.10777C14.8298 2.54497 12.7102 1.66699 10.5 1.66699ZM10.5 16.667C9.62449 16.667 8.75753 16.4945 7.94864 16.1595C7.13975 15.8244 6.40478 15.3333 5.78568 14.7142C5.16658 14.0952 4.67549 13.3602 4.34044 12.5513C4.00539 11.7424 3.83294 10.8754 3.83294 9.99991C3.83294 9.12438 4.00539 8.25741 4.34044 7.44853C4.67549 6.63964 5.16658 5.90466 5.78568 5.28557C6.40478 4.66647 7.13975 4.17538 7.94864 3.84033C8.75753 3.50527 9.62449 3.33283 10.5 3.33283C12.2682 3.33283 13.964 4.03525 15.2144 5.28557C16.4647 6.53589 17.1671 8.23169 17.1671 9.99991C17.1671 11.7681 16.4647 13.4639 15.2144 14.7142C13.964 15.9646 12.2682 16.667 10.5 16.667Z" fill="#0C0D0D"/>
<path d="M13 9.16699H11.3334V7.50033C11.3334 7.27931 11.2456 7.06735 11.0893 6.91107C10.933 6.75479 10.721 6.66699 10.5 6.66699C10.279 6.66699 10.067 6.75479 9.91076 6.91107C9.75448 7.06735 9.66669 7.27931 9.66669 7.50033V9.16699H8.00002C7.77901 9.16699 7.56705 9.25479 7.41076 9.41107C7.25448 9.56735 7.16669 9.77931 7.16669 10.0003C7.16669 10.2213 7.25448 10.4333 7.41076 10.5896C7.56705 10.7459 7.77901 10.8337 8.00002 10.8337H9.66669V12.5003C9.66669 12.7213 9.75448 12.9333 9.91076 13.0896C10.067 13.2459 10.279 13.3337 10.5 13.3337C10.721 13.3337 10.933 13.2459 11.0893 13.0896C11.2456 12.9333 11.3334 12.7213 11.3334 12.5003V10.8337H13C13.221 10.8337 13.433 10.7459 13.5893 10.5896C13.7456 10.4333 13.8334 10.2213 13.8334 10.0003C13.8334 9.77931 13.7456 9.56735 13.5893 9.41107C13.433 9.25479 13.221 9.16699 13 9.16699Z" fill="#0C0D0D"/>
</svg>
