<svg width="21" height="20" viewBox="0 0 21 20" fill="none" xmlns="http://www.w3.org/2000/svg">
<path d="M10.5001 1.66699C8.28994 1.66699 6.17033 2.54497 4.60752 4.10777C3.04472 5.67057 2.16675 7.79019 2.16675 10.0003C2.16675 12.2105 3.04472 14.3301 4.60752 15.8929C6.17033 17.4557 8.28994 18.3337 10.5001 18.3337C12.7102 18.3337 14.8298 17.4557 16.3926 15.8929C17.9554 14.3301 18.8334 12.2105 18.8334 10.0003C18.8334 7.79019 17.9554 5.67057 16.3926 4.10777C14.8298 2.54497 12.7102 1.66699 10.5001 1.66699ZM10.5001 16.667C9.62455 16.667 8.75759 16.4945 7.9487 16.1595C7.13981 15.8244 6.40484 15.3333 5.78574 14.7142C5.16665 14.0952 4.67555 13.3602 4.3405 12.5513C4.00545 11.7424 3.833 10.8754 3.833 9.99991C3.833 9.12438 4.00545 8.25741 4.3405 7.44853C4.67555 6.63964 5.16665 5.90466 5.78574 5.28557C6.40484 4.66647 7.13981 4.17538 7.9487 3.84033C8.75759 3.50527 9.62455 3.33283 10.5001 3.33283C12.2683 3.33283 13.9641 4.03525 15.2144 5.28557C16.4647 6.53589 17.1672 8.23169 17.1672 9.99991C17.1672 11.7681 16.4647 13.4639 15.2144 14.7142C13.9641 15.9646 12.2683 16.667 10.5001 16.667Z" fill="#0C0D0D"/>
<path d="M13.0001 9.16699H11.3334V7.50033C11.3334 7.27931 11.2456 7.06735 11.0893 6.91107C10.9331 6.75479 10.7211 6.66699 10.5001 6.66699C10.2791 6.66699 10.0671 6.75479 9.91083 6.91107C9.75455 7.06735 9.66675 7.27931 9.66675 7.50033V9.16699H8.00008C7.77907 9.16699 7.56711 9.25479 7.41083 9.41107C7.25455 9.56735 7.16675 9.77931 7.16675 10.0003C7.16675 10.2213 7.25455 10.4333 7.41083 10.5896C7.56711 10.7459 7.77907 10.8337 8.00008 10.8337H9.66675V12.5003C9.66675 12.7213 9.75455 12.9333 9.91083 13.0896C10.0671 13.2459 10.2791 13.3337 10.5001 13.3337C10.7211 13.3337 10.9331 13.2459 11.0893 13.0896C11.2456 12.9333 11.3334 12.7213 11.3334 12.5003V10.8337H13.0001C13.2211 10.8337 13.4331 10.7459 13.5893 10.5896C13.7456 10.4333 13.8334 10.2213 13.8334 10.0003C13.8334 9.77931 13.7456 9.56735 13.5893 9.41107C13.4331 9.25479 13.2211 9.16699 13.0001 9.16699Z" fill="#0C0D0D"/>
</svg>
