<svg width="21" height="20" viewBox="0 0 21 20" fill="none" xmlns="http://www.w3.org/2000/svg">
<path d="M10.4998 1.66699C8.2897 1.66699 6.17008 2.54497 4.60728 4.10777C3.04448 5.67057 2.1665 7.79019 2.1665 10.0003C2.1665 12.2105 3.04448 14.3301 4.60728 15.8929C6.17008 17.4557 8.2897 18.3337 10.4998 18.3337C12.71 18.3337 14.8296 17.4557 16.3924 15.8929C17.9552 14.3301 18.8332 12.2105 18.8332 10.0003C18.8332 7.79019 17.9552 5.67057 16.3924 4.10777C14.8296 2.54497 12.71 1.66699 10.4998 1.66699ZM10.4998 16.667C9.6243 16.667 8.75734 16.4945 7.94846 16.1595C7.13957 15.8244 6.40459 15.3333 5.7855 14.7142C5.1664 14.0952 4.67531 13.3602 4.34026 12.5513C4.0052 11.7424 3.83275 10.8754 3.83275 9.99991C3.83275 9.12438 4.0052 8.25741 4.34026 7.44853C4.67531 6.63964 5.1664 5.90466 5.7855 5.28557C6.40459 4.66647 7.13957 4.17538 7.94846 3.84033C8.75734 3.50527 9.6243 3.33283 10.4998 3.33283C12.2681 3.33283 13.9639 4.03525 15.2142 5.28557C16.4645 6.53589 17.1669 8.23169 17.1669 9.99991C17.1669 11.7681 16.4645 13.4639 15.2142 14.7142C13.9639 15.9646 12.2681 16.667 10.4998 16.667Z" fill="#0C0D0D"/>
<path d="M12.9998 9.16699H11.3332V7.50033C11.3332 7.27931 11.2454 7.06735 11.0891 6.91107C10.9328 6.75479 10.7209 6.66699 10.4998 6.66699C10.2788 6.66699 10.0669 6.75479 9.91058 6.91107C9.7543 7.06735 9.6665 7.27931 9.6665 7.50033V9.16699H7.99984C7.77882 9.16699 7.56686 9.25479 7.41058 9.41107C7.2543 9.56735 7.1665 9.77931 7.1665 10.0003C7.1665 10.2213 7.2543 10.4333 7.41058 10.5896C7.56686 10.7459 7.77882 10.8337 7.99984 10.8337H9.6665V12.5003C9.6665 12.7213 9.7543 12.9333 9.91058 13.0896C10.0669 13.2459 10.2788 13.3337 10.4998 13.3337C10.7209 13.3337 10.9328 13.2459 11.0891 13.0896C11.2454 12.9333 11.3332 12.7213 11.3332 12.5003V10.8337H12.9998C13.2209 10.8337 13.4328 10.7459 13.5891 10.5896C13.7454 10.4333 13.8332 10.2213 13.8332 10.0003C13.8332 9.77931 13.7454 9.56735 13.5891 9.41107C13.4328 9.25479 13.2209 9.16699 12.9998 9.16699Z" fill="#0C0D0D"/>
</svg>
