<svg width="25" height="24" viewBox="0 0 25 24" fill="none" xmlns="http://www.w3.org/2000/svg">
<path d="M12.5 2C9.84784 2 7.3043 3.05357 5.42893 4.92893C3.55357 6.8043 2.5 9.34784 2.5 12C2.5 14.6522 3.55357 17.1957 5.42893 19.0711C7.3043 20.9464 9.84784 22 12.5 22C15.1522 22 17.6957 20.9464 19.5711 19.0711C21.4464 17.1957 22.5 14.6522 22.5 12C22.5 9.34784 21.4464 6.8043 19.5711 4.92893C17.6957 3.05357 15.1522 2 12.5 2ZM12.5 20C11.4494 20 10.409 19.7931 9.43834 19.391C8.46768 18.9889 7.58571 18.3996 6.84279 17.6567C6.09988 16.9138 5.51056 16.0318 5.1085 15.0612C4.70644 14.0905 4.4995 13.0501 4.4995 11.9995C4.4995 10.9489 4.70644 9.90851 5.1085 8.93784C5.51056 7.96718 6.09988 7.08521 6.84279 6.34229C7.58571 5.59938 8.46768 5.01006 9.43834 4.608C10.409 4.20594 11.4494 3.999 12.5 3.999C14.6219 3.999 16.6568 4.84191 18.1572 6.34229C19.6576 7.84268 20.5005 9.87764 20.5005 11.9995C20.5005 14.1214 19.6576 16.1563 18.1572 17.6567C16.6568 19.1571 14.6219 20 12.5 20Z" fill="#FEFEFE"/>
<path d="M15.5 11H13.5V9C13.5 8.73478 13.3946 8.48043 13.2071 8.29289C13.0196 8.10536 12.7652 8 12.5 8C12.2348 8 11.9804 8.10536 11.7929 8.29289C11.6054 8.48043 11.5 8.73478 11.5 9V11H9.5C9.23478 11 8.98043 11.1054 8.79289 11.2929C8.60536 11.4804 8.5 11.7348 8.5 12C8.5 12.2652 8.60536 12.5196 8.79289 12.7071C8.98043 12.8946 9.23478 13 9.5 13H11.5V15C11.5 15.2652 11.6054 15.5196 11.7929 15.7071C11.9804 15.8946 12.2348 16 12.5 16C12.7652 16 13.0196 15.8946 13.2071 15.7071C13.3946 15.5196 13.5 15.2652 13.5 15V13H15.5C15.7652 13 16.0196 12.8946 16.2071 12.7071C16.3946 12.5196 16.5 12.2652 16.5 12C16.5 11.7348 16.3946 11.4804 16.2071 11.2929C16.0196 11.1054 15.7652 11 15.5 11Z" fill="#FEFEFE"/>
</svg>
