<svg width="20" height="20" viewBox="0 0 20 20" fill="none" xmlns="http://www.w3.org/2000/svg">
<path d="M17.1 12.6734L15.6 11.1651V7.44841C15.62 6.06826 15.1399 4.7275 14.2485 3.67369C13.357 2.61988 12.1144 1.92419 10.75 1.71507C9.9582 1.6108 9.15324 1.67659 8.38886 1.90805C7.62448 2.13952 6.91825 2.53134 6.31729 3.05737C5.71634 3.58341 5.23448 4.23155 4.90386 4.95857C4.57324 5.68558 4.40148 6.47475 4.40002 7.27341V11.1651L2.90002 12.6734C2.71161 12.865 2.58384 13.1078 2.53269 13.3716C2.48153 13.6353 2.50927 13.9083 2.61242 14.1564C2.71557 14.4045 2.88956 14.6167 3.11265 14.7665C3.33573 14.9162 3.59801 14.9969 3.86669 14.9984H6.66669V15.2817C6.70561 16.1277 7.07831 16.9238 7.70312 17.4955C8.32794 18.0672 9.1539 18.3679 10 18.3317C10.8461 18.3679 11.6721 18.0672 12.2969 17.4955C12.9217 16.9238 13.2944 16.1277 13.3334 15.2817V14.9984H16.1334C16.402 14.9969 16.6643 14.9162 16.8874 14.7665C17.1105 14.6167 17.2845 14.4045 17.3876 14.1564C17.4908 13.9083 17.5185 13.6353 17.4674 13.3716C17.4162 13.1078 17.2884 12.865 17.1 12.6734ZM11.6667 15.2817C11.6205 15.6826 11.4214 16.0501 11.1109 16.3078C10.8004 16.5655 10.4025 16.6935 10 16.6651C9.59753 16.6935 9.1996 16.5655 8.88913 16.3078C8.57865 16.0501 8.37957 15.6826 8.33335 15.2817V14.9984H11.6667V15.2817Z" fill="#6C7275"/>
</svg>
