<svg width="20" height="20" viewBox="0 0 20 20" fill="none" xmlns="http://www.w3.org/2000/svg">
<path d="M17.0999 12.6734L15.5999 11.1651V7.44841C15.6199 6.06826 15.1398 4.7275 14.2483 3.67369C13.3569 2.61988 12.1143 1.92419 10.7499 1.71507C9.95807 1.6108 9.15312 1.67659 8.38874 1.90805C7.62435 2.13952 6.91812 2.53134 6.31717 3.05737C5.71621 3.58341 5.23435 4.23155 4.90374 4.95857C4.57312 5.68558 4.40136 6.47475 4.3999 7.27341V11.1651L2.8999 12.6734C2.71149 12.865 2.58372 13.1078 2.53257 13.3716C2.48141 13.6353 2.50915 13.9083 2.6123 14.1564C2.71545 14.4045 2.88944 14.6167 3.11252 14.7665C3.33561 14.9162 3.59788 14.9969 3.86656 14.9984H6.66656V15.2817C6.70549 16.1277 7.07819 16.9238 7.703 17.4955C8.32781 18.0672 9.15378 18.3679 9.9999 18.3317C10.846 18.3679 11.672 18.0672 12.2968 17.4955C12.9216 16.9238 13.2943 16.1277 13.3332 15.2817V14.9984H16.1332C16.4019 14.9969 16.6642 14.9162 16.8873 14.7665C17.1104 14.6167 17.2843 14.4045 17.3875 14.1564C17.4906 13.9083 17.5184 13.6353 17.4672 13.3716C17.4161 13.1078 17.2883 12.865 17.0999 12.6734ZM11.6666 15.2817C11.6203 15.6826 11.4213 16.0501 11.1108 16.3078C10.8003 16.5655 10.4024 16.6935 9.9999 16.6651C9.59741 16.6935 9.19948 16.5655 8.889 16.3078C8.57853 16.0501 8.37945 15.6826 8.33323 15.2817V14.9984H11.6666V15.2817Z" fill="#6C7275"/>
</svg>
