<svg width="24" height="24" viewBox="0 0 24 24" fill="none" xmlns="http://www.w3.org/2000/svg">
<path d="M13 2C12.7348 2 12.4804 2.10536 12.2929 2.29289C12.1054 2.48043 12 2.73478 12 3V11C12 11.2652 12.1054 11.5196 12.2929 11.7071C12.4804 11.8946 12.7348 12 13 12H21C21.2652 12 21.5196 11.8946 21.7071 11.7071C21.8946 11.5196 22 11.2652 22 11C22 8.61305 21.0518 6.32387 19.364 4.63604C17.6761 2.94821 15.3869 2 13 2ZM14 10V4.07C15.4962 4.28561 16.8824 4.97978 17.9513 6.04868C19.0202 7.11759 19.7144 8.50379 19.93 10H14Z" fill="#4386F4"/>
<path d="M20.8201 14.0617C20.696 14.0171 20.5644 13.9974 20.4327 14.004C20.301 14.0105 20.1719 14.0431 20.0529 14.0998C19.9339 14.1566 19.8273 14.2363 19.7393 14.3344C19.6513 14.4326 19.5836 14.5472 19.5401 14.6717C19.0894 15.9456 18.3234 17.0846 17.3136 17.9825C16.3037 18.8803 15.0829 19.5077 13.7649 19.8061C12.447 20.1046 11.075 20.0643 9.77684 19.6891C8.47869 19.3139 7.29673 18.616 6.34123 17.6605C5.38573 16.705 4.68783 15.5231 4.31264 14.2249C3.93745 12.9268 3.8972 11.5547 4.19564 10.2368C4.49408 8.91892 5.12148 7.69808 6.01932 6.6882C6.91716 5.67833 8.05617 4.91233 9.33009 4.46168C9.57854 4.37249 9.78169 4.18877 9.89534 3.95051C10.009 3.71226 10.0239 3.43876 9.9369 3.18954C9.84987 2.94033 9.66792 2.73558 9.43067 2.61986C9.19341 2.50414 8.92005 2.48683 8.67009 2.57168C7.07713 3.13446 5.65272 4.09164 4.5298 5.3539C3.40689 6.61616 2.62207 8.14233 2.24861 9.78999C1.87515 11.4376 1.92521 13.1531 2.39413 14.7761C2.86305 16.3992 3.73553 17.877 4.93015 19.0716C6.12477 20.2662 7.60258 21.1387 9.22565 21.6076C10.8487 22.0766 12.5641 22.1266 14.2118 21.7532C15.8594 21.3797 17.3856 20.5949 18.6479 19.472C19.9101 18.349 20.8673 16.9246 21.4301 15.3317C21.5166 15.0823 21.501 14.8089 21.3867 14.571C21.2725 14.3331 21.0688 14.15 20.8201 14.0617Z" fill="#4386F4"/>
</svg>
