<svg width="24" height="24" viewBox="0 0 24 24" fill="none" xmlns="http://www.w3.org/2000/svg">
<path d="M13 2C12.7348 2 12.4804 2.10536 12.2929 2.29289C12.1054 2.48043 12 2.73478 12 3V11C12 11.2652 12.1054 11.5196 12.2929 11.7071C12.4804 11.8946 12.7348 12 13 12H21C21.2652 12 21.5196 11.8946 21.7071 11.7071C21.8946 11.5196 22 11.2652 22 11C22 8.61305 21.0518 6.32387 19.364 4.63604C17.6761 2.94821 15.3869 2 13 2ZM14 10V4.07C15.4962 4.28561 16.8824 4.97978 17.9513 6.04868C19.0202 7.11759 19.7144 8.50379 19.93 10H14Z" fill="#4386F4"/>
<path d="M20.8198 14.0622C20.6958 14.0175 20.5641 13.9979 20.4324 14.0045C20.3008 14.011 20.1717 14.0436 20.0527 14.1003C19.9337 14.157 19.8271 14.2368 19.739 14.3349C19.651 14.4331 19.5833 14.5477 19.5398 14.6722C19.0892 15.9461 18.3232 17.0851 17.3133 17.9829C16.3034 18.8808 15.0826 19.5082 13.7647 19.8066C12.4468 20.1051 11.0747 20.0648 9.7766 19.6896C8.47845 19.3144 7.29649 18.6165 6.34099 17.661C5.38549 16.7055 4.68759 15.5236 4.3124 14.2254C3.93721 12.9273 3.89695 11.5552 4.19539 10.2373C4.49383 8.91941 5.12124 7.69857 6.01908 6.68869C6.91691 5.67882 8.05593 4.91282 9.32985 4.46217C9.57829 4.37298 9.78145 4.18926 9.8951 3.951C10.0087 3.71275 10.0237 3.43924 9.93665 3.19003C9.84962 2.94082 9.66768 2.73607 9.43042 2.62035C9.19317 2.50463 8.91981 2.48732 8.66985 2.57217C7.07689 3.13495 5.65248 4.09213 4.52956 5.35439C3.40664 6.61665 2.62183 8.14282 2.24837 9.79048C1.8749 11.4381 1.92497 13.1535 2.39389 14.7766C2.8628 16.3997 3.73529 17.8775 4.92991 19.0721C6.12453 20.2667 7.60234 21.1392 9.22541 21.6081C10.8485 22.077 12.5639 22.1271 14.2115 21.7536C15.8592 21.3802 17.3854 20.5954 18.6476 19.4725C19.9099 18.3495 20.8671 16.9251 21.4298 15.3322C21.5163 15.0828 21.5007 14.8094 21.3865 14.5715C21.2722 14.3336 21.0685 14.1505 20.8198 14.0622Z" fill="#4386F4"/>
</svg>
