<svg width="24" height="24" viewBox="0 0 24 24" fill="none" xmlns="http://www.w3.org/2000/svg">
<path d="M13 2C12.7348 2 12.4804 2.10536 12.2929 2.29289C12.1054 2.48043 12 2.73478 12 3V11C12 11.2652 12.1054 11.5196 12.2929 11.7071C12.4804 11.8946 12.7348 12 13 12H21C21.2652 12 21.5196 11.8946 21.7071 11.7071C21.8946 11.5196 22 11.2652 22 11C22 8.61305 21.0518 6.32387 19.364 4.63604C17.6761 2.94821 15.3869 2 13 2ZM14 10V4.07C15.4962 4.28561 16.8824 4.97978 17.9513 6.04868C19.0202 7.11759 19.7144 8.50379 19.93 10H14Z" fill="#4386F4"/>
<path d="M20.8198 14.0617C20.6958 14.0171 20.5641 13.9974 20.4324 14.004C20.3008 14.0105 20.1717 14.0431 20.0527 14.0998C19.9337 14.1566 19.8271 14.2363 19.739 14.3344C19.651 14.4326 19.5833 14.5472 19.5398 14.6717C19.0892 15.9456 18.3232 17.0846 17.3133 17.9825C16.3034 18.8803 15.0826 19.5077 13.7647 19.8061C12.4468 20.1046 11.0747 20.0643 9.7766 19.6891C8.47845 19.3139 7.29649 18.616 6.34099 17.6605C5.38549 16.705 4.68759 15.5231 4.3124 14.2249C3.93721 12.9268 3.89695 11.5547 4.19539 10.2368C4.49383 8.91892 5.12124 7.69808 6.01908 6.6882C6.91691 5.67833 8.05593 4.91233 9.32985 4.46168C9.57829 4.37249 9.78145 4.18877 9.8951 3.95051C10.0087 3.71226 10.0237 3.43876 9.93665 3.18954C9.84962 2.94033 9.66768 2.73558 9.43042 2.61986C9.19317 2.50414 8.91981 2.48683 8.66985 2.57168C7.07689 3.13446 5.65248 4.09164 4.52956 5.3539C3.40664 6.61616 2.62183 8.14233 2.24837 9.78999C1.8749 11.4376 1.92497 13.1531 2.39389 14.7761C2.8628 16.3992 3.73529 17.877 4.92991 19.0716C6.12453 20.2662 7.60234 21.1387 9.22541 21.6076C10.8485 22.0766 12.5639 22.1266 14.2115 21.7532C15.8592 21.3797 17.3854 20.5949 18.6476 19.472C19.9099 18.349 20.8671 16.9246 21.4298 15.3317C21.5163 15.0823 21.5007 14.8089 21.3865 14.571C21.2722 14.3331 21.0685 14.15 20.8198 14.0617Z" fill="#4386F4"/>
</svg>
