<svg width="24" height="24" viewBox="0 0 24 24" fill="none" xmlns="http://www.w3.org/2000/svg">
<path d="M13 2C12.7348 2 12.4804 2.10536 12.2929 2.29289C12.1054 2.48043 12 2.73478 12 3V11C12 11.2652 12.1054 11.5196 12.2929 11.7071C12.4804 11.8946 12.7348 12 13 12H21C21.2652 12 21.5196 11.8946 21.7071 11.7071C21.8946 11.5196 22 11.2652 22 11C22 8.61305 21.0518 6.32387 19.364 4.63604C17.6761 2.94821 15.3869 2 13 2ZM14 10V4.07C15.4962 4.28561 16.8824 4.97978 17.9513 6.04868C19.0202 7.11759 19.7144 8.50379 19.93 10H14Z" fill="#4386F4"/>
<path d="M20.82 14.0617C20.6959 14.0171 20.5642 13.9974 20.4326 14.004C20.3009 14.0105 20.1718 14.0431 20.0528 14.0998C19.9338 14.1566 19.8272 14.2363 19.7392 14.3344C19.6511 14.4326 19.5834 14.5472 19.54 14.6717C19.0893 15.9456 18.3233 17.0846 17.3134 17.9825C16.3036 18.8803 15.0827 19.5077 13.7648 19.8061C12.4469 20.1046 11.0749 20.0643 9.77672 19.6891C8.47857 19.3139 7.29661 18.616 6.34111 17.6605C5.38561 16.705 4.68771 15.5231 4.31252 14.2249C3.93733 12.9268 3.89708 11.5547 4.19552 10.2368C4.49395 8.91892 5.12136 7.69808 6.0192 6.6882C6.91704 5.67833 8.05605 4.91233 9.32997 4.46168C9.57841 4.37249 9.78157 4.18877 9.89522 3.95051C10.0089 3.71226 10.0238 3.43876 9.93677 3.18954C9.84975 2.94033 9.6678 2.73558 9.43055 2.61986C9.19329 2.50414 8.91993 2.48683 8.66997 2.57168C7.07701 3.13446 5.6526 4.09164 4.52968 5.3539C3.40677 6.61616 2.62195 8.14233 2.24849 9.78999C1.87503 11.4376 1.92509 13.1531 2.39401 14.7761C2.86293 16.3992 3.73541 17.877 4.93003 19.0716C6.12465 20.2662 7.60246 21.1387 9.22553 21.6076C10.8486 22.0766 12.564 22.1266 14.2117 21.7532C15.8593 21.3797 17.3855 20.5949 18.6477 19.472C19.91 18.349 20.8672 16.9246 21.43 15.3317C21.5165 15.0823 21.5009 14.8089 21.3866 14.571C21.2723 14.3331 21.0687 14.15 20.82 14.0617Z" fill="#4386F4"/>
</svg>
