<svg width="24" height="24" viewBox="0 0 24 24" fill="none" xmlns="http://www.w3.org/2000/svg">
<path d="M6.99993 14C6.56341 14.0007 6.1323 14.0966 5.73667 14.281C5.34104 14.4655 4.99044 14.734 4.70932 15.068C4.4282 15.4019 4.22335 15.7932 4.10906 16.2145C3.99476 16.6358 3.97378 17.0769 4.04758 17.5072C4.12137 17.9374 4.28817 18.3463 4.53632 18.7055C4.78448 19.0646 5.10801 19.3652 5.48435 19.5864C5.86068 19.8076 6.28075 19.944 6.71523 19.986C7.14971 20.0281 7.58815 19.9749 7.99993 19.83" stroke="#FFAB3F" stroke-width="2" stroke-linecap="round" stroke-linejoin="round"/>
<path d="M4.26391 15.6051C3.66548 15.317 3.1482 14.8844 2.75876 14.3464C2.36933 13.8083 2.12 13.1818 2.03327 12.5233C1.94655 11.8648 2.02515 11.1951 2.262 10.5746C2.49885 9.95408 2.88648 9.40231 3.38991 8.96908M3.41991 8.88808C3.09196 8.39733 2.94821 7.80637 3.01413 7.21981C3.08005 6.63326 3.35138 6.08894 3.78009 5.68323C4.2088 5.27751 4.76723 5.03657 5.35652 5.00305C5.94582 4.96953 6.52797 5.1456 6.99991 5.50008M7.23791 5.56508C7.07839 5.22612 6.99708 4.85565 6.99999 4.48104C7.0029 4.10644 7.08997 3.73727 7.25475 3.40084C7.41953 3.06441 7.65781 2.76931 7.95198 2.53735C8.24615 2.3054 8.58869 2.14252 8.95428 2.06076C9.31987 1.979 9.69916 1.98044 10.0641 2.06498C10.4291 2.14953 10.7704 2.31501 11.0627 2.5492C11.3551 2.78338 11.5912 3.08029 11.7534 3.41797C11.9156 3.75564 11.9999 4.12546 11.9999 4.50008V20.0001C11.9999 20.5305 11.7892 21.0392 11.4141 21.4143C11.0391 21.7894 10.5303 22.0001 9.99991 22.0001C9.46948 22.0001 8.96077 21.7894 8.5857 21.4143C8.21063 21.0392 7.99991 20.5305 7.99991 20.0001M11.9999 7.00008C11.9999 7.79573 12.316 8.55879 12.8786 9.1214C13.4412 9.68401 14.2043 10.0001 14.9999 10.0001M16.9999 14.0001C17.4364 14.0007 17.8675 14.0966 18.2632 14.2811C18.6588 14.4656 19.0094 14.7341 19.2905 15.0681C19.5716 15.402 19.7765 15.7933 19.8908 16.2146C20.0051 16.6359 20.0261 17.077 19.9523 17.5072C19.8785 17.9375 19.7117 18.3464 19.4635 18.7055C19.2154 19.0647 18.8918 19.3653 18.5155 19.5865C18.1392 19.8076 17.7191 19.944 17.2846 19.9861C16.8501 20.0282 16.4117 19.9749 15.9999 19.8301" stroke="#FFAB3F" stroke-width="2" stroke-linecap="round" stroke-linejoin="round"/>
<path d="M19.736 15.6051C20.3344 15.317 20.8517 14.8844 21.2411 14.3464C21.6306 13.8083 21.8799 13.1818 21.9666 12.5233C22.0534 11.8648 21.9748 11.1951 21.7379 10.5746C21.5011 9.95408 21.1134 9.40231 20.61 8.96908M20.58 8.88808C20.908 8.39733 21.0517 7.80637 20.9858 7.21981C20.9199 6.63326 20.6485 6.08894 20.2198 5.68323C19.7911 5.27751 19.2327 5.03657 18.6434 5.00305C18.0541 4.96953 17.4719 5.1456 17 5.50008M12 4.50008C12.0001 4.12546 12.0843 3.75564 12.2465 3.41797C12.4087 3.08029 12.6448 2.78338 12.9372 2.5492C13.2296 2.31501 13.5708 2.14953 13.9358 2.06498C14.3008 1.98044 14.68 1.979 15.0456 2.06076C15.4112 2.14252 15.7538 2.3054 16.0479 2.53735C16.3421 2.76931 16.5804 3.06441 16.7452 3.40084C16.9099 3.73727 16.997 4.10644 16.9999 4.48104C17.0028 4.85565 16.9215 5.22612 16.762 5.56508M16 20.0001C16 20.5305 15.7893 21.0392 15.4142 21.4143C15.0391 21.7894 14.5304 22.0001 14 22.0001C13.4696 22.0001 12.9609 21.7894 12.5858 21.4143C12.2107 21.0392 12 20.5305 12 20.0001" stroke="#FFAB3F" stroke-width="2" stroke-linecap="round" stroke-linejoin="round"/>
</svg>
