<svg width="24" height="24" viewBox="0 0 24 24" fill="none" xmlns="http://www.w3.org/2000/svg">
<path d="M7.00005 14C6.56353 14.0007 6.13242 14.0966 5.73679 14.281C5.34117 14.4655 4.99056 14.734 4.70944 15.068C4.42833 15.4019 4.22347 15.7932 4.10918 16.2145C3.99488 16.6358 3.9739 17.0769 4.0477 17.5072C4.12149 17.9374 4.28829 18.3463 4.53644 18.7055C4.7846 19.0646 5.10813 19.3652 5.48447 19.5864C5.8608 19.8076 6.28087 19.944 6.71535 19.986C7.14984 20.0281 7.58827 19.9749 8.00005 19.83" stroke="#FFAB3F" stroke-width="2" stroke-linecap="round" stroke-linejoin="round"/>
<path d="M4.26404 15.6046C3.6656 15.3165 3.14832 14.8839 2.75889 14.3459C2.36945 13.8078 2.12012 13.1813 2.03339 12.5228C1.94667 11.8643 2.02527 11.1946 2.26212 10.5741C2.49897 9.95359 2.8866 9.40182 3.39004 8.96859M3.42004 8.88759C3.09208 8.39684 2.94834 7.80588 3.01426 7.21932C3.08018 6.63277 3.35151 6.08845 3.78021 5.68274C4.20892 5.27702 4.76735 5.03608 5.35664 5.00256C5.94594 4.96904 6.52809 5.14511 7.00004 5.49959M7.23804 5.56459C7.07851 5.22564 6.9972 4.85516 7.00011 4.48056C7.00303 4.10595 7.09009 3.73678 7.25487 3.40035C7.41965 3.06392 7.65793 2.76882 7.9521 2.53686C8.24627 2.30491 8.58881 2.14203 8.9544 2.06027C9.31999 1.97851 9.69928 1.97995 10.0642 2.0645C10.4292 2.14904 10.7705 2.31452 11.0629 2.54871C11.3553 2.7829 11.5913 3.0798 11.7535 3.41748C11.9157 3.75516 12 4.12497 12 4.49959V19.9996C12 20.53 11.7893 21.0387 11.4142 21.4138C11.0392 21.7889 10.5305 21.9996 10 21.9996C9.4696 21.9996 8.9609 21.7889 8.58582 21.4138C8.21075 21.0387 8.00004 20.53 8.00004 19.9996M12 6.99959C12 7.79524 12.3161 8.5583 12.8787 9.12091C13.4413 9.68352 14.2044 9.99959 15 9.99959M17 13.9996C17.4366 14.0002 17.8677 14.0961 18.2633 14.2806C18.6589 14.4651 19.0095 14.7336 19.2906 15.0676C19.5718 15.4015 19.7766 15.7928 19.8909 16.2141C20.0052 16.6354 20.0262 17.0765 19.9524 17.5068C19.8786 17.937 19.7118 18.3459 19.4636 18.7051C19.2155 19.0642 18.8919 19.3648 18.5156 19.586C18.1393 19.8072 17.7192 19.9435 17.2847 19.9856C16.8502 20.0277 16.4118 19.9744 16 19.8296" stroke="#FFAB3F" stroke-width="2" stroke-linecap="round" stroke-linejoin="round"/>
<path d="M19.736 15.6046C20.3344 15.3165 20.8517 14.8839 21.2411 14.3459C21.6306 13.8078 21.8799 13.1813 21.9666 12.5228C22.0534 11.8643 21.9748 11.1946 21.7379 10.5741C21.5011 9.95359 21.1134 9.40182 20.61 8.96859M20.58 8.88759C20.908 8.39684 21.0517 7.80588 20.9858 7.21932C20.9199 6.63277 20.6485 6.08845 20.2198 5.68274C19.7911 5.27702 19.2327 5.03608 18.6434 5.00256C18.0541 4.96904 17.4719 5.14511 17 5.49959M12 4.49959C12.0001 4.12497 12.0843 3.75516 12.2465 3.41748C12.4087 3.0798 12.6448 2.7829 12.9372 2.54871C13.2296 2.31452 13.5708 2.14904 13.9358 2.0645C14.3008 1.97995 14.68 1.97851 15.0456 2.06027C15.4112 2.14203 15.7538 2.30491 16.0479 2.53686C16.3421 2.76882 16.5804 3.06392 16.7452 3.40035C16.9099 3.73678 16.997 4.10595 16.9999 4.48056C17.0028 4.85516 16.9215 5.22564 16.762 5.56459M16 19.9996C16 20.53 15.7893 21.0387 15.4142 21.4138C15.0391 21.7889 14.5304 21.9996 14 21.9996C13.4696 21.9996 12.9609 21.7889 12.5858 21.4138C12.2107 21.0387 12 20.53 12 19.9996" stroke="#FFAB3F" stroke-width="2" stroke-linecap="round" stroke-linejoin="round"/>
</svg>
