<svg width="24" height="24" viewBox="0 0 24 24" fill="none" xmlns="http://www.w3.org/2000/svg">
<path d="M6.99993 14C6.56341 14.0007 6.1323 14.0966 5.73667 14.281C5.34104 14.4655 4.99044 14.734 4.70932 15.068C4.4282 15.4019 4.22335 15.7932 4.10906 16.2145C3.99476 16.6358 3.97378 17.0769 4.04758 17.5072C4.12137 17.9374 4.28817 18.3463 4.53632 18.7055C4.78448 19.0646 5.10801 19.3652 5.48435 19.5864C5.86068 19.8076 6.28075 19.944 6.71523 19.986C7.14971 20.0281 7.58815 19.9749 7.99993 19.83" stroke="#FFAB3F" stroke-width="2" stroke-linecap="round" stroke-linejoin="round"/>
<path d="M4.26391 15.6046C3.66548 15.3165 3.1482 14.8839 2.75876 14.3459C2.36933 13.8078 2.12 13.1813 2.03327 12.5228C1.94655 11.8643 2.02515 11.1946 2.262 10.5741C2.49885 9.95359 2.88648 9.40182 3.38991 8.96859M3.41991 8.88759C3.09196 8.39684 2.94821 7.80588 3.01413 7.21932C3.08005 6.63277 3.35138 6.08845 3.78009 5.68274C4.2088 5.27702 4.76723 5.03608 5.35652 5.00256C5.94582 4.96904 6.52797 5.14511 6.99991 5.49959M7.23791 5.56459C7.07839 5.22564 6.99708 4.85516 6.99999 4.48056C7.0029 4.10595 7.08997 3.73678 7.25475 3.40035C7.41953 3.06392 7.65781 2.76882 7.95198 2.53686C8.24615 2.30491 8.58869 2.14203 8.95428 2.06027C9.31987 1.97851 9.69916 1.97995 10.0641 2.0645C10.4291 2.14904 10.7704 2.31452 11.0627 2.54871C11.3551 2.7829 11.5912 3.0798 11.7534 3.41748C11.9156 3.75516 11.9999 4.12497 11.9999 4.49959V19.9996C11.9999 20.53 11.7892 21.0387 11.4141 21.4138C11.0391 21.7889 10.5303 21.9996 9.99991 21.9996C9.46948 21.9996 8.96077 21.7889 8.5857 21.4138C8.21063 21.0387 7.99991 20.53 7.99991 19.9996M11.9999 6.99959C11.9999 7.79524 12.316 8.5583 12.8786 9.12091C13.4412 9.68352 14.2043 9.99959 14.9999 9.99959M16.9999 13.9996C17.4364 14.0002 17.8675 14.0961 18.2632 14.2806C18.6588 14.4651 19.0094 14.7336 19.2905 15.0676C19.5716 15.4015 19.7765 15.7928 19.8908 16.2141C20.0051 16.6354 20.0261 17.0765 19.9523 17.5068C19.8785 17.937 19.7117 18.3459 19.4635 18.7051C19.2154 19.0642 18.8918 19.3648 18.5155 19.586C18.1392 19.8072 17.7191 19.9435 17.2846 19.9856C16.8501 20.0277 16.4117 19.9744 15.9999 19.8296" stroke="#FFAB3F" stroke-width="2" stroke-linecap="round" stroke-linejoin="round"/>
<path d="M19.736 15.6046C20.3344 15.3165 20.8517 14.8839 21.2411 14.3459C21.6306 13.8078 21.8799 13.1813 21.9666 12.5228C22.0534 11.8643 21.9748 11.1946 21.7379 10.5741C21.5011 9.95359 21.1134 9.40182 20.61 8.96859M20.58 8.88759C20.908 8.39684 21.0517 7.80588 20.9858 7.21932C20.9199 6.63277 20.6485 6.08845 20.2198 5.68274C19.7911 5.27702 19.2327 5.03608 18.6434 5.00256C18.0541 4.96904 17.4719 5.14511 17 5.49959M12 4.49959C12.0001 4.12497 12.0843 3.75516 12.2465 3.41748C12.4087 3.0798 12.6448 2.7829 12.9372 2.54871C13.2296 2.31452 13.5708 2.14904 13.9358 2.0645C14.3008 1.97995 14.68 1.97851 15.0456 2.06027C15.4112 2.14203 15.7538 2.30491 16.0479 2.53686C16.3421 2.76882 16.5804 3.06392 16.7452 3.40035C16.9099 3.73678 16.997 4.10595 16.9999 4.48056C17.0028 4.85516 16.9215 5.22564 16.762 5.56459M16 19.9996C16 20.53 15.7893 21.0387 15.4142 21.4138C15.0391 21.7889 14.5304 21.9996 14 21.9996C13.4696 21.9996 12.9609 21.7889 12.5858 21.4138C12.2107 21.0387 12 20.53 12 19.9996" stroke="#FFAB3F" stroke-width="2" stroke-linecap="round" stroke-linejoin="round"/>
</svg>
