<svg width="20" height="20" viewBox="0 0 20 20" fill="none" xmlns="http://www.w3.org/2000/svg">
<path d="M16.4499 6.94214L11.9166 1.94214C11.8387 1.85582 11.7436 1.78675 11.6374 1.73939C11.5311 1.69203 11.4162 1.66742 11.2999 1.66714H5.46659C5.18971 1.66384 4.9149 1.71511 4.65784 1.81802C4.40078 1.92094 4.16651 2.07348 3.9684 2.26694C3.7703 2.4604 3.61225 2.69098 3.50327 2.94553C3.39429 3.20008 3.33652 3.4736 3.33325 3.75048V16.2505C3.33652 16.5274 3.39429 16.8009 3.50327 17.0554C3.61225 17.31 3.7703 17.5406 3.9684 17.734C4.16651 17.9275 4.40078 18.08 4.65784 18.1829C4.9149 18.2858 5.18971 18.3371 5.46659 18.3338H14.5333C15.0924 18.3403 15.6312 18.1244 16.0312 17.7338C16.4312 17.3431 16.6598 16.8096 16.6666 16.2505V7.50048C16.666 7.29395 16.5888 7.09497 16.4499 6.94214ZM11.6666 4.16714L13.9499 6.66714H12.2833C12.196 6.66187 12.1106 6.63928 12.0322 6.60067C11.9538 6.56206 11.8838 6.50822 11.8264 6.44228C11.769 6.37634 11.7253 6.29963 11.6979 6.21662C11.6704 6.13361 11.6598 6.04597 11.6666 5.95881V4.16714ZM14.5333 16.6671H5.46659C5.40856 16.6705 5.35045 16.6624 5.29556 16.6433C5.24068 16.6242 5.19012 16.5944 5.14676 16.5557C5.10341 16.517 5.06812 16.4701 5.04292 16.4177C5.01772 16.3653 5.00311 16.3085 4.99992 16.2505V3.75048C5.00311 3.69244 5.01772 3.63561 5.04292 3.58324C5.06812 3.53087 5.10341 3.48398 5.14676 3.44527C5.19012 3.40657 5.24068 3.37679 5.29556 3.35767C5.35045 3.33854 5.40856 3.33043 5.46659 3.33381H9.99992V5.95881C9.98647 6.57266 10.2164 7.16691 10.6395 7.61187C11.0626 8.05682 11.6445 8.31635 12.2583 8.33381H14.9999V16.2505C14.9967 16.3085 14.9821 16.3653 14.9569 16.4177C14.9317 16.4701 14.8964 16.517 14.8531 16.5557C14.8097 16.5944 14.7592 16.6242 14.7043 16.6433C14.6494 16.6624 14.5913 16.6705 14.5333 16.6671Z" fill="#0C0D0D"/>
<path d="M11.6667 10.8337H10.8333V10.0003C10.8333 9.77931 10.7455 9.56735 10.5893 9.41107C10.433 9.25479 10.221 9.16699 10 9.16699C9.77899 9.16699 9.56702 9.25479 9.41074 9.41107C9.25446 9.56735 9.16667 9.77931 9.16667 10.0003V10.8337H8.33333C8.11232 10.8337 7.90036 10.9215 7.74408 11.0777C7.5878 11.234 7.5 11.446 7.5 11.667C7.5 11.888 7.5878 12.1 7.74408 12.2562C7.90036 12.4125 8.11232 12.5003 8.33333 12.5003H9.16667V13.3337C9.16667 13.5547 9.25446 13.7666 9.41074 13.9229C9.56702 14.0792 9.77899 14.167 10 14.167C10.221 14.167 10.433 14.0792 10.5893 13.9229C10.7455 13.7666 10.8333 13.5547 10.8333 13.3337V12.5003H11.6667C11.8877 12.5003 12.0996 12.4125 12.2559 12.2562C12.4122 12.1 12.5 11.888 12.5 11.667C12.5 11.446 12.4122 11.234 12.2559 11.0777C12.0996 10.9215 11.8877 10.8337 11.6667 10.8337Z" fill="#0C0D0D"/>
</svg>
