<svg width="20" height="20" viewBox="0 0 20 20" fill="none" xmlns="http://www.w3.org/2000/svg">
<path d="M16.45 6.94214L11.9167 1.94214C11.8388 1.85582 11.7437 1.78675 11.6375 1.73939C11.5313 1.69203 11.4163 1.66742 11.3 1.66714H5.46671C5.18983 1.66384 4.91502 1.71511 4.65796 1.81802C4.4009 1.92094 4.16663 2.07348 3.96853 2.26694C3.77042 2.4604 3.61237 2.69098 3.50339 2.94553C3.39441 3.20008 3.33664 3.4736 3.33337 3.75048V16.2505C3.33664 16.5274 3.39441 16.8009 3.50339 17.0554C3.61237 17.31 3.77042 17.5406 3.96853 17.734C4.16663 17.9275 4.4009 18.08 4.65796 18.1829C4.91502 18.2858 5.18983 18.3371 5.46671 18.3338H14.5334C15.0925 18.3403 15.6313 18.1244 16.0313 17.7338C16.4314 17.3431 16.6599 16.8096 16.6667 16.2505V7.50048C16.6662 7.29395 16.589 7.09497 16.45 6.94214ZM11.6667 4.16714L13.95 6.66714H12.2834C12.1961 6.66187 12.1108 6.63928 12.0323 6.60067C11.9539 6.56206 11.8839 6.50822 11.8265 6.44228C11.7691 6.37634 11.7254 6.29963 11.698 6.21662C11.6705 6.13361 11.6599 6.04597 11.6667 5.95881V4.16714ZM14.5334 16.6671H5.46671C5.40869 16.6705 5.35057 16.6624 5.29569 16.6433C5.2408 16.6242 5.19024 16.5944 5.14688 16.5557C5.10353 16.517 5.06824 16.4701 5.04304 16.4177C5.01785 16.3653 5.00323 16.3085 5.00004 16.2505V3.75048C5.00323 3.69244 5.01785 3.63561 5.04304 3.58324C5.06824 3.53087 5.10353 3.48398 5.14688 3.44527C5.19024 3.40657 5.2408 3.37679 5.29569 3.35767C5.35057 3.33854 5.40869 3.33043 5.46671 3.33381H10V5.95881C9.98659 6.57266 10.2165 7.16691 10.6396 7.61187C11.0627 8.05682 11.6446 8.31635 12.2584 8.33381H15V16.2505C14.9968 16.3085 14.9822 16.3653 14.957 16.4177C14.9318 16.4701 14.8966 16.517 14.8532 16.5557C14.8098 16.5944 14.7593 16.6242 14.7044 16.6433C14.6495 16.6624 14.5914 16.6705 14.5334 16.6671Z" fill="#0C0D0D"/>
<path d="M11.6667 10.8337H10.8333V10.0003C10.8333 9.77931 10.7455 9.56735 10.5893 9.41107C10.433 9.25479 10.221 9.16699 10 9.16699C9.77899 9.16699 9.56702 9.25479 9.41074 9.41107C9.25446 9.56735 9.16667 9.77931 9.16667 10.0003V10.8337H8.33333C8.11232 10.8337 7.90036 10.9215 7.74408 11.0777C7.5878 11.234 7.5 11.446 7.5 11.667C7.5 11.888 7.5878 12.1 7.74408 12.2562C7.90036 12.4125 8.11232 12.5003 8.33333 12.5003H9.16667V13.3337C9.16667 13.5547 9.25446 13.7666 9.41074 13.9229C9.56702 14.0792 9.77899 14.167 10 14.167C10.221 14.167 10.433 14.0792 10.5893 13.9229C10.7455 13.7666 10.8333 13.5547 10.8333 13.3337V12.5003H11.6667C11.8877 12.5003 12.0996 12.4125 12.2559 12.2562C12.4122 12.1 12.5 11.888 12.5 11.667C12.5 11.446 12.4122 11.234 12.2559 11.0777C12.0996 10.9215 11.8877 10.8337 11.6667 10.8337Z" fill="#0C0D0D"/>
</svg>
