<svg width="20" height="20" viewBox="0 0 20 20" fill="none" xmlns="http://www.w3.org/2000/svg">
<path d="M16.4502 6.94214L11.9168 1.94214C11.8389 1.85582 11.7438 1.78675 11.6376 1.73939C11.5314 1.69203 11.4164 1.66742 11.3002 1.66714H5.46683C5.18995 1.66384 4.91514 1.71511 4.65808 1.81802C4.40102 1.92094 4.16675 2.07348 3.96865 2.26694C3.77055 2.4604 3.61249 2.69098 3.50351 2.94553C3.39453 3.20008 3.33676 3.4736 3.3335 3.75048V16.2505C3.33676 16.5274 3.39453 16.8009 3.50351 17.0554C3.61249 17.31 3.77055 17.5406 3.96865 17.734C4.16675 17.9275 4.40102 18.08 4.65808 18.1829C4.91514 18.2858 5.18995 18.3371 5.46683 18.3338H14.5335C15.0926 18.3403 15.6314 18.1244 16.0314 17.7338C16.4315 17.3431 16.66 16.8096 16.6668 16.2505V7.50048C16.6663 7.29395 16.5891 7.09497 16.4502 6.94214ZM11.6668 4.16714L13.9502 6.66714H12.2835C12.1962 6.66187 12.1109 6.63928 12.0324 6.60067C11.954 6.56206 11.884 6.50822 11.8266 6.44228C11.7692 6.37634 11.7255 6.29963 11.6981 6.21662C11.6707 6.13361 11.66 6.04597 11.6668 5.95881V4.16714ZM14.5335 16.6671H5.46683C5.40881 16.6705 5.35069 16.6624 5.29581 16.6433C5.24093 16.6242 5.19036 16.5944 5.14701 16.5557C5.10365 16.517 5.06837 16.4701 5.04317 16.4177C5.01797 16.3653 5.00335 16.3085 5.00016 16.2505V3.75048C5.00335 3.69244 5.01797 3.63561 5.04317 3.58324C5.06837 3.53087 5.10365 3.48398 5.14701 3.44527C5.19036 3.40657 5.24093 3.37679 5.29581 3.35767C5.35069 3.33854 5.40881 3.33043 5.46683 3.33381H10.0002V5.95881C9.98671 6.57266 10.2166 7.16691 10.6397 7.61187C11.0628 8.05682 11.6447 8.31635 12.2585 8.33381H15.0002V16.2505C14.997 16.3085 14.9824 16.3653 14.9572 16.4177C14.932 16.4701 14.8967 16.517 14.8533 16.5557C14.81 16.5944 14.7594 16.6242 14.7045 16.6433C14.6496 16.6624 14.5915 16.6705 14.5335 16.6671Z" fill="#0C0D0D"/>
<path d="M11.6667 10.8337H10.8333V10.0003C10.8333 9.77931 10.7455 9.56735 10.5893 9.41107C10.433 9.25479 10.221 9.16699 10 9.16699C9.77899 9.16699 9.56702 9.25479 9.41074 9.41107C9.25446 9.56735 9.16667 9.77931 9.16667 10.0003V10.8337H8.33333C8.11232 10.8337 7.90036 10.9215 7.74408 11.0777C7.5878 11.234 7.5 11.446 7.5 11.667C7.5 11.888 7.5878 12.1 7.74408 12.2562C7.90036 12.4125 8.11232 12.5003 8.33333 12.5003H9.16667V13.3337C9.16667 13.5547 9.25446 13.7666 9.41074 13.9229C9.56702 14.0792 9.77899 14.167 10 14.167C10.221 14.167 10.433 14.0792 10.5893 13.9229C10.7455 13.7666 10.8333 13.5547 10.8333 13.3337V12.5003H11.6667C11.8877 12.5003 12.0996 12.4125 12.2559 12.2562C12.4122 12.1 12.5 11.888 12.5 11.667C12.5 11.446 12.4122 11.234 12.2559 11.0777C12.0996 10.9215 11.8877 10.8337 11.6667 10.8337Z" fill="#0C0D0D"/>
</svg>
