<svg width="46" height="46" viewBox="0 0 46 46" fill="none" xmlns="http://www.w3.org/2000/svg">
<path d="M7.31875 3.77734C6.37951 3.77734 5.47874 4.15046 4.8146 4.8146C4.15046 5.47874 3.77734 6.37951 3.77734 7.31875V23.8453C3.77734 24.7846 4.15046 25.6853 4.8146 26.3495C5.47874 27.0136 6.37951 27.3867 7.31875 27.3867H17.943V29.7477H6.13828C5.51212 29.7477 4.91161 29.9964 4.46885 30.4392C4.02608 30.8819 3.77734 31.4824 3.77734 32.1086V39.1914C3.77734 39.8176 4.02608 40.4181 4.46885 40.8608C4.91161 41.3036 5.51212 41.5523 6.13828 41.5523H39.1914C39.8176 41.5523 40.4181 41.3036 40.8608 40.8608C41.3036 40.4181 41.5523 39.8176 41.5523 39.1914V32.1086C41.5523 31.4824 41.3036 30.8819 40.8608 30.4392C40.4181 29.9964 39.8176 29.7477 39.1914 29.7477H27.3867V27.3867H38.0109C38.9502 27.3867 39.8509 27.0136 40.5151 26.3495C41.1792 25.6853 41.5523 24.7846 41.5523 23.8453V7.31875C41.5523 6.37951 41.1792 5.47874 40.5151 4.8146C39.8509 4.15046 38.9502 3.77734 38.0109 3.77734H7.31875ZM7.31875 6.13828H38.0109C38.324 6.13828 38.6243 6.26265 38.8457 6.48403C39.067 6.70541 39.1914 7.00567 39.1914 7.31875V23.8453C39.1917 24.0004 39.1613 24.154 39.1021 24.2974C39.0428 24.4407 38.9559 24.5709 38.8462 24.6806C38.7365 24.7903 38.6063 24.8772 38.463 24.9364C38.3196 24.9957 38.166 25.026 38.0109 25.0258H7.31875C7.00567 25.0258 6.70541 24.9014 6.48403 24.68C6.26265 24.4587 6.13828 24.1584 6.13828 23.8453V7.31875C6.13828 7.00567 6.26265 6.70541 6.48403 6.48403C6.70541 6.26265 7.00567 6.13828 7.31875 6.13828ZM32.1086 33.2891C32.1086 32.9762 32.2329 32.6762 32.4541 32.455C32.6753 32.2338 32.9753 32.1095 33.2881 32.1095C33.6009 32.1095 33.901 32.2338 34.1222 32.455C34.3434 32.6762 34.4676 32.9762 34.4676 33.2891C34.4676 33.6019 34.3434 33.9019 34.1222 34.1231C33.901 34.3443 33.6009 34.4686 33.2881 34.4686C32.9753 34.4686 32.6753 34.3443 32.4541 34.1231C32.2329 33.9019 32.1086 33.6019 32.1086 33.2891ZM36.8305 33.2891C36.8305 33.1342 36.861 32.9808 36.9203 32.8377C36.9795 32.6946 37.0664 32.5645 37.1759 32.455C37.2855 32.3455 37.4155 32.2586 37.5586 32.1993C37.7017 32.14 37.8551 32.1095 38.01 32.1095C38.1649 32.1095 38.3183 32.14 38.4614 32.1993C38.6045 32.2586 38.7345 32.3455 38.844 32.455C38.9536 32.5645 39.0405 32.6946 39.0997 32.8377C39.159 32.9808 39.1895 33.1342 39.1895 33.2891C39.1895 33.6019 39.0652 33.9019 38.844 34.1231C38.6228 34.3443 38.3228 34.4686 38.01 34.4686C37.6972 34.4686 37.3971 34.3443 37.1759 34.1231C36.9547 33.9019 36.8305 33.6019 36.8305 33.2891ZM7.31875 32.1086H19.1234C19.4365 32.1086 19.7368 32.233 19.9582 32.4543C20.1795 32.6757 20.3039 32.976 20.3039 33.2891C20.3039 33.6021 20.1795 33.9024 19.9582 34.1238C19.7368 34.3452 19.4365 34.4695 19.1234 34.4695H7.31875C7.00567 34.4695 6.70541 34.3452 6.48403 34.1238C6.26265 33.9024 6.13828 33.6021 6.13828 33.2891C6.13828 32.976 6.26265 32.6757 6.48403 32.4543C6.70541 32.233 7.00567 32.1086 7.31875 32.1086ZM6.13828 37.4216C6.13828 37.2649 6.20057 37.1145 6.31143 37.0036C6.4223 36.8928 6.57267 36.8305 6.72946 36.8305H19.7127C19.793 36.8259 19.8734 36.8378 19.949 36.8654C20.0246 36.893 20.0937 36.9358 20.1522 36.991C20.2106 37.0463 20.2572 37.1129 20.2891 37.1868C20.3209 37.2607 20.3373 37.3403 20.3373 37.4207C20.3373 37.5012 20.3209 37.5808 20.2891 37.6546C20.2572 37.7285 20.2106 37.7951 20.1522 37.8504C20.0937 37.9056 20.0246 37.9484 19.949 37.976C19.8734 38.0036 19.793 38.0155 19.7127 38.0109H6.73135C6.65364 38.0112 6.57666 37.9961 6.50482 37.9664C6.43298 37.9368 6.36771 37.8933 6.31277 37.8383C6.25782 37.7834 6.21428 37.7181 6.18466 37.6463C6.15504 37.5745 6.13992 37.4975 6.14017 37.4198L6.13828 37.4216Z" fill="#FEFEFE"/>
</svg>
