<svg width="20" height="20" viewBox="0 0 20 20" fill="none" xmlns="http://www.w3.org/2000/svg">
<path d="M9.99996 1.66699C7.78982 1.66699 5.67021 2.54497 4.1074 4.10777C2.5446 5.67057 1.66663 7.79019 1.66663 10.0003C1.66663 12.2105 2.5446 14.3301 4.1074 15.8929C5.67021 17.4557 7.78982 18.3337 9.99996 18.3337C12.2101 18.3337 14.3297 17.4557 15.8925 15.8929C17.4553 14.3301 18.3333 12.2105 18.3333 10.0003C18.3333 7.79019 17.4553 5.67057 15.8925 4.10777C14.3297 2.54497 12.2101 1.66699 9.99996 1.66699ZM10.8333 13.3337C10.8333 13.5547 10.7455 13.7666 10.5892 13.9229C10.4329 14.0792 10.221 14.167 9.99996 14.167C9.77895 14.167 9.56698 14.0792 9.4107 13.9229C9.25442 13.7666 9.16663 13.5547 9.16663 13.3337V9.16699C9.16663 8.94598 9.25442 8.73402 9.4107 8.57774C9.56698 8.42146 9.77895 8.33366 9.99996 8.33366C10.221 8.33366 10.4329 8.42146 10.5892 8.57774C10.7455 8.73402 10.8333 8.94598 10.8333 9.16699V13.3337ZM9.99996 7.50033C9.77895 7.50033 9.56698 7.41253 9.4107 7.25625C9.25442 7.09997 9.16663 6.88801 9.16663 6.66699C9.16663 6.44598 9.25442 6.23402 9.4107 6.07774C9.56698 5.92146 9.77895 5.83366 9.99996 5.83366C10.221 5.83366 10.4329 5.92146 10.5892 6.07774C10.7455 6.23402 10.8333 6.44598 10.8333 6.66699C10.8333 6.88801 10.7455 7.09997 10.5892 7.25625C10.4329 7.41253 10.221 7.50033 9.99996 7.50033Z" fill="#0C0D0D"/>
</svg>
