<svg width="20" height="20" viewBox="0 0 20 20" fill="none" xmlns="http://www.w3.org/2000/svg">
<path d="M10.0001 1.66699C7.78994 1.66699 5.67033 2.54497 4.10752 4.10777C2.54472 5.67057 1.66675 7.79019 1.66675 10.0003C1.66675 12.2105 2.54472 14.3301 4.10752 15.8929C5.67033 17.4557 7.78994 18.3337 10.0001 18.3337C12.2102 18.3337 14.3298 17.4557 15.8926 15.8929C17.4554 14.3301 18.3334 12.2105 18.3334 10.0003C18.3334 7.79019 17.4554 5.67057 15.8926 4.10777C14.3298 2.54497 12.2102 1.66699 10.0001 1.66699ZM10.8334 13.3337C10.8334 13.5547 10.7456 13.7666 10.5893 13.9229C10.4331 14.0792 10.2211 14.167 10.0001 14.167C9.77907 14.167 9.56711 14.0792 9.41083 13.9229C9.25455 13.7666 9.16675 13.5547 9.16675 13.3337V9.16699C9.16675 8.94598 9.25455 8.73402 9.41083 8.57774C9.56711 8.42146 9.77907 8.33366 10.0001 8.33366C10.2211 8.33366 10.4331 8.42146 10.5893 8.57774C10.7456 8.73402 10.8334 8.94598 10.8334 9.16699V13.3337ZM10.0001 7.50033C9.77907 7.50033 9.56711 7.41253 9.41083 7.25625C9.25455 7.09997 9.16675 6.88801 9.16675 6.66699C9.16675 6.44598 9.25455 6.23402 9.41083 6.07774C9.56711 5.92146 9.77907 5.83366 10.0001 5.83366C10.2211 5.83366 10.4331 5.92146 10.5893 6.07774C10.7456 6.23402 10.8334 6.44598 10.8334 6.66699C10.8334 6.88801 10.7456 7.09997 10.5893 7.25625C10.4331 7.41253 10.2211 7.50033 10.0001 7.50033Z" fill="#6C7275"/>
</svg>
