<svg width="24" height="24" viewBox="0 0 24 24" fill="none" xmlns="http://www.w3.org/2000/svg">
<path d="M12.3536 12.3536C12.2598 12.4473 12.1326 12.5 12 12.5C11.8674 12.5 11.7402 12.4473 11.6464 12.3536C11.5527 12.2598 11.5 12.1326 11.5 12C11.5 11.8674 11.5527 11.7402 11.6464 11.6464C11.7402 11.5527 11.8674 11.5 12 11.5C12.1326 11.5 12.2598 11.5527 12.3536 11.6464C12.4473 11.7402 12.5 11.8674 12.5 12C12.5 12.1326 12.4473 12.2598 12.3536 12.3536Z" fill="#3FDD78" stroke="#3FDD78"/>
<path d="M16.3536 12.3536C16.2598 12.4473 16.1326 12.5 16 12.5C15.8674 12.5 15.7402 12.4473 15.6464 12.3536C15.5527 12.2598 15.5 12.1326 15.5 12C15.5 11.8674 15.5527 11.7402 15.6464 11.6464C15.7402 11.5527 15.8674 11.5 16 11.5C16.1326 11.5 16.2598 11.5527 16.3536 11.6464C16.4473 11.7402 16.5 11.8674 16.5 12C16.5 12.1326 16.4473 12.2598 16.3536 12.3536Z" fill="#3FDD78" stroke="#3FDD78"/>
<path d="M8.35355 12.3536C8.25978 12.4473 8.13261 12.5 8 12.5C7.86739 12.5 7.74022 12.4473 7.64645 12.3536C7.55268 12.2598 7.5 12.1326 7.5 12C7.5 11.8674 7.55268 11.7402 7.64645 11.6464C7.74022 11.5527 7.86739 11.5 8 11.5C8.13261 11.5 8.25978 11.5527 8.35355 11.6464C8.44732 11.7402 8.5 11.8674 8.5 12C8.5 12.1326 8.44732 12.2598 8.35355 12.3536Z" fill="#3FDD78" stroke="#3FDD78"/>
<path d="M19.0701 4.92856C17.4293 3.27706 15.2638 2.24977 12.9467 2.0238C10.6297 1.79783 8.30647 2.38734 6.3775 3.69069C4.44854 4.99404 3.03475 6.92956 2.37988 9.16357C1.72501 11.3976 1.87009 13.7901 2.79012 15.9286C2.88612 16.1266 2.91712 16.3506 2.88012 16.5686L2.00012 20.7986C1.95264 21.0279 1.9872 21.2667 2.09777 21.4732C2.20834 21.6797 2.38789 21.8409 2.60512 21.9286C2.73071 21.9783 2.86507 22.0021 3.00012 21.9986H3.20012L7.48012 21.1386C7.69712 21.1116 7.91812 21.1426 8.12012 21.2286C10.2586 22.1486 12.6511 22.2937 14.8851 21.6388C17.1191 20.9839 19.0546 19.5701 20.358 17.6412C21.6613 15.7122 22.2508 13.389 22.0249 11.0719C21.7989 8.75492 20.7716 6.58934 19.1201 4.94856L19.0701 4.92856ZM19.9001 13.2886C19.7044 14.4824 19.2405 15.6164 18.5433 16.6051C17.8461 17.5939 16.9338 18.4116 15.875 18.9969C14.8161 19.5821 13.6384 19.9196 12.4302 19.984C11.2221 20.0484 10.0152 19.838 8.90012 19.3686C8.50468 19.2003 8.07985 19.1119 7.65012 19.1086C7.4624 19.1098 7.2751 19.1266 7.09012 19.1586L4.27012 19.7286L4.84012 16.9086C4.95364 16.2978 4.88046 15.6671 4.63012 15.0986C4.14978 13.956 3.94148 12.7175 4.02163 11.4807C4.10179 10.2439 4.46821 9.04265 5.092 7.97168C5.7158 6.9007 6.57989 5.98931 7.61614 5.30939C8.65238 4.62946 9.83243 4.1996 11.0632 4.05372C12.294 3.90783 13.5418 4.0499 14.7083 4.46873C15.8748 4.88756 16.928 5.57169 17.7849 6.46715C18.6418 7.36262 19.2789 8.44493 19.646 9.62872C20.013 10.8125 20.1 12.0654 19.9001 13.2886Z" fill="#3FDD78"/>
</svg>
