<svg width="24" height="24" viewBox="0 0 24 24" fill="none" xmlns="http://www.w3.org/2000/svg">
<path d="M12.3536 12.3536C12.2598 12.4473 12.1326 12.5 12 12.5C11.8674 12.5 11.7402 12.4473 11.6464 12.3536C11.5527 12.2598 11.5 12.1326 11.5 12C11.5 11.8674 11.5527 11.7402 11.6464 11.6464C11.7402 11.5527 11.8674 11.5 12 11.5C12.1326 11.5 12.2598 11.5527 12.3536 11.6464C12.4473 11.7402 12.5 11.8674 12.5 12C12.5 12.1326 12.4473 12.2598 12.3536 12.3536Z" fill="#3FDD78" stroke="#3FDD78"/>
<path d="M16.3536 12.3536C16.2598 12.4473 16.1326 12.5 16 12.5C15.8674 12.5 15.7402 12.4473 15.6464 12.3536C15.5527 12.2598 15.5 12.1326 15.5 12C15.5 11.8674 15.5527 11.7402 15.6464 11.6464C15.7402 11.5527 15.8674 11.5 16 11.5C16.1326 11.5 16.2598 11.5527 16.3536 11.6464C16.4473 11.7402 16.5 11.8674 16.5 12C16.5 12.1326 16.4473 12.2598 16.3536 12.3536Z" fill="#3FDD78" stroke="#3FDD78"/>
<path d="M8.35355 12.3536C8.25978 12.4473 8.13261 12.5 8 12.5C7.86739 12.5 7.74022 12.4473 7.64645 12.3536C7.55268 12.2598 7.5 12.1326 7.5 12C7.5 11.8674 7.55268 11.7402 7.64645 11.6464C7.74022 11.5527 7.86739 11.5 8 11.5C8.13261 11.5 8.25978 11.5527 8.35355 11.6464C8.44732 11.7402 8.5 11.8674 8.5 12C8.5 12.1326 8.44732 12.2598 8.35355 12.3536Z" fill="#3FDD78" stroke="#3FDD78"/>
<path d="M19.07 4.92856C17.4292 3.27706 15.2636 2.24977 12.9466 2.0238C10.6296 1.79783 8.30634 2.38734 6.37738 3.69069C4.44842 4.99404 3.03463 6.92956 2.37976 9.16357C1.72489 11.3976 1.86997 13.7901 2.79 15.9286C2.886 16.1266 2.917 16.3506 2.88 16.5686L2 20.7986C1.95252 21.0279 1.98708 21.2667 2.09765 21.4732C2.20821 21.6797 2.38777 21.8409 2.605 21.9286C2.73058 21.9783 2.86495 22.0021 3 21.9986H3.2L7.48 21.1386C7.697 21.1116 7.918 21.1426 8.12 21.2286C10.2585 22.1486 12.651 22.2937 14.885 21.6388C17.119 20.9839 19.0545 19.5701 20.3579 17.6412C21.6612 15.7122 22.2507 13.389 22.0248 11.0719C21.7988 8.75492 20.7715 6.58934 19.12 4.94856L19.07 4.92856ZM19.9 13.2886C19.7043 14.4824 19.2404 15.6164 18.5432 16.6051C17.846 17.5939 16.9337 18.4116 15.8748 18.9969C14.816 19.5821 13.6382 19.9196 12.4301 19.984C11.222 20.0484 10.015 19.838 8.9 19.3686C8.50455 19.2003 8.07973 19.1119 7.65 19.1086C7.46227 19.1098 7.27498 19.1266 7.09 19.1586L4.27 19.7286L4.84 16.9086C4.95352 16.2978 4.88034 15.6671 4.63 15.0986C4.14966 13.956 3.94135 12.7175 4.02151 11.4807C4.10167 10.2439 4.46809 9.04265 5.09188 7.97168C5.71567 6.9007 6.57977 5.98931 7.61601 5.30939C8.65226 4.62946 9.83231 4.1996 11.0631 4.05372C12.2939 3.90783 13.5417 4.0499 14.7082 4.46873C15.8747 4.88756 16.9279 5.57169 17.7848 6.46715C18.6417 7.36262 19.2788 8.44493 19.6458 9.62872C20.0129 10.8125 20.0999 12.0654 19.9 13.2886Z" fill="#3FDD78"/>
</svg>
