<svg width="144" height="40" viewBox="0 0 144 40" fill="none" xmlns="http://www.w3.org/2000/svg">
<path d="M52.1948 15.0267L49.6124 17.5676V24.1374H48.0483V5.80713H49.6124V15.6801L59.0329 5.80713H60.9971L53.286 13.9741L61.579 24.1374H59.6876L52.1948 15.0267Z" fill="white"/>
<path d="M65.18 10.5261L65.2164 12.8491C65.7256 12.0143 66.3803 11.3609 67.1442 10.9253C67.908 10.4898 68.7446 10.272 69.6903 10.272C71.1452 10.272 72.2363 10.6712 72.9638 11.5061C73.6913 12.3409 74.055 13.5751 74.055 15.2085V24.1377H72.5637V15.2085C72.5637 13.9743 72.3091 13.0669 71.7999 12.4861C71.2907 11.9054 70.4905 11.5787 69.3629 11.5787C68.4172 11.5787 67.617 11.8691 66.8895 12.4498C66.1621 13.0306 65.6529 13.8291 65.2891 14.8092V24.1377H63.7979V10.5261H65.18Z" fill="white"/>
<path d="M77.074 17.1321C77.074 15.8253 77.3286 14.6275 77.8378 13.6112C78.347 12.5949 79.0745 11.76 79.9838 11.1792C80.8931 10.5985 81.9843 10.3081 83.1482 10.3081C84.9669 10.3081 86.4218 10.9615 87.5493 12.2319C88.6769 13.5023 89.2225 15.172 89.2225 17.2773V17.6039C89.2225 18.9106 88.9679 20.1085 88.4587 21.1611C87.9494 22.2137 87.222 23.0123 86.3127 23.593C85.4033 24.1738 84.3485 24.4642 83.1482 24.4642C81.3296 24.4642 79.8747 23.8108 78.7471 22.5404C77.6196 21.27 77.0376 19.6003 77.0376 17.495V17.1321H77.074ZM78.6016 17.5676C78.6016 19.201 79.0381 20.544 79.8747 21.5604C80.7113 22.613 81.8388 23.1212 83.1846 23.1212C84.5304 23.1212 85.658 22.613 86.4945 21.5604C87.3311 20.5077 87.7676 19.1284 87.7676 17.4224V17.1321C87.7676 16.0794 87.5857 15.1357 87.1856 14.2645C86.7855 13.3934 86.2399 12.74 85.5488 12.2682C84.8578 11.7963 84.0576 11.5422 83.1482 11.5422C81.8024 11.5422 80.7113 12.0867 79.8383 13.1393C78.9654 14.192 78.5653 15.5713 78.5653 17.2773V17.5676H78.6016Z" fill="white"/>
<path d="M95.6601 21.0159L95.8784 22.1774L96.1694 20.9433L99.4429 10.5259H100.716L103.953 20.8707L104.317 22.3226L104.608 21.0159L107.409 10.5622H108.973L105.008 24.1738H103.735L100.243 13.3571L100.061 12.6311L99.8794 13.3934L96.424 24.1738H95.1509L91.2227 10.5259H92.7867L95.6601 21.0159Z" fill="white"/>
<path d="M113.556 24.1377H112.028V4.79102H113.556V24.1377Z" fill="white"/>
<path d="M122.94 24.3919C121.776 24.3919 120.721 24.1015 119.776 23.5208C118.83 22.94 118.102 22.1415 117.593 21.1251C117.084 20.1088 116.793 18.9473 116.793 17.6769V17.1324C116.793 15.8257 117.048 14.6279 117.557 13.6115C118.066 12.5952 118.757 11.724 119.666 11.1433C120.576 10.5625 121.558 10.2358 122.613 10.2358C124.286 10.2358 125.595 10.8166 126.541 11.9418C127.487 13.0671 127.996 14.6279 127.996 16.5516V17.4228H118.248V17.7132C118.248 19.274 118.684 20.5444 119.594 21.5607C120.467 22.577 121.594 23.0852 122.94 23.0852C123.74 23.0852 124.468 22.94 125.086 22.6496C125.704 22.3593 126.25 21.8874 126.759 21.234L127.705 21.96C126.686 23.5934 125.05 24.3919 122.94 24.3919ZM122.685 11.5426C121.558 11.5426 120.576 11.9418 119.812 12.7767C119.048 13.6115 118.575 14.7367 118.393 16.1161H126.577V15.9346C126.541 14.6279 126.177 13.5752 125.45 12.7404C124.722 11.9055 123.813 11.5426 122.685 11.5426Z" fill="white"/>
<path d="M136.289 24.3919C135.125 24.3919 134.07 24.1015 133.124 23.5208C132.178 22.94 131.451 22.1415 130.942 21.1251C130.433 20.1088 130.142 18.9473 130.142 17.6769V17.1324C130.142 15.8257 130.396 14.6279 130.905 13.6115C131.415 12.5952 132.106 11.724 133.015 11.1433C133.924 10.5625 134.906 10.2358 135.961 10.2358C137.634 10.2358 138.944 10.8166 139.89 11.9418C140.835 13.0671 141.344 14.6279 141.344 16.5516V17.4228H131.669V17.7132C131.669 19.274 132.106 20.5444 133.015 21.5607C133.888 22.577 135.016 23.0852 136.361 23.0852C137.162 23.0852 137.889 22.94 138.507 22.6496C139.126 22.3593 139.671 21.8874 140.181 21.234L141.126 21.96C140.035 23.5934 138.435 24.3919 136.289 24.3919ZM136.034 11.5426C134.906 11.5426 133.924 11.9418 133.161 12.7767C132.397 13.6115 131.924 14.7367 131.742 16.1161H139.926V15.9346C139.89 14.6279 139.526 13.5752 138.798 12.7404C138.071 11.9055 137.162 11.5426 136.034 11.5426Z" fill="white"/>
<path d="M49.8667 30.3447L50.9943 28.2031H51.649L50.1577 30.8892V32.4862H49.5758V30.8892L48.0845 28.2031H48.7392L49.8667 30.3447Z" fill="white"/>
<path d="M51.7583 30.8531C51.7583 30.5264 51.831 30.2724 51.9402 30.0183C52.0493 29.7642 52.2311 29.5827 52.4494 29.4375C52.6676 29.2923 52.9222 29.2197 53.2132 29.2197C53.6497 29.2197 54.0134 29.3649 54.268 29.6553C54.5226 29.9457 54.6681 30.345 54.6681 30.8531V30.8894C54.6681 31.2161 54.5954 31.4702 54.4863 31.7243C54.3771 31.9783 54.1953 32.1598 53.977 32.305C53.7588 32.4502 53.5042 32.5228 53.2132 32.5228C52.7767 32.5228 52.413 32.3776 52.1584 32.0872C51.9038 31.7969 51.7583 31.3976 51.7583 30.8894V30.8531ZM52.3039 30.9257C52.3039 31.2887 52.3766 31.5791 52.5585 31.7606C52.7404 31.9783 52.9586 32.0872 53.2132 32.0872C53.5042 32.0872 53.7224 31.9783 53.8679 31.7606C54.0134 31.5428 54.1225 31.2524 54.1225 30.8531C54.1225 30.4901 54.0498 30.2361 53.8679 30.0183C53.6861 29.8005 53.4678 29.6916 53.2132 29.6916C52.9586 29.6916 52.7404 29.8005 52.5585 30.0183C52.3766 30.2361 52.3039 30.5264 52.3039 30.9257Z" fill="white"/>
<path d="M57.323 32.1595C57.1048 32.4136 56.8138 32.5225 56.3773 32.5225C56.05 32.5225 55.7954 32.4136 55.6135 32.2321C55.4316 32.0506 55.3589 31.7602 55.3589 31.361V29.292H55.9045V31.361C55.9045 31.8328 56.0863 32.0869 56.4864 32.0869C56.8865 32.0869 57.1775 31.9417 57.323 31.615V29.292H57.8686V32.4862H57.3594L57.323 32.1595Z" fill="white"/>
<path d="M60.2332 29.8005C60.1605 29.8005 60.0514 29.7642 59.9786 29.7642C59.6149 29.7642 59.3603 29.9094 59.2512 30.2361V32.4865H58.7056V29.2923H59.2512V29.6553C59.433 29.3649 59.6876 29.2197 60.015 29.2197C60.1241 29.2197 60.1969 29.2197 60.2696 29.256V29.8005H60.2332Z" fill="white"/>
<path d="M62.8881 30.8166V32.4862H62.3062V28.2031H63.9066C64.3794 28.2031 64.7431 28.312 64.9977 28.5661C65.2523 28.8202 65.3978 29.1106 65.3978 29.5098C65.3978 29.9091 65.2523 30.2358 64.9977 30.4899C64.7431 30.744 64.3794 30.8166 63.8702 30.8166H62.8881ZM62.8881 30.3447H63.9066C64.1975 30.3447 64.4521 30.2721 64.5976 30.1269C64.7431 29.9817 64.8522 29.7639 64.8522 29.5098C64.8522 29.2558 64.7795 29.038 64.5976 28.8928C64.4521 28.7476 64.1975 28.675 63.9429 28.6387H62.8881V30.3447Z" fill="white"/>
<path d="M67.3255 32.5589C66.889 32.5589 66.5253 32.4138 66.2707 32.1234C66.0161 31.833 65.8706 31.47 65.8706 30.9981V30.8893C65.8706 30.5626 65.9434 30.3085 66.0525 30.0544C66.1616 29.8003 66.3434 29.6188 66.5617 29.4736C66.7799 29.3285 66.9982 29.2559 67.2528 29.2559C67.6529 29.2559 67.9802 29.401 68.2348 29.6551C68.4531 29.9455 68.5622 30.3085 68.5622 30.8167V31.0344H66.3798C66.3798 31.3611 66.4889 31.6152 66.6708 31.7967C66.8527 31.9782 67.0709 32.0871 67.3255 32.0871C67.5074 32.0871 67.6892 32.0508 67.7984 31.9782C67.9439 31.9056 68.053 31.7967 68.1621 31.6515L68.4894 31.9056C68.2712 32.3412 67.8711 32.5589 67.3255 32.5589ZM67.2528 29.6914C67.0345 29.6914 66.8527 29.764 66.7072 29.9455C66.5617 30.0907 66.4526 30.3448 66.4162 30.6352H68.0166V30.5989C68.0166 30.3085 67.9439 30.0907 67.7984 29.9455C67.6892 29.764 67.5074 29.6914 67.2528 29.6914Z" fill="white"/>
<path d="M70.7449 29.8005C70.6722 29.8005 70.5631 29.7642 70.4903 29.7642C70.1266 29.7642 69.872 29.9094 69.7629 30.2361V32.4865H69.2173V29.2923H69.7629V29.6553C69.9447 29.3649 70.1993 29.2197 70.5267 29.2197C70.6358 29.2197 70.7086 29.2197 70.7813 29.256V29.8005H70.7449Z" fill="white"/>
<path d="M73.1089 31.6513C73.1089 31.5061 73.0361 31.3973 72.927 31.3247C72.8179 31.2521 72.636 31.1795 72.3451 31.1069C72.0541 31.0343 71.8358 30.9617 71.6904 30.8891C71.5449 30.8165 71.3994 30.7076 71.3266 30.5987C71.2539 30.4898 71.2175 30.3446 71.2175 30.1994C71.2175 29.9453 71.3266 29.7276 71.5449 29.5461C71.7631 29.3646 72.0541 29.292 72.3814 29.292C72.7452 29.292 73.0361 29.4009 73.2544 29.5824C73.4726 29.7639 73.5817 30.0179 73.5817 30.3083H73.0361C73.0361 30.1631 72.9634 30.0179 72.8543 29.9091C72.7452 29.8002 72.5633 29.7639 72.3814 29.7639C72.1996 29.7639 72.0177 29.8002 71.9086 29.9091C71.7995 29.9816 71.7267 30.1268 71.7267 30.2357C71.7267 30.3809 71.7631 30.4535 71.8722 30.5261C71.9813 30.5987 72.1632 30.6713 72.4542 30.7076C72.7088 30.7802 72.9634 30.8528 73.1089 30.9254C73.2544 30.998 73.3999 31.1069 73.4726 31.2158C73.5454 31.3247 73.5817 31.4699 73.5817 31.6513C73.5817 31.9417 73.4726 32.1595 73.2544 32.341C73.0361 32.5225 72.7452 32.5951 72.3814 32.5951C72.1268 32.5951 71.9086 32.5588 71.6904 32.4499C71.5085 32.3773 71.3266 32.2321 71.2175 32.0869C71.1084 31.9417 71.0356 31.7602 71.0356 31.5787H71.5812C71.5812 31.7602 71.654 31.9054 71.7995 32.0143C71.945 32.1232 72.1268 32.1595 72.3451 32.1595C72.5633 32.1595 72.7088 32.1232 72.8543 32.0506C72.9998 31.978 73.1089 31.7965 73.1089 31.6513Z" fill="white"/>
<path d="M74.2363 30.8531C74.2363 30.5264 74.3091 30.2724 74.4182 30.0183C74.5273 29.7642 74.7092 29.5827 74.9274 29.4375C75.1456 29.2923 75.4003 29.2197 75.6912 29.2197C76.1277 29.2197 76.4914 29.3649 76.7461 29.6553C77.0007 29.9457 77.1462 30.345 77.1462 30.8531V30.8894C77.1462 31.2161 77.0734 31.4702 76.9643 31.7243C76.8552 31.9783 76.6733 32.1598 76.4551 32.305C76.2368 32.4502 75.9822 32.5228 75.6912 32.5228C75.2548 32.5228 74.891 32.3776 74.6364 32.0872C74.3818 31.7969 74.2363 31.3976 74.2363 30.8894V30.8531ZM74.7819 30.9257C74.7819 31.2887 74.8547 31.5791 75.0365 31.7606C75.2184 31.9783 75.4366 32.0872 75.6912 32.0872C75.9822 32.0872 76.2005 31.9783 76.3459 31.7606C76.4914 31.5428 76.6006 31.2524 76.6006 30.8531C76.6006 30.4901 76.5278 30.2361 76.3459 30.0183C76.1641 29.8005 75.9459 29.6916 75.6912 29.6916C75.4366 29.6916 75.2184 29.8005 75.0365 30.0183C74.8547 30.2361 74.7819 30.5264 74.7819 30.9257Z" fill="white"/>
<path d="M78.3466 29.2923V29.6916C78.6012 29.4012 78.8922 29.2197 79.2923 29.2197C79.9834 29.2197 80.3108 29.5827 80.3108 30.345V32.4502H79.7652V30.345C79.7652 30.1272 79.6924 29.9457 79.6197 29.8368C79.5105 29.7279 79.3651 29.6553 79.1468 29.6553C78.965 29.6553 78.8195 29.6916 78.674 29.8005C78.5285 29.9094 78.4194 30.0183 78.3466 30.1635V32.4502H77.8374V29.256H78.3466V29.2923Z" fill="white"/>
<path d="M83.1477 32.4862C83.1113 32.4136 83.075 32.3047 83.075 32.1595C82.8204 32.4136 82.5294 32.5588 82.1656 32.5588C81.8383 32.5588 81.5837 32.4862 81.4018 32.3047C81.22 32.1232 81.1108 31.9054 81.1108 31.615C81.1108 31.2884 81.22 31.0343 81.4746 30.8528C81.7292 30.6713 82.0929 30.5624 82.5294 30.5624H83.075V30.3083C83.075 30.1268 83.0022 29.9817 82.8931 29.8365C82.784 29.7276 82.6021 29.655 82.3839 29.655C82.202 29.655 82.0202 29.6913 81.911 29.8002C81.8019 29.9091 81.7292 30.018 81.7292 30.1631H81.1836C81.1836 30.018 81.2563 29.8365 81.3654 29.6913C81.4746 29.5461 81.6201 29.4372 81.8383 29.3283C82.0565 29.2194 82.2384 29.1831 82.493 29.1831C82.8567 29.1831 83.1477 29.292 83.366 29.4735C83.5842 29.655 83.6933 29.9091 83.6933 30.2357V31.6876C83.6933 31.978 83.7297 32.1958 83.8024 32.3773V32.4136H83.1477V32.4862ZM82.2384 32.0869C82.4203 32.0869 82.5658 32.0506 82.7112 31.9417C82.8567 31.8691 82.9659 31.7239 83.0386 31.615V30.9617H82.6021C81.9474 30.9617 81.5837 31.1432 81.5837 31.5425C81.5837 31.7239 81.6564 31.8328 81.7656 31.9417C81.911 32.0143 82.0565 32.0869 82.2384 32.0869Z" fill="white"/>
<path d="M85.0392 32.4864H84.4937V27.9492H85.0392V32.4864Z" fill="white"/>
<path d="M88.058 32.0144H90.0949V32.4862H87.4761V28.2031H88.058V32.0144Z" fill="white"/>
<path d="M91.9867 32.5589C91.5502 32.5589 91.1865 32.4138 90.9318 32.1234C90.6772 31.833 90.5317 31.47 90.5317 30.9981V30.8893C90.5317 30.5626 90.6045 30.3085 90.7136 30.0544C90.8227 29.8003 91.0046 29.6188 91.2228 29.4736C91.4411 29.3285 91.6593 29.2559 91.9139 29.2559C92.314 29.2559 92.6414 29.401 92.896 29.6551C93.1142 29.9455 93.2233 30.3085 93.2233 30.8167V31.0344H91.041C91.041 31.3611 91.1501 31.6152 91.3319 31.7967C91.5138 31.9782 91.732 32.0871 91.9867 32.0871C92.1685 32.0871 92.3504 32.0508 92.4595 31.9782C92.605 31.9056 92.7141 31.7967 92.8232 31.6515L93.1506 31.9056C92.9323 32.3412 92.5322 32.5589 91.9867 32.5589ZM91.9139 29.6914C91.6957 29.6914 91.5138 29.764 91.3683 29.9455C91.2228 30.0907 91.1137 30.3448 91.0773 30.6352H92.6777V30.5989C92.6777 30.3085 92.605 30.0907 92.4595 29.9455C92.3504 29.764 92.1685 29.6914 91.9139 29.6914Z" fill="white"/>
<path d="M95.8421 32.4862C95.8057 32.4136 95.7693 32.3047 95.7693 32.1595C95.5147 32.4136 95.2237 32.5588 94.86 32.5588C94.5326 32.5588 94.278 32.4862 94.0962 32.3047C93.9143 32.1232 93.8052 31.9054 93.8052 31.615C93.8052 31.2884 93.9143 31.0343 94.1689 30.8528C94.4235 30.6713 94.7872 30.5624 95.2237 30.5624H95.7693V30.3083C95.7693 30.1268 95.6966 29.9817 95.5874 29.8365C95.4783 29.7276 95.2965 29.655 95.0782 29.655C94.8964 29.655 94.7145 29.6913 94.6054 29.8002C94.4963 29.9091 94.4235 30.018 94.4235 30.1631H93.8416C93.8416 30.018 93.9143 29.8365 94.0234 29.6913C94.1325 29.5461 94.278 29.4372 94.4963 29.3283C94.7145 29.2194 94.8964 29.1831 95.151 29.1831C95.5147 29.1831 95.8057 29.292 96.0239 29.4735C96.2422 29.655 96.3513 29.9091 96.3513 30.2357V31.6876C96.3513 31.978 96.3877 32.1958 96.4604 32.3773V32.4136H95.8421V32.4862ZM94.9327 32.0869C95.1146 32.0869 95.2601 32.0506 95.4056 31.9417C95.5511 31.8691 95.6602 31.7239 95.7329 31.615V30.9617H95.2965C94.6418 30.9617 94.278 31.1432 94.278 31.5425C94.278 31.7239 94.3508 31.8328 94.4599 31.9417C94.6054 32.0143 94.7509 32.0869 94.9327 32.0869Z" fill="white"/>
<path d="M98.7156 29.8005C98.6429 29.8005 98.5338 29.7642 98.461 29.7642C98.0973 29.7642 97.8427 29.9094 97.7336 30.2361V32.4865H97.188V29.2923H97.7336V29.6553C97.9154 29.3649 98.17 29.2197 98.4974 29.2197C98.6065 29.2197 98.6793 29.2197 98.752 29.256V29.8005H98.7156Z" fill="white"/>
<path d="M99.7341 29.2923V29.6916C99.9887 29.4012 100.28 29.2197 100.68 29.2197C101.371 29.2197 101.698 29.5827 101.698 30.345V32.4502H101.153V30.345C101.153 30.1272 101.08 29.9457 101.007 29.8368C100.898 29.7279 100.753 29.6553 100.534 29.6553C100.352 29.6553 100.207 29.6916 100.061 29.8005C99.9159 29.9094 99.8068 30.0183 99.7341 30.1635V32.4502H99.1885V29.256H99.7341V29.2923Z" fill="white"/>
<path d="M102.535 28.4575C102.535 28.3849 102.571 28.3123 102.607 28.2398C102.644 28.1672 102.753 28.1309 102.862 28.1309C102.971 28.1309 103.044 28.1672 103.117 28.2398C103.189 28.3123 103.189 28.3849 103.189 28.4575C103.189 28.5301 103.153 28.6027 103.117 28.6753C103.08 28.7479 102.971 28.7479 102.862 28.7479C102.753 28.7479 102.68 28.7116 102.607 28.6753C102.571 28.6027 102.535 28.5301 102.535 28.4575ZM103.153 32.4866H102.607V29.2924H103.153V32.4866Z" fill="white"/>
<path d="M104.535 29.2923V29.6916C104.79 29.4012 105.081 29.2197 105.481 29.2197C106.172 29.2197 106.499 29.5827 106.499 30.345V32.4502H105.954V30.345C105.954 30.1272 105.881 29.9457 105.808 29.8368C105.699 29.7279 105.554 29.6553 105.335 29.6553C105.153 29.6553 105.008 29.6916 104.862 29.8005C104.717 29.9094 104.608 30.0183 104.535 30.1635V32.4502H104.026V29.256H104.535V29.2923Z" fill="white"/>
<path d="M107.227 30.8531C107.227 30.345 107.336 29.9457 107.59 29.6553C107.809 29.3649 108.136 29.2197 108.5 29.2197C108.9 29.2197 109.191 29.3649 109.409 29.619L109.445 29.256H109.955V32.3776C109.955 32.7769 109.845 33.1036 109.591 33.3577C109.336 33.6117 109.009 33.7206 108.609 33.7206C108.39 33.7206 108.136 33.6843 107.918 33.5754C107.699 33.4666 107.518 33.3577 107.408 33.1762L107.699 32.8495C107.918 33.1399 108.209 33.2851 108.572 33.2851C108.827 33.2851 109.045 33.2125 109.191 33.0673C109.336 32.9221 109.409 32.7043 109.409 32.4502V32.1598C109.191 32.4139 108.9 32.5228 108.5 32.5228C108.136 32.5228 107.809 32.3776 107.59 32.0872C107.372 31.7969 107.227 31.3976 107.227 30.8531ZM107.772 30.9257C107.772 31.2887 107.845 31.5791 107.99 31.7606C108.136 31.9783 108.354 32.0509 108.609 32.0509C108.936 32.0509 109.191 31.9058 109.373 31.5791V30.1272C109.191 29.8368 108.936 29.6553 108.609 29.6553C108.354 29.6553 108.136 29.7642 107.99 29.982C107.845 30.1998 107.772 30.5264 107.772 30.9257Z" fill="white"/>
<path d="M115.484 31.1436C115.447 31.5791 115.265 31.9421 114.974 32.1962C114.683 32.4503 114.32 32.5592 113.847 32.5592C113.338 32.5592 112.937 32.3777 112.61 32.0147C112.319 31.6517 112.137 31.1799 112.137 30.5628V30.1272C112.137 29.728 112.21 29.365 112.355 29.0746C112.501 28.7842 112.683 28.5301 112.974 28.3849C113.228 28.2398 113.556 28.1309 113.883 28.1309C114.356 28.1309 114.72 28.276 114.974 28.5301C115.265 28.7842 115.411 29.1472 115.447 29.5828H114.938C114.902 29.2561 114.792 29.002 114.611 28.8205C114.429 28.6753 114.21 28.6027 113.919 28.6027C113.556 28.6027 113.265 28.7479 113.083 29.002C112.865 29.2561 112.792 29.6554 112.792 30.1272V30.5265C112.792 30.9984 112.901 31.3613 113.083 31.6517C113.265 31.9421 113.556 32.051 113.883 32.051C114.21 32.051 114.429 31.9784 114.611 31.8332C114.792 31.688 114.902 31.4339 114.938 31.1073H115.484V31.1436Z" fill="white"/>
<path d="M116.029 30.8531C116.029 30.5264 116.102 30.2724 116.211 30.0183C116.32 29.7642 116.502 29.5827 116.72 29.4375C116.938 29.2923 117.193 29.2197 117.484 29.2197C117.92 29.2197 118.284 29.3649 118.539 29.6553C118.793 29.9457 118.939 30.345 118.939 30.8531V30.8894C118.939 31.2161 118.866 31.4702 118.757 31.7243C118.648 31.9783 118.466 32.1598 118.248 32.305C118.029 32.4502 117.775 32.5228 117.484 32.5228C117.047 32.5228 116.684 32.3776 116.429 32.0872C116.174 31.7969 116.029 31.3976 116.029 30.8894V30.8531ZM116.574 30.9257C116.574 31.2887 116.647 31.5791 116.829 31.7606C117.011 31.9783 117.229 32.0872 117.484 32.0872C117.775 32.0872 117.993 31.9783 118.138 31.7606C118.284 31.5428 118.393 31.2524 118.393 30.8531C118.393 30.4901 118.32 30.2361 118.138 30.0183C117.957 29.8005 117.738 29.6916 117.484 29.6916C117.229 29.6916 117.011 29.8005 116.829 30.0183C116.647 30.2361 116.574 30.5264 116.574 30.9257Z" fill="white"/>
<path d="M120.139 29.2922V29.6551C120.357 29.3648 120.685 29.2559 121.085 29.2559C121.521 29.2559 121.849 29.4373 121.994 29.764C122.103 29.6188 122.249 29.4736 122.394 29.4011C122.54 29.3285 122.758 29.2559 123.013 29.2559C123.704 29.2559 124.067 29.6188 124.067 30.3811V32.5226H123.522V30.4174C123.522 30.1996 123.485 30.0181 123.376 29.9092C123.267 29.8003 123.085 29.7277 122.867 29.7277C122.649 29.7277 122.503 29.8003 122.358 29.9092C122.212 30.0181 122.14 30.1996 122.14 30.3811V32.4864H121.594V30.3811C121.594 29.9092 121.376 29.6914 120.903 29.6914C120.539 29.6914 120.285 29.8366 120.175 30.1633V32.4864H119.63V29.2922H120.139Z" fill="white"/>
<path d="M127.632 30.9256C127.632 31.3974 127.523 31.7967 127.305 32.0871C127.086 32.3775 126.795 32.5226 126.395 32.5226C125.995 32.5226 125.704 32.4138 125.486 32.1597V33.6842H124.94V29.2922H125.45L125.486 29.6551C125.704 29.3648 126.032 29.2559 126.395 29.2559C126.795 29.2559 127.086 29.4011 127.305 29.6914C127.523 29.9818 127.632 30.3811 127.632 30.8893V30.9256ZM127.086 30.853C127.086 30.49 127.014 30.1996 126.868 30.0181C126.723 29.8003 126.504 29.6914 126.25 29.6914C125.922 29.6914 125.668 29.8366 125.522 30.127V31.6515C125.668 31.9419 125.923 32.0871 126.286 32.0871C126.541 32.0871 126.759 31.9782 126.905 31.7604C127.014 31.5789 127.086 31.2885 127.086 30.853Z" fill="white"/>
<path d="M130.287 32.4862C130.251 32.4136 130.214 32.3047 130.214 32.1595C129.96 32.4136 129.669 32.5588 129.305 32.5588C128.977 32.5588 128.723 32.4862 128.541 32.3047C128.359 32.1232 128.25 31.9054 128.25 31.615C128.25 31.2884 128.359 31.0343 128.614 30.8528C128.868 30.6713 129.232 30.5624 129.669 30.5624H130.214V30.3083C130.214 30.1268 130.141 29.9817 130.032 29.8365C129.923 29.7276 129.741 29.655 129.523 29.655C129.341 29.655 129.159 29.6913 129.05 29.8002C128.941 29.9091 128.868 30.018 128.868 30.1631H128.323C128.323 30.018 128.395 29.8365 128.505 29.6913C128.614 29.5461 128.759 29.4372 128.977 29.3283C129.196 29.2194 129.378 29.1831 129.632 29.1831C129.996 29.1831 130.287 29.292 130.505 29.4735C130.723 29.655 130.832 29.9091 130.832 30.2357V31.6876C130.832 31.978 130.869 32.1958 130.942 32.3773V32.4136H130.287V32.4862ZM129.378 32.0869C129.559 32.0869 129.705 32.0506 129.85 31.9417C129.996 31.8691 130.105 31.7239 130.178 31.615V30.9617H129.741C129.087 30.9617 128.723 31.1432 128.723 31.5425C128.723 31.7239 128.796 31.8328 128.905 31.9417C129.05 32.0143 129.196 32.0869 129.378 32.0869Z" fill="white"/>
<path d="M132.142 29.2923V29.6916C132.397 29.4012 132.688 29.2197 133.088 29.2197C133.779 29.2197 134.106 29.5827 134.106 30.345V32.4502H133.561V30.345C133.561 30.1272 133.488 29.9457 133.415 29.8368C133.306 29.7279 133.161 29.6553 132.942 29.6553C132.761 29.6553 132.615 29.6916 132.47 29.8005C132.324 29.9094 132.215 30.0183 132.142 30.1635V32.4502H131.597V29.256H132.142V29.2923Z" fill="white"/>
<path d="M134.943 28.4575C134.943 28.3849 134.979 28.3123 135.016 28.2398C135.052 28.1672 135.161 28.1309 135.27 28.1309C135.379 28.1309 135.452 28.1672 135.525 28.2398C135.598 28.3123 135.598 28.3849 135.598 28.4575C135.598 28.5301 135.561 28.6027 135.525 28.6753C135.488 28.7479 135.379 28.7479 135.27 28.7479C135.161 28.7479 135.088 28.7116 135.016 28.6753C134.979 28.6027 134.943 28.5301 134.943 28.4575ZM135.525 32.4866H134.979V29.2924H135.525V32.4866Z" fill="white"/>
<path d="M136.252 30.8531C136.252 30.5264 136.325 30.2724 136.434 30.0183C136.543 29.7642 136.725 29.5827 136.943 29.4375C137.161 29.2923 137.416 29.2197 137.707 29.2197C138.143 29.2197 138.507 29.3649 138.762 29.6553C139.016 29.9457 139.162 30.345 139.162 30.8531V30.8894C139.162 31.2161 139.089 31.4702 138.98 31.7243C138.871 31.9783 138.689 32.1598 138.471 32.305C138.252 32.4502 137.998 32.5228 137.707 32.5228C137.27 32.5228 136.907 32.3776 136.652 32.0872C136.397 31.7969 136.252 31.3976 136.252 30.8894V30.8531ZM136.834 30.9257C136.834 31.2887 136.907 31.5791 137.089 31.7606C137.27 31.9783 137.489 32.0872 137.743 32.0872C138.034 32.0872 138.252 31.9783 138.398 31.7606C138.543 31.5428 138.653 31.2524 138.653 30.8531C138.653 30.4901 138.58 30.2361 138.398 30.0183C138.216 29.8005 137.998 29.6916 137.743 29.6916C137.489 29.6916 137.27 29.8005 137.089 30.0183C136.907 30.2361 136.834 30.5264 136.834 30.9257Z" fill="white"/>
<path d="M140.362 29.2923V29.6916C140.617 29.4012 140.908 29.2197 141.308 29.2197C141.999 29.2197 142.327 29.5827 142.327 30.345V32.4502H141.781V30.345C141.781 30.1272 141.708 29.9457 141.636 29.8368C141.526 29.7279 141.381 29.6553 141.163 29.6553C140.981 29.6553 140.835 29.6916 140.69 29.8005C140.544 29.9094 140.435 30.0183 140.362 30.1635V32.4502H139.817V29.256H140.362V29.2923Z" fill="white"/>
<path d="M23.1693 30.0177C20.696 30.0177 18.6591 27.9851 18.4409 25.5894C18.4409 25.4442 18.4045 25.299 18.4045 25.1539V10.0903C18.1863 10.1629 6.11048 13.7564 6.11048 13.7564C4.51007 14.3009 2.90967 15.7891 2.90967 17.4588L2.94604 32.4134C2.90967 34.5549 5.23753 36.5876 7.67451 36.5876C8.14735 36.5876 8.6202 36.515 9.09305 36.3698L20.5869 32.9578C22.2964 32.5223 23.1693 33.1393 23.7877 33.6475C23.824 33.6838 23.8968 33.6838 23.9332 33.6838C24.0787 33.6838 24.1878 33.5749 24.1878 33.4297V29.8725C23.8604 30.0177 23.5331 30.0177 23.1693 30.0177Z" fill="#4386F4"/>
<path d="M39.646 7.54972C39.6824 5.40816 37.3545 3.37549 34.9176 3.37549C34.4447 3.37549 33.9719 3.44808 33.499 3.59327L22.0052 7.00525C20.2957 7.44082 19.4227 6.82376 18.8044 6.3156C18.768 6.2793 18.6953 6.2793 18.6589 6.2793C18.5134 6.2793 18.4043 6.38819 18.4043 6.53338V10.0906C18.7317 9.98166 19.0954 9.98166 19.4591 9.98166C21.9325 9.98166 23.9693 12.0143 24.1876 14.41C24.1876 14.5552 24.2239 14.7004 24.2239 14.8455V29.9091C24.4422 29.8365 36.518 26.243 36.518 26.243C38.1184 25.6622 39.7188 24.2103 39.7188 22.5406L39.646 7.54972Z" fill="#FFAB3F"/>
<path d="M24.1878 14.4099C23.9696 11.978 21.9327 9.94531 19.423 9.94531C19.0592 9.94531 18.6955 9.94531 18.3682 10.0542V25.1177C18.3682 25.2629 18.3682 25.4081 18.4045 25.5533C18.6228 27.9852 20.6597 29.9816 23.133 29.9816C23.4967 29.9816 23.8605 29.9816 24.1878 29.8727V14.8092C24.2242 14.7003 24.2242 14.5551 24.1878 14.4099Z" fill="#4386F4"/>
<path opacity="0.9" d="M24.1878 14.4099C23.9696 11.978 21.9327 9.94531 19.423 9.94531C19.0592 9.94531 18.6955 9.94531 18.3682 10.0542V25.1177C18.3682 25.2629 18.3682 25.4081 18.4045 25.5533C18.6228 27.9852 20.6597 29.9816 23.133 29.9816C23.4967 29.9816 23.8605 29.9816 24.1878 29.8727V14.8092C24.2242 14.7003 24.2242 14.5551 24.1878 14.4099Z" fill="#FFAB3F"/>
</svg>
