<svg width="144" height="40" viewBox="0 0 144 40" fill="none" xmlns="http://www.w3.org/2000/svg">
<path d="M52.195 15.0282L49.6125 17.569V24.1389H48.0485V5.80859H49.6125V15.6816L59.0331 5.80859H60.9972L53.2861 13.9756L61.5792 24.1389H59.6878L52.195 15.0282Z" fill="white"/>
<path d="M65.18 10.5265L65.2164 12.8496C65.7256 12.0147 66.3803 11.3614 67.1442 10.9258C67.908 10.4902 68.7446 10.2725 69.6903 10.2725C71.1452 10.2725 72.2363 10.6717 72.9638 11.5066C73.6913 12.3414 74.055 13.5755 74.055 15.2089V24.1382H72.5637V15.2089C72.5637 13.9748 72.3091 13.0674 71.7999 12.4866C71.2907 11.9059 70.4905 11.5792 69.3629 11.5792C68.4172 11.5792 67.617 11.8696 66.8895 12.4503C66.1621 13.0311 65.6529 13.8296 65.2891 14.8097V24.1382H63.7979V10.5265H65.18Z" fill="white"/>
<path d="M77.074 17.1335C77.074 15.8268 77.3286 14.629 77.8378 13.6127C78.347 12.5963 79.0745 11.7615 79.9838 11.1807C80.8931 10.6 81.9843 10.3096 83.1482 10.3096C84.9669 10.3096 86.4218 10.9629 87.5493 12.2333C88.6769 13.5038 89.2225 15.1735 89.2225 17.2787V17.6054C89.2225 18.9121 88.9679 20.1099 88.4587 21.1626C87.9494 22.2152 87.222 23.0137 86.3127 23.5945C85.4033 24.1753 84.3485 24.4656 83.1482 24.4656C81.3296 24.4656 79.8747 23.8123 78.7471 22.5419C77.6196 21.2715 77.0376 19.6018 77.0376 17.4965V17.1335H77.074ZM78.6016 17.5691C78.6016 19.2025 79.0381 20.5455 79.8747 21.5618C80.7113 22.6145 81.8388 23.1226 83.1846 23.1226C84.5304 23.1226 85.658 22.6145 86.4945 21.5618C87.3311 20.5092 87.7676 19.1299 87.7676 17.4239V17.1335C87.7676 16.0809 87.5857 15.1372 87.1856 14.266C86.7855 13.3949 86.2399 12.7415 85.5488 12.2696C84.8578 11.7978 84.0576 11.5437 83.1482 11.5437C81.8024 11.5437 80.7113 12.0882 79.8383 13.1408C78.9654 14.1934 78.5653 15.5727 78.5653 17.2787V17.5691H78.6016Z" fill="white"/>
<path d="M95.6605 21.0174L95.8787 22.1789L96.1697 20.9448L99.4433 10.5273H100.716L103.954 20.8722L104.317 22.3241L104.608 21.0174L107.409 10.5636H108.973L105.008 24.1753H103.735L100.243 13.3586L100.062 12.6326L99.8798 13.3949L96.4243 24.1753H95.1513L91.223 10.5273H92.7871L95.6605 21.0174Z" fill="white"/>
<path d="M113.556 24.1386H112.028V4.79199H113.556V24.1386Z" fill="white"/>
<path d="M122.94 24.3924C121.776 24.3924 120.721 24.102 119.776 23.5213C118.83 22.9405 118.103 22.142 117.593 21.1256C117.084 20.1093 116.793 18.9478 116.793 17.6773V17.1329C116.793 15.8262 117.048 14.6283 117.557 13.612C118.066 12.5957 118.757 11.7245 119.667 11.1438C120.576 10.563 121.558 10.2363 122.613 10.2363C124.286 10.2363 125.595 10.8171 126.541 11.9423C127.487 13.0675 127.996 14.6283 127.996 16.5521V17.4233H118.248V17.7136C118.248 19.2744 118.684 20.5449 119.594 21.5612C120.467 22.5775 121.594 23.0857 122.94 23.0857C123.74 23.0857 124.468 22.9405 125.086 22.6501C125.704 22.3597 126.25 21.8879 126.759 21.2345L127.705 21.9605C126.686 23.5939 125.05 24.3924 122.94 24.3924ZM122.685 11.543C121.558 11.543 120.576 11.9423 119.812 12.7772C119.048 13.612 118.575 14.7372 118.393 16.1165H126.577V15.9351C126.541 14.6283 126.177 13.5757 125.45 12.7409C124.722 11.906 123.813 11.543 122.685 11.543Z" fill="white"/>
<path d="M136.289 24.3924C135.125 24.3924 134.07 24.102 133.124 23.5213C132.179 22.9405 131.451 22.142 130.942 21.1256C130.433 20.1093 130.142 18.9478 130.142 17.6773V17.1329C130.142 15.8262 130.396 14.6283 130.906 13.612C131.415 12.5957 132.106 11.7245 133.015 11.1438C133.925 10.563 134.907 10.2363 135.961 10.2363C137.635 10.2363 138.944 10.8171 139.89 11.9423C140.835 13.0675 141.345 14.6283 141.345 16.5521V17.4233H131.67V17.7136C131.67 19.2744 132.106 20.5449 133.015 21.5612C133.888 22.5775 135.016 23.0857 136.362 23.0857C137.162 23.0857 137.889 22.9405 138.508 22.6501C139.126 22.3597 139.672 21.8879 140.181 21.2345L141.126 21.9605C140.035 23.5939 138.435 24.3924 136.289 24.3924ZM136.034 11.543C134.907 11.543 133.925 11.9423 133.161 12.7772C132.397 13.612 131.924 14.7372 131.742 16.1165H139.926V15.9351C139.89 14.6283 139.526 13.5757 138.799 12.7409C138.071 11.906 137.162 11.543 136.034 11.543Z" fill="white"/>
<path d="M49.8671 30.3447L50.9947 28.2031H51.6494L50.1581 30.8892V32.4862H49.5761V30.8892L48.0848 28.2031H48.7396L49.8671 30.3447Z" fill="white"/>
<path d="M51.7585 30.8531C51.7585 30.5264 51.8313 30.2724 51.9404 30.0183C52.0495 29.7642 52.2314 29.5827 52.4496 29.4375C52.6679 29.2923 52.9225 29.2197 53.2135 29.2197C53.6499 29.2197 54.0137 29.3649 54.2683 29.6553C54.5229 29.9457 54.6684 30.345 54.6684 30.8531V30.8894C54.6684 31.2161 54.5956 31.4702 54.4865 31.7243C54.3774 31.9783 54.1955 32.1598 53.9773 32.305C53.759 32.4502 53.5044 32.5228 53.2135 32.5228C52.777 32.5228 52.4133 32.3776 52.1586 32.0872C51.904 31.7969 51.7585 31.3976 51.7585 30.8894V30.8531ZM52.3041 30.9257C52.3041 31.2887 52.3769 31.5791 52.5587 31.7606C52.7406 31.9783 52.9588 32.0872 53.2135 32.0872C53.5044 32.0872 53.7227 31.9783 53.8682 31.7606C54.0137 31.5428 54.1228 31.2524 54.1228 30.8531C54.1228 30.4901 54.05 30.2361 53.8682 30.0183C53.6863 29.8005 53.4681 29.6916 53.2135 29.6916C52.9588 29.6916 52.7406 29.8005 52.5587 30.0183C52.3769 30.2361 52.3041 30.5264 52.3041 30.9257Z" fill="white"/>
<path d="M57.3235 32.1595C57.1053 32.4136 56.8143 32.5225 56.3778 32.5225C56.0505 32.5225 55.7958 32.4136 55.614 32.2321C55.4321 32.0506 55.3594 31.7602 55.3594 31.361V29.292H55.905V31.361C55.905 31.8328 56.0868 32.0869 56.4869 32.0869C56.887 32.0869 57.178 31.9417 57.3235 31.615V29.292H57.8691V32.4862H57.3599L57.3235 32.1595Z" fill="white"/>
<path d="M60.2334 29.8005C60.1606 29.8005 60.0515 29.7642 59.9787 29.7642C59.615 29.7642 59.3604 29.9094 59.2513 30.2361V32.4865H58.7057V29.2923H59.2513V29.6553C59.4331 29.3649 59.6878 29.2197 60.0151 29.2197C60.1242 29.2197 60.197 29.2197 60.2697 29.256V29.8005H60.2334Z" fill="white"/>
<path d="M62.8886 30.8166V32.4862H62.3066V28.2031H63.907C64.3799 28.2031 64.7436 28.312 64.9982 28.5661C65.2528 28.8202 65.3983 29.1106 65.3983 29.5098C65.3983 29.9091 65.2528 30.2358 64.9982 30.4899C64.7436 30.744 64.3799 30.8166 63.8707 30.8166H62.8886ZM62.8886 30.3447H63.907C64.198 30.3447 64.4526 30.2721 64.5981 30.1269C64.7436 29.9817 64.8527 29.7639 64.8527 29.5098C64.8527 29.2558 64.78 29.038 64.5981 28.8928C64.4526 28.7476 64.198 28.675 63.9434 28.6387H62.8886V30.3447Z" fill="white"/>
<path d="M67.3261 32.5589C66.8897 32.5589 66.5259 32.4138 66.2713 32.1234C66.0167 31.833 65.8712 31.47 65.8712 30.9981V30.8893C65.8712 30.5626 65.944 30.3085 66.0531 30.0544C66.1622 29.8003 66.3441 29.6188 66.5623 29.4736C66.7805 29.3285 66.9988 29.2559 67.2534 29.2559C67.6535 29.2559 67.9808 29.401 68.2354 29.6551C68.4537 29.9455 68.5628 30.3085 68.5628 30.8167V31.0344H66.3804C66.3804 31.3611 66.4896 31.6152 66.6714 31.7967C66.8533 31.9782 67.0715 32.0871 67.3261 32.0871C67.508 32.0871 67.6899 32.0508 67.799 31.9782C67.9445 31.9056 68.0536 31.7967 68.1627 31.6515L68.4901 31.9056C68.2718 32.3412 67.8717 32.5589 67.3261 32.5589ZM67.2534 29.6914C67.0351 29.6914 66.8533 29.764 66.7078 29.9455C66.5623 30.0907 66.4532 30.3448 66.4168 30.6352H68.0172V30.5989C68.0172 30.3085 67.9445 30.0907 67.799 29.9455C67.6899 29.764 67.508 29.6914 67.2534 29.6914Z" fill="white"/>
<path d="M70.7451 29.8005C70.6723 29.8005 70.5632 29.7642 70.4905 29.7642C70.1267 29.7642 69.8721 29.9094 69.763 30.2361V32.4865H69.2174V29.2923H69.763V29.6553C69.9449 29.3649 70.1995 29.2197 70.5268 29.2197C70.6359 29.2197 70.7087 29.2197 70.7814 29.256V29.8005H70.7451Z" fill="white"/>
<path d="M73.1094 31.6513C73.1094 31.5061 73.0366 31.3973 72.9275 31.3247C72.8184 31.2521 72.6365 31.1795 72.3456 31.1069C72.0546 31.0343 71.8363 30.9617 71.6908 30.8891C71.5454 30.8165 71.3999 30.7076 71.3271 30.5987C71.2544 30.4898 71.218 30.3446 71.218 30.1994C71.218 29.9453 71.3271 29.7276 71.5454 29.5461C71.7636 29.3646 72.0546 29.292 72.3819 29.292C72.7457 29.292 73.0366 29.4009 73.2549 29.5824C73.4731 29.7639 73.5822 30.0179 73.5822 30.3083H73.0366C73.0366 30.1631 72.9639 30.0179 72.8548 29.9091C72.7457 29.8002 72.5638 29.7639 72.3819 29.7639C72.2001 29.7639 72.0182 29.8002 71.9091 29.9091C71.8 29.9816 71.7272 30.1268 71.7272 30.2357C71.7272 30.3809 71.7636 30.4535 71.8727 30.5261C71.9818 30.5987 72.1637 30.6713 72.4547 30.7076C72.7093 30.7802 72.9639 30.8528 73.1094 30.9254C73.2549 30.998 73.4004 31.1069 73.4731 31.2158C73.5459 31.3247 73.5822 31.4699 73.5822 31.6513C73.5822 31.9417 73.4731 32.1595 73.2549 32.341C73.0366 32.5225 72.7457 32.5951 72.3819 32.5951C72.1273 32.5951 71.9091 32.5588 71.6908 32.4499C71.509 32.3773 71.3271 32.2321 71.218 32.0869C71.1089 31.9417 71.0361 31.7602 71.0361 31.5787H71.5817C71.5817 31.7602 71.6545 31.9054 71.8 32.0143C71.9455 32.1232 72.1273 32.1595 72.3456 32.1595C72.5638 32.1595 72.7093 32.1232 72.8548 32.0506C73.0003 31.978 73.1094 31.7965 73.1094 31.6513Z" fill="white"/>
<path d="M74.2369 30.8531C74.2369 30.5264 74.3097 30.2724 74.4188 30.0183C74.5279 29.7642 74.7098 29.5827 74.928 29.4375C75.1463 29.2923 75.4009 29.2197 75.6919 29.2197C76.1283 29.2197 76.4921 29.3649 76.7467 29.6553C77.0013 29.9457 77.1468 30.345 77.1468 30.8531V30.8894C77.1468 31.2161 77.074 31.4702 76.9649 31.7243C76.8558 31.9783 76.6739 32.1598 76.4557 32.305C76.2374 32.4502 75.9828 32.5228 75.6919 32.5228C75.2554 32.5228 74.8916 32.3776 74.637 32.0872C74.3824 31.7969 74.2369 31.3976 74.2369 30.8894V30.8531ZM74.7825 30.9257C74.7825 31.2887 74.8553 31.5791 75.0371 31.7606C75.219 31.9783 75.4372 32.0872 75.6919 32.0872C75.9828 32.0872 76.2011 31.9783 76.3466 31.7606C76.492 31.5428 76.6012 31.2524 76.6012 30.8531C76.6012 30.4901 76.5284 30.2361 76.3466 30.0183C76.1647 29.8005 75.9465 29.6916 75.6919 29.6916C75.4372 29.6916 75.219 29.8005 75.0371 30.0183C74.8553 30.2361 74.7825 30.5264 74.7825 30.9257Z" fill="white"/>
<path d="M78.347 29.2923V29.6916C78.6016 29.4012 78.8926 29.2197 79.2927 29.2197C79.9838 29.2197 80.3111 29.5827 80.3111 30.345V32.4502H79.7655V30.345C79.7655 30.1272 79.6928 29.9457 79.62 29.8368C79.5109 29.7279 79.3654 29.6553 79.1472 29.6553C78.9653 29.6553 78.8198 29.6916 78.6743 29.8005C78.5289 29.9094 78.4197 30.0183 78.347 30.1635V32.4502H77.8378V29.256H78.347V29.2923Z" fill="white"/>
<path d="M83.1482 32.4867C83.1118 32.4141 83.0755 32.3052 83.0755 32.16C82.8208 32.4141 82.5299 32.5593 82.1661 32.5593C81.8388 32.5593 81.5842 32.4867 81.4023 32.3052C81.2204 32.1237 81.1113 31.9059 81.1113 31.6155C81.1113 31.2889 81.2204 31.0348 81.4751 30.8533C81.7297 30.6718 82.0934 30.5629 82.5299 30.5629H83.0755V30.3088C83.0755 30.1273 83.0027 29.9821 82.8936 29.8369C82.7845 29.7281 82.6026 29.6555 82.3844 29.6555C82.2025 29.6555 82.0206 29.6918 81.9115 29.8007C81.8024 29.9095 81.7297 30.0184 81.7297 30.1636H81.1841C81.1841 30.0184 81.2568 29.837 81.3659 29.6918C81.4751 29.5466 81.6205 29.4377 81.8388 29.3288C82.057 29.2199 82.2389 29.1836 82.4935 29.1836C82.8572 29.1836 83.1482 29.2925 83.3664 29.474C83.5847 29.6555 83.6938 29.9095 83.6938 30.2362V31.6881C83.6938 31.9785 83.7302 32.1963 83.8029 32.3778V32.4141H83.1482V32.4867ZM82.2389 32.0874C82.4208 32.0874 82.5662 32.0511 82.7117 31.9422C82.8572 31.8696 82.9663 31.7244 83.0391 31.6155V30.9622H82.6026C81.9479 30.9622 81.5842 31.1437 81.5842 31.5429C81.5842 31.7244 81.6569 31.8333 81.766 31.9422C81.9115 32.0148 82.057 32.0874 82.2389 32.0874Z" fill="white"/>
<path d="M85.0396 32.4864H84.494V27.9492H85.0396V32.4864Z" fill="white"/>
<path d="M88.0585 32.0144H90.0954V32.4862H87.4766V28.2031H88.0585V32.0144Z" fill="white"/>
<path d="M91.9868 32.5589C91.5503 32.5589 91.1866 32.4138 90.932 32.1234C90.6774 31.833 90.5319 31.47 90.5319 30.9981V30.8893C90.5319 30.5626 90.6046 30.3085 90.7137 30.0544C90.8228 29.8003 91.0047 29.6188 91.2229 29.4736C91.4412 29.3285 91.6594 29.2559 91.914 29.2559C92.3141 29.2559 92.6415 29.401 92.8961 29.6551C93.1143 29.9455 93.2234 30.3085 93.2234 30.8167V31.0344H91.0411C91.0411 31.3611 91.1502 31.6152 91.3321 31.7967C91.5139 31.9782 91.7322 32.0871 91.9868 32.0871C92.1686 32.0871 92.3505 32.0508 92.4596 31.9782C92.6051 31.9056 92.7142 31.7967 92.8233 31.6515L93.1507 31.9056C92.9325 32.3412 92.5324 32.5589 91.9868 32.5589ZM91.914 29.6914C91.6958 29.6914 91.5139 29.764 91.3684 29.9455C91.2229 30.0907 91.1138 30.3448 91.0775 30.6352H92.6779V30.5989C92.6779 30.3085 92.6051 30.0907 92.4596 29.9455C92.3505 29.764 92.1686 29.6914 91.914 29.6914Z" fill="white"/>
<path d="M95.8423 32.4867C95.8059 32.4141 95.7696 32.3052 95.7696 32.16C95.5149 32.4141 95.224 32.5593 94.8602 32.5593C94.5329 32.5593 94.2783 32.4867 94.0964 32.3052C93.9145 32.1237 93.8054 31.9059 93.8054 31.6155C93.8054 31.2889 93.9145 31.0348 94.1691 30.8533C94.4238 30.6718 94.7875 30.5629 95.224 30.5629H95.7696V30.3088C95.7696 30.1273 95.6968 29.9821 95.5877 29.8369C95.4786 29.7281 95.2967 29.6555 95.0785 29.6555C94.8966 29.6555 94.7147 29.6918 94.6056 29.8007C94.4965 29.9095 94.4238 30.0184 94.4238 30.1636H93.8418C93.8418 30.0184 93.9145 29.837 94.0237 29.6918C94.1328 29.5466 94.2783 29.4377 94.4965 29.3288C94.7147 29.2199 94.8966 29.1836 95.1512 29.1836C95.5149 29.1836 95.8059 29.2925 96.0242 29.474C96.2424 29.6555 96.3515 29.9095 96.3515 30.2362V31.6881C96.3515 31.9785 96.3879 32.1963 96.4606 32.3778V32.4141H95.8423V32.4867ZM94.933 32.0874C95.1148 32.0874 95.2603 32.0511 95.4058 31.9422C95.5513 31.8696 95.6604 31.7244 95.7332 31.6155V30.9622H95.2967C94.642 30.9622 94.2783 31.1437 94.2783 31.5429C94.2783 31.7244 94.351 31.8333 94.4601 31.9422C94.6056 32.0148 94.7511 32.0874 94.933 32.0874Z" fill="white"/>
<path d="M98.7158 29.8005C98.643 29.8005 98.5339 29.7642 98.4612 29.7642C98.0974 29.7642 97.8428 29.9094 97.7337 30.2361V32.4865H97.1881V29.2923H97.7337V29.6553C97.9156 29.3649 98.1702 29.2197 98.4975 29.2197C98.6066 29.2197 98.6794 29.2197 98.7521 29.256V29.8005H98.7158Z" fill="white"/>
<path d="M99.7343 29.2923V29.6916C99.9889 29.4012 100.28 29.2197 100.68 29.2197C101.371 29.2197 101.698 29.5827 101.698 30.345V32.4502H101.153V30.345C101.153 30.1272 101.08 29.9457 101.007 29.8368C100.898 29.7279 100.753 29.6553 100.535 29.6553C100.353 29.6553 100.207 29.6916 100.062 29.8005C99.9162 29.9094 99.8071 30.0183 99.7343 30.1635V32.4502H99.1887V29.256H99.7343V29.2923Z" fill="white"/>
<path d="M102.535 28.4575C102.535 28.3849 102.571 28.3123 102.608 28.2398C102.644 28.1672 102.753 28.1309 102.862 28.1309C102.971 28.1309 103.044 28.1672 103.117 28.2398C103.19 28.3123 103.19 28.3849 103.19 28.4575C103.19 28.5301 103.153 28.6027 103.117 28.6753C103.081 28.7479 102.971 28.7479 102.862 28.7479C102.753 28.7479 102.68 28.7116 102.608 28.6753C102.571 28.6027 102.535 28.5301 102.535 28.4575ZM103.153 32.4866H102.608V29.2924H103.153V32.4866Z" fill="white"/>
<path d="M104.535 29.2923V29.6916C104.79 29.4012 105.081 29.2197 105.481 29.2197C106.172 29.2197 106.5 29.5827 106.5 30.345V32.4502H105.954V30.345C105.954 30.1272 105.881 29.9457 105.809 29.8368C105.699 29.7279 105.554 29.6553 105.336 29.6553C105.154 29.6553 105.008 29.6916 104.863 29.8005C104.717 29.9094 104.608 30.0183 104.535 30.1635V32.4502H104.026V29.256H104.535V29.2923Z" fill="white"/>
<path d="M107.227 30.8531C107.227 30.345 107.336 29.9457 107.591 29.6553C107.809 29.3649 108.136 29.2197 108.5 29.2197C108.9 29.2197 109.191 29.3649 109.409 29.619L109.446 29.256H109.955V32.3776C109.955 32.7769 109.846 33.1036 109.591 33.3577C109.337 33.6117 109.009 33.7206 108.609 33.7206C108.391 33.7206 108.136 33.6843 107.918 33.5754C107.7 33.4666 107.518 33.3577 107.409 33.1762L107.7 32.8495C107.918 33.1399 108.209 33.2851 108.573 33.2851C108.827 33.2851 109.046 33.2125 109.191 33.0673C109.337 32.9221 109.409 32.7043 109.409 32.4502V32.1598C109.191 32.4139 108.9 32.5228 108.5 32.5228C108.136 32.5228 107.809 32.3776 107.591 32.0872C107.373 31.7969 107.227 31.3976 107.227 30.8531ZM107.773 30.9257C107.773 31.2887 107.845 31.5791 107.991 31.7606C108.136 31.9783 108.355 32.0509 108.609 32.0509C108.937 32.0509 109.191 31.9058 109.373 31.5791V30.1272C109.191 29.8368 108.937 29.6553 108.609 29.6553C108.355 29.6553 108.136 29.7642 107.991 29.982C107.845 30.1998 107.773 30.5264 107.773 30.9257Z" fill="white"/>
<path d="M115.484 31.1436C115.447 31.5791 115.265 31.9421 114.974 32.1962C114.683 32.4503 114.32 32.5592 113.847 32.5592C113.338 32.5592 112.938 32.3777 112.61 32.0147C112.319 31.6517 112.137 31.1799 112.137 30.5628V30.1272C112.137 29.728 112.21 29.365 112.356 29.0746C112.501 28.7842 112.683 28.5301 112.974 28.3849C113.229 28.2398 113.556 28.1309 113.883 28.1309C114.356 28.1309 114.72 28.276 114.974 28.5301C115.265 28.7842 115.411 29.1472 115.447 29.5828H114.938C114.902 29.2561 114.793 29.002 114.611 28.8205C114.429 28.6753 114.211 28.6027 113.92 28.6027C113.556 28.6027 113.265 28.7479 113.083 29.002C112.865 29.2561 112.792 29.6554 112.792 30.1272V30.5265C112.792 30.9984 112.901 31.3613 113.083 31.6517C113.265 31.9421 113.556 32.051 113.883 32.051C114.211 32.051 114.429 31.9784 114.611 31.8332C114.793 31.688 114.902 31.4339 114.938 31.1073H115.484V31.1436Z" fill="white"/>
<path d="M116.029 30.8531C116.029 30.5264 116.102 30.2724 116.211 30.0183C116.32 29.7642 116.502 29.5827 116.72 29.4375C116.939 29.2923 117.193 29.2197 117.484 29.2197C117.921 29.2197 118.284 29.3649 118.539 29.6553C118.794 29.9457 118.939 30.345 118.939 30.8531V30.8894C118.939 31.2161 118.866 31.4702 118.757 31.7243C118.648 31.9783 118.466 32.1598 118.248 32.305C118.03 32.4502 117.775 32.5228 117.484 32.5228C117.048 32.5228 116.684 32.3776 116.429 32.0872C116.175 31.7969 116.029 31.3976 116.029 30.8894V30.8531ZM116.575 30.9257C116.575 31.2887 116.648 31.5791 116.83 31.7606C117.011 31.9783 117.23 32.0872 117.484 32.0872C117.775 32.0872 117.993 31.9783 118.139 31.7606C118.284 31.5428 118.394 31.2524 118.394 30.8531C118.394 30.4901 118.321 30.2361 118.139 30.0183C117.957 29.8005 117.739 29.6916 117.484 29.6916C117.23 29.6916 117.011 29.8005 116.83 30.0183C116.648 30.2361 116.575 30.5264 116.575 30.9257Z" fill="white"/>
<path d="M120.139 29.2922V29.6551C120.358 29.3648 120.685 29.2559 121.085 29.2559C121.522 29.2559 121.849 29.4373 121.994 29.764C122.103 29.6188 122.249 29.4736 122.394 29.4011C122.54 29.3285 122.758 29.2559 123.013 29.2559C123.704 29.2559 124.068 29.6188 124.068 30.3811V32.5226H123.522V30.4174C123.522 30.1996 123.486 30.0181 123.377 29.9092C123.267 29.8003 123.086 29.7277 122.867 29.7277C122.649 29.7277 122.504 29.8003 122.358 29.9092C122.213 30.0181 122.14 30.1996 122.14 30.3811V32.4864H121.594V30.3811C121.594 29.9092 121.376 29.6914 120.903 29.6914C120.539 29.6914 120.285 29.8366 120.176 30.1633V32.4864H119.63V29.2922H120.139Z" fill="white"/>
<path d="M127.632 30.9256C127.632 31.3974 127.523 31.7967 127.305 32.0871C127.087 32.3775 126.796 32.5226 126.396 32.5226C125.995 32.5226 125.705 32.4138 125.486 32.1597V33.6842H124.941V29.2922H125.45L125.486 29.6551C125.705 29.3648 126.032 29.2559 126.396 29.2559C126.796 29.2559 127.087 29.4011 127.305 29.6914C127.523 29.9818 127.632 30.3811 127.632 30.8893V30.9256ZM127.087 30.853C127.087 30.49 127.014 30.1996 126.868 30.0181C126.723 29.8003 126.505 29.6914 126.25 29.6914C125.923 29.6914 125.668 29.8366 125.523 30.127V31.6515C125.668 31.9419 125.923 32.0871 126.286 32.0871C126.541 32.0871 126.759 31.9782 126.905 31.7604C127.014 31.5789 127.087 31.2885 127.087 30.853Z" fill="white"/>
<path d="M130.287 32.4867C130.251 32.4141 130.215 32.3052 130.215 32.16C129.96 32.4141 129.669 32.5593 129.305 32.5593C128.978 32.5593 128.723 32.4867 128.541 32.3052C128.36 32.1237 128.25 31.9059 128.25 31.6155C128.25 31.2889 128.36 31.0348 128.614 30.8533C128.869 30.6718 129.233 30.5629 129.669 30.5629H130.215V30.3088C130.215 30.1273 130.142 29.9821 130.033 29.8369C129.924 29.7281 129.742 29.6555 129.524 29.6555C129.342 29.6555 129.16 29.6918 129.051 29.8007C128.942 29.9095 128.869 30.0184 128.869 30.1636H128.323C128.323 30.0184 128.396 29.837 128.505 29.6918C128.614 29.5466 128.76 29.4377 128.978 29.3288C129.196 29.2199 129.378 29.1836 129.633 29.1836C129.996 29.1836 130.287 29.2925 130.506 29.474C130.724 29.6555 130.833 29.9095 130.833 30.2362V31.6881C130.833 31.9785 130.869 32.1963 130.942 32.3778V32.4141H130.287V32.4867ZM129.378 32.0874C129.56 32.0874 129.705 32.0511 129.851 31.9422C129.996 31.8696 130.105 31.7244 130.178 31.6155V30.9622H129.742C129.087 30.9622 128.723 31.1437 128.723 31.5429C128.723 31.7244 128.796 31.8333 128.905 31.9422C129.051 32.0148 129.196 32.0874 129.378 32.0874Z" fill="white"/>
<path d="M132.142 29.2923V29.6916C132.397 29.4012 132.688 29.2197 133.088 29.2197C133.779 29.2197 134.107 29.5827 134.107 30.345V32.4502H133.561V30.345C133.561 30.1272 133.488 29.9457 133.415 29.8368C133.306 29.7279 133.161 29.6553 132.943 29.6553C132.761 29.6553 132.615 29.6916 132.47 29.8005C132.324 29.9094 132.215 30.0183 132.142 30.1635V32.4502H131.597V29.256H132.142V29.2923Z" fill="white"/>
<path d="M134.943 28.4575C134.943 28.3849 134.979 28.3123 135.016 28.2398C135.052 28.1672 135.161 28.1309 135.27 28.1309C135.38 28.1309 135.452 28.1672 135.525 28.2398C135.598 28.3123 135.598 28.3849 135.598 28.4575C135.598 28.5301 135.561 28.6027 135.525 28.6753C135.489 28.7479 135.38 28.7479 135.27 28.7479C135.161 28.7479 135.089 28.7116 135.016 28.6753C134.979 28.6027 134.943 28.5301 134.943 28.4575ZM135.525 32.4866H134.979V29.2924H135.525V32.4866Z" fill="white"/>
<path d="M136.252 30.8531C136.252 30.5264 136.325 30.2724 136.434 30.0183C136.543 29.7642 136.725 29.5827 136.943 29.4375C137.162 29.2923 137.416 29.2197 137.707 29.2197C138.144 29.2197 138.507 29.3649 138.762 29.6553C139.017 29.9457 139.162 30.345 139.162 30.8531V30.8894C139.162 31.2161 139.089 31.4702 138.98 31.7243C138.871 31.9783 138.689 32.1598 138.471 32.305C138.253 32.4502 137.998 32.5228 137.707 32.5228C137.271 32.5228 136.907 32.3776 136.652 32.0872C136.398 31.7969 136.252 31.3976 136.252 30.8894V30.8531ZM136.834 30.9257C136.834 31.2887 136.907 31.5791 137.089 31.7606C137.271 31.9783 137.489 32.0872 137.744 32.0872C138.035 32.0872 138.253 31.9783 138.398 31.7606C138.544 31.5428 138.653 31.2524 138.653 30.8531C138.653 30.4901 138.58 30.2361 138.398 30.0183C138.216 29.8005 137.998 29.6916 137.744 29.6916C137.489 29.6916 137.271 29.8005 137.089 30.0183C136.907 30.2361 136.834 30.5264 136.834 30.9257Z" fill="white"/>
<path d="M140.363 29.2923V29.6916C140.617 29.4012 140.908 29.2197 141.308 29.2197C142 29.2197 142.327 29.5827 142.327 30.345V32.4502H141.781V30.345C141.781 30.1272 141.709 29.9457 141.636 29.8368C141.527 29.7279 141.381 29.6553 141.163 29.6553C140.981 29.6553 140.836 29.6916 140.69 29.8005C140.545 29.9094 140.435 30.0183 140.363 30.1635V32.4502H139.817V29.256H140.363V29.2923Z" fill="white"/>
<path d="M23.1695 30.0182C20.6961 30.0182 18.6592 27.9856 18.441 25.5899C18.441 25.4447 18.4046 25.2995 18.4046 25.1543V10.0908C18.1864 10.1634 6.1106 13.7569 6.1106 13.7569C4.51019 14.3013 2.90979 15.7895 2.90979 17.4592L2.94616 32.4139C2.90979 34.5554 5.23765 36.5881 7.67463 36.5881C8.14748 36.5881 8.62032 36.5155 9.09317 36.3703L20.587 32.9583C22.2965 32.5228 23.1695 33.1398 23.7878 33.648C23.8242 33.6843 23.8969 33.6843 23.9333 33.6843C24.0788 33.6843 24.1879 33.5754 24.1879 33.4302V29.873C23.8605 30.0182 23.5332 30.0182 23.1695 30.0182Z" fill="#4386F4"/>
<path d="M39.6464 7.55021C39.6828 5.40864 37.3549 3.37598 34.9179 3.37598C34.4451 3.37598 33.9722 3.44857 33.4994 3.59376L22.0056 7.00574C20.2961 7.44131 19.4231 6.82425 18.8048 6.31609C18.7684 6.27979 18.6956 6.27979 18.6593 6.27979C18.5138 6.27979 18.4047 6.38868 18.4047 6.53387V10.091C18.732 9.98215 19.0957 9.98215 19.4595 9.98215C21.9328 9.98215 23.9697 12.0148 24.1879 14.4105C24.1879 14.5557 24.2243 14.7008 24.2243 14.846V29.9096C24.4426 29.837 36.5183 26.2435 36.5183 26.2435C38.1187 25.6627 39.7191 24.2108 39.7191 22.5411L39.6464 7.55021Z" fill="#FFAB3F"/>
<path d="M24.1879 14.4109C23.9697 11.979 21.9328 9.94629 19.4231 9.94629C19.0594 9.94629 18.6956 9.94629 18.3683 10.0552V25.1187C18.3683 25.2639 18.3683 25.4091 18.4047 25.5543C18.6229 27.9862 20.6598 29.9826 23.1331 29.9826C23.4969 29.9826 23.8606 29.9826 24.1879 29.8737V14.8102C24.2243 14.7013 24.2243 14.5561 24.1879 14.4109Z" fill="#4386F4"/>
<path opacity="0.9" d="M24.1879 14.4109C23.9697 11.979 21.9328 9.94629 19.4231 9.94629C19.0594 9.94629 18.6956 9.94629 18.3683 10.0552V25.1187C18.3683 25.2639 18.3683 25.4091 18.4047 25.5543C18.6229 27.9862 20.6598 29.9826 23.1331 29.9826C23.4969 29.9826 23.8606 29.9826 24.1879 29.8737V14.8102C24.2243 14.7013 24.2243 14.5561 24.1879 14.4109Z" fill="#FFAB3F"/>
</svg>
