<svg width="144" height="40" viewBox="0 0 144 40" fill="none" xmlns="http://www.w3.org/2000/svg">
<path d="M52.1951 15.0282L49.6126 17.569V24.1389H48.0486V5.80859H49.6126V15.6816L59.0332 5.80859H60.9973L53.2863 13.9756L61.5793 24.1389H59.6879L52.1951 15.0282Z" fill="white"/>
<path d="M65.1803 10.5265L65.2166 12.8496C65.7259 12.0147 66.3806 11.3614 67.1444 10.9258C67.9082 10.4902 68.7448 10.2725 69.6905 10.2725C71.1454 10.2725 72.2366 10.6717 72.964 11.5066C73.6915 12.3414 74.0552 13.5755 74.0552 15.2089V24.1382H72.5639V15.2089C72.5639 13.9748 72.3093 13.0674 71.8001 12.4866C71.2909 11.9059 70.4907 11.5792 69.3631 11.5792C68.4174 11.5792 67.6172 11.8696 66.8898 12.4503C66.1623 13.0311 65.6531 13.8296 65.2894 14.8097V24.1382H63.7981V10.5265H65.1803Z" fill="white"/>
<path d="M77.074 17.1335C77.074 15.8268 77.3286 14.629 77.8378 13.6127C78.347 12.5963 79.0745 11.7615 79.9838 11.1807C80.8931 10.6 81.9843 10.3096 83.1482 10.3096C84.9669 10.3096 86.4218 10.9629 87.5493 12.2333C88.6769 13.5038 89.2225 15.1735 89.2225 17.2787V17.6054C89.2225 18.9121 88.9679 20.1099 88.4587 21.1626C87.9494 22.2152 87.222 23.0137 86.3127 23.5945C85.4033 24.1753 84.3485 24.4656 83.1482 24.4656C81.3296 24.4656 79.8747 23.8123 78.7471 22.5419C77.6196 21.2715 77.0376 19.6018 77.0376 17.4965V17.1335H77.074ZM78.6016 17.5691C78.6016 19.2025 79.0381 20.5455 79.8747 21.5618C80.7113 22.6145 81.8388 23.1226 83.1846 23.1226C84.5304 23.1226 85.658 22.6145 86.4945 21.5618C87.3311 20.5092 87.7676 19.1299 87.7676 17.4239V17.1335C87.7676 16.0809 87.5857 15.1372 87.1856 14.266C86.7855 13.3949 86.2399 12.7415 85.5488 12.2696C84.8578 11.7978 84.0576 11.5437 83.1482 11.5437C81.8024 11.5437 80.7113 12.0882 79.8383 13.1408C78.9654 14.1934 78.5653 15.5727 78.5653 17.2787V17.5691H78.6016Z" fill="white"/>
<path d="M95.6606 21.0174L95.8789 22.1789L96.1698 20.9448L99.4434 10.5273H100.716L103.954 20.8722L104.317 22.3241L104.608 21.0174L107.409 10.5636H108.973L105.008 24.1753H103.735L100.244 13.3586L100.062 12.6326L99.8799 13.3949L96.4245 24.1753H95.1514L91.2231 10.5273H92.7872L95.6606 21.0174Z" fill="white"/>
<path d="M113.556 24.1386H112.028V4.79199H113.556V24.1386Z" fill="white"/>
<path d="M122.94 24.3924C121.776 24.3924 120.721 24.102 119.776 23.5213C118.83 22.9405 118.103 22.142 117.593 21.1256C117.084 20.1093 116.793 18.9478 116.793 17.6773V17.1329C116.793 15.8262 117.048 14.6283 117.557 13.612C118.066 12.5957 118.757 11.7245 119.667 11.1438C120.576 10.563 121.558 10.2363 122.613 10.2363C124.286 10.2363 125.595 10.8171 126.541 11.9423C127.487 13.0675 127.996 14.6283 127.996 16.5521V17.4233H118.248V17.7136C118.248 19.2744 118.685 20.5449 119.594 21.5612C120.467 22.5775 121.594 23.0857 122.94 23.0857C123.74 23.0857 124.468 22.9405 125.086 22.6501C125.705 22.3597 126.25 21.8879 126.759 21.2345L127.705 21.9605C126.687 23.5939 125.05 24.3924 122.94 24.3924ZM122.686 11.543C121.558 11.543 120.576 11.9423 119.812 12.7772C119.048 13.612 118.575 14.7372 118.394 16.1165H126.577V15.9351C126.541 14.6283 126.177 13.5757 125.45 12.7409C124.722 11.906 123.813 11.543 122.686 11.543Z" fill="white"/>
<path d="M136.289 24.3924C135.125 24.3924 134.07 24.102 133.125 23.5213C132.179 22.9405 131.452 22.142 130.942 21.1256C130.433 20.1093 130.142 18.9478 130.142 17.6773V17.1329C130.142 15.8262 130.397 14.6283 130.906 13.612C131.415 12.5957 132.106 11.7245 133.016 11.1438C133.925 10.563 134.907 10.2363 135.962 10.2363C137.635 10.2363 138.944 10.8171 139.89 11.9423C140.836 13.0675 141.345 14.6283 141.345 16.5521V17.4233H131.67V17.7136C131.67 19.2744 132.106 20.5449 133.016 21.5612C133.888 22.5775 135.016 23.0857 136.362 23.0857C137.162 23.0857 137.89 22.9405 138.508 22.6501C139.126 22.3597 139.672 21.8879 140.181 21.2345L141.127 21.9605C140.036 23.5939 138.435 24.3924 136.289 24.3924ZM136.034 11.543C134.907 11.543 133.925 11.9423 133.161 12.7772C132.397 13.612 131.924 14.7372 131.743 16.1165H139.926V15.9351C139.89 14.6283 139.526 13.5757 138.799 12.7409C138.071 11.906 137.162 11.543 136.034 11.543Z" fill="white"/>
<path d="M49.8672 30.3447L50.9948 28.2031H51.6495L50.1582 30.8892V32.4862H49.5762V30.8892L48.085 28.2031H48.7397L49.8672 30.3447Z" fill="white"/>
<path d="M51.7585 30.8531C51.7585 30.5264 51.8313 30.2724 51.9404 30.0183C52.0495 29.7642 52.2314 29.5827 52.4496 29.4375C52.6679 29.2923 52.9225 29.2197 53.2135 29.2197C53.6499 29.2197 54.0137 29.3649 54.2683 29.6553C54.5229 29.9457 54.6684 30.345 54.6684 30.8531V30.8894C54.6684 31.2161 54.5956 31.4702 54.4865 31.7243C54.3774 31.9783 54.1955 32.1598 53.9773 32.305C53.759 32.4502 53.5044 32.5228 53.2135 32.5228C52.777 32.5228 52.4133 32.3776 52.1586 32.0872C51.904 31.7969 51.7585 31.3976 51.7585 30.8894V30.8531ZM52.3041 30.9257C52.3041 31.2887 52.3769 31.5791 52.5587 31.7606C52.7406 31.9783 52.9588 32.0872 53.2135 32.0872C53.5044 32.0872 53.7227 31.9783 53.8682 31.7606C54.0137 31.5428 54.1228 31.2524 54.1228 30.8531C54.1228 30.4901 54.05 30.2361 53.8682 30.0183C53.6863 29.8005 53.4681 29.6916 53.2135 29.6916C52.9588 29.6916 52.7406 29.8005 52.5587 30.0183C52.3769 30.2361 52.3041 30.5264 52.3041 30.9257Z" fill="white"/>
<path d="M57.3238 32.1595C57.1055 32.4136 56.8145 32.5225 56.3781 32.5225C56.0507 32.5225 55.7961 32.4136 55.6142 32.2321C55.4324 32.0506 55.3596 31.7602 55.3596 31.361V29.292H55.9052V31.361C55.9052 31.8328 56.0871 32.0869 56.4872 32.0869C56.8873 32.0869 57.1783 31.9417 57.3238 31.615V29.292H57.8693V32.4862H57.3601L57.3238 32.1595Z" fill="white"/>
<path d="M60.2335 29.8005C60.1607 29.8005 60.0516 29.7642 59.9789 29.7642C59.6151 29.7642 59.3605 29.9094 59.2514 30.2361V32.4865H58.7058V29.2923H59.2514V29.6553C59.4333 29.3649 59.6879 29.2197 60.0152 29.2197C60.1244 29.2197 60.1971 29.2197 60.2698 29.256V29.8005H60.2335Z" fill="white"/>
<path d="M62.8886 30.8166V32.4862H62.3066V28.2031H63.907C64.3799 28.2031 64.7436 28.312 64.9982 28.5661C65.2528 28.8202 65.3983 29.1106 65.3983 29.5098C65.3983 29.9091 65.2528 30.2358 64.9982 30.4899C64.7436 30.744 64.3799 30.8166 63.8707 30.8166H62.8886ZM62.8886 30.3447H63.907C64.198 30.3447 64.4526 30.2721 64.5981 30.1269C64.7436 29.9817 64.8527 29.7639 64.8527 29.5098C64.8527 29.2558 64.78 29.038 64.5981 28.8928C64.4526 28.7476 64.198 28.675 63.9434 28.6387H62.8886V30.3447Z" fill="white"/>
<path d="M67.3263 32.5589C66.8898 32.5589 66.526 32.4138 66.2714 32.1234C66.0168 31.833 65.8713 31.47 65.8713 30.9981V30.8893C65.8713 30.5626 65.9441 30.3085 66.0532 30.0544C66.1623 29.8003 66.3442 29.6188 66.5624 29.4736C66.7807 29.3285 66.9989 29.2559 67.2535 29.2559C67.6536 29.2559 67.981 29.401 68.2356 29.6551C68.4538 29.9455 68.5629 30.3085 68.5629 30.8167V31.0344H66.3806C66.3806 31.3611 66.4897 31.6152 66.6715 31.7967C66.8534 31.9782 67.0716 32.0871 67.3263 32.0871C67.5081 32.0871 67.69 32.0508 67.7991 31.9782C67.9446 31.9056 68.0537 31.7967 68.1628 31.6515L68.4902 31.9056C68.2719 32.3412 67.8718 32.5589 67.3263 32.5589ZM67.2535 29.6914C67.0353 29.6914 66.8534 29.764 66.7079 29.9455C66.5624 30.0907 66.4533 30.3448 66.4169 30.6352H68.0173V30.5989C68.0173 30.3085 67.9446 30.0907 67.7991 29.9455C67.69 29.764 67.5081 29.6914 67.2535 29.6914Z" fill="white"/>
<path d="M70.7452 29.8005C70.6724 29.8005 70.5633 29.7642 70.4906 29.7642C70.1268 29.7642 69.8722 29.9094 69.7631 30.2361V32.4865H69.2175V29.2923H69.7631V29.6553C69.945 29.3649 70.1996 29.2197 70.5269 29.2197C70.6361 29.2197 70.7088 29.2197 70.7816 29.256V29.8005H70.7452Z" fill="white"/>
<path d="M73.1094 31.6513C73.1094 31.5061 73.0366 31.3973 72.9275 31.3247C72.8184 31.2521 72.6365 31.1795 72.3456 31.1069C72.0546 31.0343 71.8363 30.9617 71.6908 30.8891C71.5454 30.8165 71.3999 30.7076 71.3271 30.5987C71.2544 30.4898 71.218 30.3446 71.218 30.1994C71.218 29.9453 71.3271 29.7276 71.5454 29.5461C71.7636 29.3646 72.0546 29.292 72.3819 29.292C72.7457 29.292 73.0366 29.4009 73.2549 29.5824C73.4731 29.7639 73.5822 30.0179 73.5822 30.3083H73.0366C73.0366 30.1631 72.9639 30.0179 72.8548 29.9091C72.7457 29.8002 72.5638 29.7639 72.3819 29.7639C72.2001 29.7639 72.0182 29.8002 71.9091 29.9091C71.8 29.9816 71.7272 30.1268 71.7272 30.2357C71.7272 30.3809 71.7636 30.4535 71.8727 30.5261C71.9818 30.5987 72.1637 30.6713 72.4547 30.7076C72.7093 30.7802 72.9639 30.8528 73.1094 30.9254C73.2549 30.998 73.4004 31.1069 73.4731 31.2158C73.5459 31.3247 73.5822 31.4699 73.5822 31.6513C73.5822 31.9417 73.4731 32.1595 73.2549 32.341C73.0366 32.5225 72.7457 32.5951 72.3819 32.5951C72.1273 32.5951 71.9091 32.5588 71.6908 32.4499C71.509 32.3773 71.3271 32.2321 71.218 32.0869C71.1089 31.9417 71.0361 31.7602 71.0361 31.5787H71.5817C71.5817 31.7602 71.6545 31.9054 71.8 32.0143C71.9455 32.1232 72.1273 32.1595 72.3456 32.1595C72.5638 32.1595 72.7093 32.1232 72.8548 32.0506C73.0003 31.978 73.1094 31.7965 73.1094 31.6513Z" fill="white"/>
<path d="M74.2371 30.8531C74.2371 30.5264 74.3098 30.2724 74.4189 30.0183C74.528 29.7642 74.7099 29.5827 74.9281 29.4375C75.1464 29.2923 75.401 29.2197 75.692 29.2197C76.1284 29.2197 76.4922 29.3649 76.7468 29.6553C77.0014 29.9457 77.1469 30.345 77.1469 30.8531V30.8894C77.1469 31.2161 77.0741 31.4702 76.965 31.7243C76.8559 31.9783 76.674 32.1598 76.4558 32.305C76.2376 32.4502 75.983 32.5228 75.692 32.5228C75.2555 32.5228 74.8918 32.3776 74.6372 32.0872C74.3825 31.7969 74.2371 31.3976 74.2371 30.8894V30.8531ZM74.7827 30.9257C74.7827 31.2887 74.8554 31.5791 75.0373 31.7606C75.2191 31.9783 75.4374 32.0872 75.692 32.0872C75.983 32.0872 76.2012 31.9783 76.3467 31.7606C76.4922 31.5428 76.6013 31.2524 76.6013 30.8531C76.6013 30.4901 76.5285 30.2361 76.3467 30.0183C76.1648 29.8005 75.9466 29.6916 75.692 29.6916C75.4374 29.6916 75.2191 29.8005 75.0373 30.0183C74.8554 30.2361 74.7827 30.5264 74.7827 30.9257Z" fill="white"/>
<path d="M78.3471 29.2923V29.6916C78.6017 29.4012 78.8927 29.2197 79.2928 29.2197C79.9839 29.2197 80.3112 29.5827 80.3112 30.345V32.4502H79.7657V30.345C79.7657 30.1272 79.6929 29.9457 79.6202 29.8368C79.511 29.7279 79.3656 29.6553 79.1473 29.6553C78.9655 29.6553 78.82 29.6916 78.6745 29.8005C78.529 29.9094 78.4199 30.0183 78.3471 30.1635V32.4502H77.8379V29.256H78.3471V29.2923Z" fill="white"/>
<path d="M83.1485 32.4867C83.1121 32.4141 83.0757 32.3052 83.0757 32.16C82.8211 32.4141 82.5301 32.5593 82.1664 32.5593C81.839 32.5593 81.5844 32.4867 81.4026 32.3052C81.2207 32.1237 81.1116 31.9059 81.1116 31.6155C81.1116 31.2889 81.2207 31.0348 81.4753 30.8533C81.7299 30.6718 82.0936 30.5629 82.5301 30.5629H83.0757V30.3088C83.0757 30.1273 83.003 29.9821 82.8938 29.8369C82.7847 29.7281 82.6029 29.6555 82.3846 29.6555C82.2028 29.6555 82.0209 29.6918 81.9118 29.8007C81.8027 29.9095 81.7299 30.0184 81.7299 30.1636H81.1843C81.1843 30.0184 81.2571 29.837 81.3662 29.6918C81.4753 29.5466 81.6208 29.4377 81.839 29.3288C82.0573 29.2199 82.2391 29.1836 82.4937 29.1836C82.8575 29.1836 83.1484 29.2925 83.3667 29.474C83.5849 29.6555 83.694 29.9095 83.694 30.2362V31.6881C83.694 31.9785 83.7304 32.1963 83.8032 32.3778V32.4141H83.1485V32.4867ZM82.2391 32.0874C82.421 32.0874 82.5665 32.0511 82.712 31.9422C82.8575 31.8696 82.9666 31.7244 83.0393 31.6155V30.9622H82.6029C81.9481 30.9622 81.5844 31.1437 81.5844 31.5429C81.5844 31.7244 81.6572 31.8333 81.7663 31.9422C81.9118 32.0148 82.0573 32.0874 82.2391 32.0874Z" fill="white"/>
<path d="M85.0397 32.4864H84.4941V27.9492H85.0397V32.4864Z" fill="white"/>
<path d="M88.0588 32.0144H90.0956V32.4862H87.4768V28.2031H88.0588V32.0144Z" fill="white"/>
<path d="M91.9869 32.5589C91.5504 32.5589 91.1867 32.4138 90.9321 32.1234C90.6775 31.833 90.532 31.47 90.532 30.9981V30.8893C90.532 30.5626 90.6047 30.3085 90.7138 30.0544C90.823 29.8003 91.0048 29.6188 91.2231 29.4736C91.4413 29.3285 91.6595 29.2559 91.9142 29.2559C92.3143 29.2559 92.6416 29.401 92.8962 29.6551C93.1145 29.9455 93.2236 30.3085 93.2236 30.8167V31.0344H91.0412C91.0412 31.3611 91.1503 31.6152 91.3322 31.7967C91.5141 31.9782 91.7323 32.0871 91.9869 32.0871C92.1688 32.0871 92.3506 32.0508 92.4597 31.9782C92.6052 31.9056 92.7144 31.7967 92.8235 31.6515L93.1508 31.9056C92.9326 32.3412 92.5325 32.5589 91.9869 32.5589ZM91.9142 29.6914C91.6959 29.6914 91.514 29.764 91.3686 29.9455C91.2231 30.0907 91.1139 30.3448 91.0776 30.6352H92.678V30.5989C92.678 30.3085 92.6052 30.0907 92.4597 29.9455C92.3506 29.764 92.1688 29.6914 91.9142 29.6914Z" fill="white"/>
<path d="M95.8425 32.4867C95.8062 32.4141 95.7698 32.3052 95.7698 32.16C95.5152 32.4141 95.2242 32.5593 94.8605 32.5593C94.5331 32.5593 94.2785 32.4867 94.0967 32.3052C93.9148 32.1237 93.8057 31.9059 93.8057 31.6155C93.8057 31.2889 93.9148 31.0348 94.1694 30.8533C94.424 30.6718 94.7877 30.5629 95.2242 30.5629H95.7698V30.3088C95.7698 30.1273 95.697 29.9821 95.5879 29.8369C95.4788 29.7281 95.2969 29.6555 95.0787 29.6555C94.8968 29.6555 94.715 29.6918 94.6059 29.8007C94.4968 29.9095 94.424 30.0184 94.424 30.1636H93.842C93.842 30.0184 93.9148 29.837 94.0239 29.6918C94.133 29.5466 94.2785 29.4377 94.4967 29.3288C94.715 29.2199 94.8969 29.1836 95.1515 29.1836C95.5152 29.1836 95.8062 29.2925 96.0244 29.474C96.2426 29.6555 96.3518 29.9095 96.3518 30.2362V31.6881C96.3518 31.9785 96.3881 32.1963 96.4609 32.3778V32.4141H95.8425V32.4867ZM94.9332 32.0874C95.1151 32.0874 95.2606 32.0511 95.4061 31.9422C95.5516 31.8696 95.6607 31.7244 95.7334 31.6155V30.9622H95.297C94.6422 30.9622 94.2785 31.1437 94.2785 31.5429C94.2785 31.7244 94.3513 31.8333 94.4604 31.9422C94.6059 32.0148 94.7514 32.0874 94.9332 32.0874Z" fill="white"/>
<path d="M98.7159 29.8005C98.6431 29.8005 98.534 29.7642 98.4613 29.7642C98.0976 29.7642 97.8429 29.9094 97.7338 30.2361V32.4865H97.1882V29.2923H97.7338V29.6553C97.9157 29.3649 98.1703 29.2197 98.4976 29.2197C98.6068 29.2197 98.6795 29.2197 98.7523 29.256V29.8005H98.7159Z" fill="white"/>
<path d="M99.7343 29.2923V29.6916C99.9889 29.4012 100.28 29.2197 100.68 29.2197C101.371 29.2197 101.698 29.5827 101.698 30.345V32.4502H101.153V30.345C101.153 30.1272 101.08 29.9457 101.007 29.8368C100.898 29.7279 100.753 29.6553 100.535 29.6553C100.353 29.6553 100.207 29.6916 100.062 29.8005C99.9162 29.9094 99.8071 30.0183 99.7343 30.1635V32.4502H99.1887V29.256H99.7343V29.2923Z" fill="white"/>
<path d="M102.535 28.4575C102.535 28.3849 102.572 28.3123 102.608 28.2398C102.644 28.1672 102.753 28.1309 102.863 28.1309C102.972 28.1309 103.044 28.1672 103.117 28.2398C103.19 28.3123 103.19 28.3849 103.19 28.4575C103.19 28.5301 103.153 28.6027 103.117 28.6753C103.081 28.7479 102.972 28.7479 102.863 28.7479C102.753 28.7479 102.681 28.7116 102.608 28.6753C102.572 28.6027 102.535 28.5301 102.535 28.4575ZM103.153 32.4866H102.608V29.2924H103.153V32.4866Z" fill="white"/>
<path d="M104.536 29.2923V29.6916C104.79 29.4012 105.081 29.2197 105.481 29.2197C106.172 29.2197 106.5 29.5827 106.5 30.345V32.4502H105.954V30.345C105.954 30.1272 105.881 29.9457 105.809 29.8368C105.7 29.7279 105.554 29.6553 105.336 29.6553C105.154 29.6553 105.008 29.6916 104.863 29.8005C104.717 29.9094 104.608 30.0183 104.536 30.1635V32.4502H104.026V29.256H104.536V29.2923Z" fill="white"/>
<path d="M107.227 30.8531C107.227 30.345 107.336 29.9457 107.591 29.6553C107.809 29.3649 108.136 29.2197 108.5 29.2197C108.9 29.2197 109.191 29.3649 109.409 29.619L109.446 29.256H109.955V32.3776C109.955 32.7769 109.846 33.1036 109.591 33.3577C109.337 33.6117 109.009 33.7206 108.609 33.7206C108.391 33.7206 108.136 33.6843 107.918 33.5754C107.7 33.4666 107.518 33.3577 107.409 33.1762L107.7 32.8495C107.918 33.1399 108.209 33.2851 108.573 33.2851C108.827 33.2851 109.046 33.2125 109.191 33.0673C109.337 32.9221 109.409 32.7043 109.409 32.4502V32.1598C109.191 32.4139 108.9 32.5228 108.5 32.5228C108.136 32.5228 107.809 32.3776 107.591 32.0872C107.373 31.7969 107.227 31.3976 107.227 30.8531ZM107.773 30.9257C107.773 31.2887 107.845 31.5791 107.991 31.7606C108.136 31.9783 108.355 32.0509 108.609 32.0509C108.937 32.0509 109.191 31.9058 109.373 31.5791V30.1272C109.191 29.8368 108.937 29.6553 108.609 29.6553C108.355 29.6553 108.136 29.7642 107.991 29.982C107.845 30.1998 107.773 30.5264 107.773 30.9257Z" fill="white"/>
<path d="M115.484 31.1436C115.447 31.5791 115.266 31.9421 114.975 32.1962C114.684 32.4503 114.32 32.5592 113.847 32.5592C113.338 32.5592 112.938 32.3777 112.61 32.0147C112.319 31.6517 112.137 31.1799 112.137 30.5628V30.1272C112.137 29.728 112.21 29.365 112.356 29.0746C112.501 28.7842 112.683 28.5301 112.974 28.3849C113.229 28.2398 113.556 28.1309 113.883 28.1309C114.356 28.1309 114.72 28.276 114.975 28.5301C115.266 28.7842 115.411 29.1472 115.447 29.5828H114.938C114.902 29.2561 114.793 29.002 114.611 28.8205C114.429 28.6753 114.211 28.6027 113.92 28.6027C113.556 28.6027 113.265 28.7479 113.083 29.002C112.865 29.2561 112.792 29.6554 112.792 30.1272V30.5265C112.792 30.9984 112.901 31.3613 113.083 31.6517C113.265 31.9421 113.556 32.051 113.883 32.051C114.211 32.051 114.429 31.9784 114.611 31.8332C114.793 31.688 114.902 31.4339 114.938 31.1073H115.484V31.1436Z" fill="white"/>
<path d="M116.029 30.8531C116.029 30.5264 116.102 30.2724 116.211 30.0183C116.32 29.7642 116.502 29.5827 116.72 29.4375C116.939 29.2923 117.193 29.2197 117.484 29.2197C117.921 29.2197 118.284 29.3649 118.539 29.6553C118.794 29.9457 118.939 30.345 118.939 30.8531V30.8894C118.939 31.2161 118.866 31.4702 118.757 31.7243C118.648 31.9783 118.466 32.1598 118.248 32.305C118.03 32.4502 117.775 32.5228 117.484 32.5228C117.048 32.5228 116.684 32.3776 116.429 32.0872C116.175 31.7969 116.029 31.3976 116.029 30.8894V30.8531ZM116.575 30.9257C116.575 31.2887 116.648 31.5791 116.83 31.7606C117.011 31.9783 117.23 32.0872 117.484 32.0872C117.775 32.0872 117.993 31.9783 118.139 31.7606C118.284 31.5428 118.394 31.2524 118.394 30.8531C118.394 30.4901 118.321 30.2361 118.139 30.0183C117.957 29.8005 117.739 29.6916 117.484 29.6916C117.23 29.6916 117.011 29.8005 116.83 30.0183C116.648 30.2361 116.575 30.5264 116.575 30.9257Z" fill="white"/>
<path d="M120.14 29.2922V29.6551C120.358 29.3648 120.685 29.2559 121.085 29.2559C121.522 29.2559 121.849 29.4373 121.995 29.764C122.104 29.6188 122.249 29.4736 122.395 29.4011C122.54 29.3285 122.758 29.2559 123.013 29.2559C123.704 29.2559 124.068 29.6188 124.068 30.3811V32.5226H123.522V30.4174C123.522 30.1996 123.486 30.0181 123.377 29.9092C123.268 29.8003 123.086 29.7277 122.868 29.7277C122.649 29.7277 122.504 29.8003 122.358 29.9092C122.213 30.0181 122.14 30.1996 122.14 30.3811V32.4864H121.595V30.3811C121.595 29.9092 121.376 29.6914 120.903 29.6914C120.54 29.6914 120.285 29.8366 120.176 30.1633V32.4864H119.63V29.2922H120.14Z" fill="white"/>
<path d="M127.632 30.9256C127.632 31.3974 127.523 31.7967 127.305 32.0871C127.087 32.3775 126.796 32.5226 126.396 32.5226C125.995 32.5226 125.705 32.4138 125.486 32.1597V33.6842H124.941V29.2922H125.45L125.486 29.6551C125.705 29.3648 126.032 29.2559 126.396 29.2559C126.796 29.2559 127.087 29.4011 127.305 29.6914C127.523 29.9818 127.632 30.3811 127.632 30.8893V30.9256ZM127.087 30.853C127.087 30.49 127.014 30.1996 126.868 30.0181C126.723 29.8003 126.505 29.6914 126.25 29.6914C125.923 29.6914 125.668 29.8366 125.523 30.127V31.6515C125.668 31.9419 125.923 32.0871 126.286 32.0871C126.541 32.0871 126.759 31.9782 126.905 31.7604C127.014 31.5789 127.087 31.2885 127.087 30.853Z" fill="white"/>
<path d="M130.288 32.4867C130.251 32.4141 130.215 32.3052 130.215 32.16C129.96 32.4141 129.669 32.5593 129.306 32.5593C128.978 32.5593 128.724 32.4867 128.542 32.3052C128.36 32.1237 128.251 31.9059 128.251 31.6155C128.251 31.2889 128.36 31.0348 128.614 30.8533C128.869 30.6718 129.233 30.5629 129.669 30.5629H130.215V30.3088C130.215 30.1273 130.142 29.9821 130.033 29.8369C129.924 29.7281 129.742 29.6555 129.524 29.6555C129.342 29.6555 129.16 29.6918 129.051 29.8007C128.942 29.9095 128.869 30.0184 128.869 30.1636H128.323C128.323 30.0184 128.396 29.837 128.505 29.6918C128.614 29.5466 128.76 29.4377 128.978 29.3288C129.196 29.2199 129.378 29.1836 129.633 29.1836C129.997 29.1836 130.288 29.2925 130.506 29.474C130.724 29.6555 130.833 29.9095 130.833 30.2362V31.6881C130.833 31.9785 130.87 32.1963 130.942 32.3778V32.4141H130.288V32.4867ZM129.378 32.0874C129.56 32.0874 129.706 32.0511 129.851 31.9422C129.997 31.8696 130.106 31.7244 130.178 31.6155V30.9622H129.742C129.087 30.9622 128.724 31.1437 128.724 31.5429C128.724 31.7244 128.796 31.8333 128.905 31.9422C129.051 32.0148 129.196 32.0874 129.378 32.0874Z" fill="white"/>
<path d="M132.143 29.2923V29.6916C132.397 29.4012 132.688 29.2197 133.088 29.2197C133.779 29.2197 134.107 29.5827 134.107 30.345V32.4502H133.561V30.345C133.561 30.1272 133.488 29.9457 133.416 29.8368C133.306 29.7279 133.161 29.6553 132.943 29.6553C132.761 29.6553 132.615 29.6916 132.47 29.8005C132.324 29.9094 132.215 30.0183 132.143 30.1635V32.4502H131.597V29.256H132.143V29.2923Z" fill="white"/>
<path d="M134.943 28.4575C134.943 28.3849 134.98 28.3123 135.016 28.2398C135.052 28.1672 135.162 28.1309 135.271 28.1309C135.38 28.1309 135.453 28.1672 135.525 28.2398C135.598 28.3123 135.598 28.3849 135.598 28.4575C135.598 28.5301 135.562 28.6027 135.525 28.6753C135.489 28.7479 135.38 28.7479 135.271 28.7479C135.162 28.7479 135.089 28.7116 135.016 28.6753C134.98 28.6027 134.943 28.5301 134.943 28.4575ZM135.525 32.4866H134.98V29.2924H135.525V32.4866Z" fill="white"/>
<path d="M136.252 30.8531C136.252 30.5264 136.325 30.2724 136.434 30.0183C136.543 29.7642 136.725 29.5827 136.944 29.4375C137.162 29.2923 137.416 29.2197 137.707 29.2197C138.144 29.2197 138.508 29.3649 138.762 29.6553C139.017 29.9457 139.162 30.345 139.162 30.8531V30.8894C139.162 31.2161 139.09 31.4702 138.98 31.7243C138.871 31.9783 138.689 32.1598 138.471 32.305C138.253 32.4502 137.998 32.5228 137.707 32.5228C137.271 32.5228 136.907 32.3776 136.653 32.0872C136.398 31.7969 136.252 31.3976 136.252 30.8894V30.8531ZM136.834 30.9257C136.834 31.2887 136.907 31.5791 137.089 31.7606C137.271 31.9783 137.489 32.0872 137.744 32.0872C138.035 32.0872 138.253 31.9783 138.398 31.7606C138.544 31.5428 138.653 31.2524 138.653 30.8531C138.653 30.4901 138.58 30.2361 138.398 30.0183C138.217 29.8005 137.998 29.6916 137.744 29.6916C137.489 29.6916 137.271 29.8005 137.089 30.0183C136.907 30.2361 136.834 30.5264 136.834 30.9257Z" fill="white"/>
<path d="M140.363 29.2923V29.6916C140.617 29.4012 140.908 29.2197 141.308 29.2197C142 29.2197 142.327 29.5827 142.327 30.345V32.4502H141.781V30.345C141.781 30.1272 141.709 29.9457 141.636 29.8368C141.527 29.7279 141.381 29.6553 141.163 29.6553C140.981 29.6553 140.836 29.6916 140.69 29.8005C140.545 29.9094 140.435 30.0183 140.363 30.1635V32.4502H139.817V29.256H140.363V29.2923Z" fill="white"/>
<path d="M23.1696 30.0182C20.6962 30.0182 18.6593 27.9856 18.4411 25.5899C18.4411 25.4447 18.4047 25.2995 18.4047 25.1543V10.0908C18.1865 10.1634 6.11072 13.7569 6.11072 13.7569C4.51032 14.3013 2.90991 15.7895 2.90991 17.4592L2.94629 32.4139C2.90991 34.5554 5.23777 36.5881 7.67475 36.5881C8.1476 36.5881 8.62045 36.5155 9.09329 36.3703L20.5871 32.9583C22.2966 32.5228 23.1696 33.1398 23.7879 33.648C23.8243 33.6843 23.897 33.6843 23.9334 33.6843C24.0789 33.6843 24.188 33.5754 24.188 33.4302V29.873C23.8607 30.0182 23.5333 30.0182 23.1696 30.0182Z" fill="#4386F4"/>
<path d="M39.6465 7.55021C39.6829 5.40864 37.355 3.37598 34.918 3.37598C34.4452 3.37598 33.9724 3.44857 33.4995 3.59376L22.0057 7.00574C20.2962 7.44131 19.4232 6.82425 18.8049 6.31609C18.7685 6.27979 18.6958 6.27979 18.6594 6.27979C18.5139 6.27979 18.4048 6.38868 18.4048 6.53387V10.091C18.7321 9.98215 19.0959 9.98215 19.4596 9.98215C21.9329 9.98215 23.9698 12.0148 24.1881 14.4105C24.1881 14.5557 24.2244 14.7008 24.2244 14.846V29.9096C24.4427 29.837 36.5184 26.2435 36.5184 26.2435C38.1189 25.6627 39.7193 24.2108 39.7193 22.5411L39.6465 7.55021Z" fill="#FFAB3F"/>
<path d="M24.1881 14.4109C23.9698 11.979 21.9329 9.94629 19.4232 9.94629C19.0595 9.94629 18.6958 9.94629 18.3684 10.0552V25.1187C18.3684 25.2639 18.3684 25.4091 18.4048 25.5543C18.623 27.9862 20.6599 29.9826 23.1332 29.9826C23.497 29.9826 23.8607 29.9826 24.1881 29.8737V14.8102C24.2244 14.7013 24.2244 14.5561 24.1881 14.4109Z" fill="#4386F4"/>
<path opacity="0.9" d="M24.1881 14.4109C23.9698 11.979 21.9329 9.94629 19.4232 9.94629C19.0595 9.94629 18.6958 9.94629 18.3684 10.0552V25.1187C18.3684 25.2639 18.3684 25.4091 18.4048 25.5543C18.623 27.9862 20.6599 29.9826 23.1332 29.9826C23.497 29.9826 23.8607 29.9826 24.1881 29.8737V14.8102C24.2244 14.7013 24.2244 14.5561 24.1881 14.4109Z" fill="#FFAB3F"/>
</svg>
