<svg width="20" height="20" viewBox="0 0 20 20" fill="none" xmlns="http://www.w3.org/2000/svg">
<path d="M10.0001 13.3337C10.2211 13.3337 10.4331 13.2459 10.5893 13.0896C10.7456 12.9333 10.8334 12.7213 10.8334 12.5003C10.8334 12.2793 10.7456 12.0674 10.5893 11.9111C10.4331 11.7548 10.2211 11.667 10.0001 11.667C9.77907 11.667 9.56711 11.7548 9.41083 11.9111C9.25455 12.0674 9.16675 12.2793 9.16675 12.5003C9.16675 12.7213 9.25455 12.9333 9.41083 13.0896C9.56711 13.2459 9.77907 13.3337 10.0001 13.3337Z" fill="#6C7275"/>
<path d="M14.1666 6.66712H13.3333V5.09212C13.3333 4.20807 12.9821 3.36022 12.3569 2.7351C11.7318 2.10998 10.884 1.75879 9.99992 1.75879C9.11586 1.75879 8.26802 2.10998 7.6429 2.7351C7.01777 3.36022 6.66659 4.20807 6.66659 5.09212V6.66712H5.83325C5.17021 6.66712 4.53433 6.93051 4.06549 7.39936C3.59664 7.8682 3.33325 8.50408 3.33325 9.16712V15.8338C3.33325 16.4968 3.59664 17.1327 4.06549 17.6016C4.53433 18.0704 5.17021 18.3338 5.83325 18.3338H14.1666C14.8296 18.3338 15.4655 18.0704 15.9344 17.6016C16.4032 17.1327 16.6666 16.4968 16.6666 15.8338V9.16712C16.6666 8.50408 16.4032 7.8682 15.9344 7.39936C15.4655 6.93051 14.8296 6.66712 14.1666 6.66712ZM8.33325 5.09212C8.32204 4.6382 8.49112 4.19833 8.80349 3.86879C9.11585 3.53924 9.54605 3.34688 9.99992 3.33379C10.4538 3.34688 10.884 3.53924 11.1963 3.86879C11.5087 4.19833 11.6778 4.6382 11.6666 5.09212V6.66712H8.33325V5.09212ZM9.99992 15.0005C9.33677 15.0005 8.70078 14.737 8.23186 14.2681C7.76294 13.7992 7.4995 13.1632 7.4995 12.5C7.4995 11.8369 7.76294 11.2009 8.23186 10.732C8.70078 10.2631 9.33677 9.99962 9.99992 9.99962C10.663 9.99962 11.2988 10.263 11.7677 10.7319C12.2365 11.2007 12.4999 11.8366 12.4999 12.4996C12.4999 13.1627 12.2365 13.7985 11.7677 14.2674C11.2988 14.7362 10.663 15.0005 9.99992 15.0005Z" fill="#6C7275"/>
</svg>
