<svg width="20" height="20" viewBox="0 0 20 20" fill="none" xmlns="http://www.w3.org/2000/svg">
<path d="M14.1667 6.66712H13.3334V5.09212C13.3334 4.20807 12.9822 3.36022 12.3571 2.7351C11.7319 2.10998 10.8841 1.75879 10 1.75879C9.11599 1.75879 8.26814 2.10998 7.64302 2.7351C7.0179 3.36022 6.66671 4.20807 6.66671 5.09212V6.66712H5.83337C5.17033 6.66712 4.53445 6.93051 4.06561 7.39936C3.59677 7.8682 3.33337 8.50408 3.33337 9.16712V15.8338C3.33337 16.4968 3.59677 17.1327 4.06561 17.6016C4.53445 18.0704 5.17033 18.3338 5.83337 18.3338H14.1667C14.8297 18.3338 15.4656 18.0704 15.9345 17.6016C16.4033 17.1327 16.6667 16.4968 16.6667 15.8338V9.16712C16.6667 8.50408 16.4033 7.8682 15.9345 7.39936C15.4656 6.93051 14.8297 6.66712 14.1667 6.66712ZM8.33337 5.09212C8.32216 4.6382 8.49125 4.19833 8.80361 3.86879C9.11597 3.53924 9.54617 3.34688 10 3.33379C10.4539 3.34688 10.8841 3.53924 11.1965 3.86879C11.5088 4.19833 11.6779 4.6382 11.6667 5.09212V6.66712H8.33337V5.09212ZM15 15.8338C15 16.0548 14.9122 16.2668 14.756 16.423C14.5997 16.5793 14.3877 16.6671 14.1667 16.6671H5.83337C5.61236 16.6671 5.4004 16.5793 5.24412 16.423C5.08784 16.2668 5.00004 16.0548 5.00004 15.8338V9.16712C5.00004 8.94611 5.08784 8.73415 5.24412 8.57787C5.4004 8.42159 5.61236 8.33379 5.83337 8.33379H14.1667C14.3877 8.33379 14.5997 8.42159 14.756 8.57787C14.9122 8.73415 15 8.94611 15 9.16712V15.8338Z" fill="#0C0D0D"/>
<path d="M9.99999 10.0004C9.6679 9.99435 9.33793 10.0545 9.02935 10.1774C8.72078 10.3003 8.43979 10.4835 8.20279 10.7162C7.96579 10.9489 7.77754 11.2265 7.64904 11.5328C7.52053 11.839 7.45435 12.1679 7.45435 12.5C7.45435 12.8321 7.52053 13.161 7.64904 13.4672C7.77754 13.7735 7.96579 14.0511 8.20279 14.2838C8.43979 14.5165 8.72078 14.6997 9.02935 14.8226C9.33793 14.9455 9.6679 15.0056 9.99999 14.9996C10.655 14.9876 11.2792 14.719 11.7382 14.2516C12.1972 13.7841 12.4543 13.1551 12.4543 12.5C12.4543 11.8449 12.1972 11.2159 11.7382 10.7484C11.2792 10.281 10.655 10.0124 9.99999 10.0004ZM9.99999 13.3338C9.77897 13.3338 9.56701 13.246 9.41073 13.0897C9.25445 12.9334 9.16665 12.7214 9.16665 12.5004C9.16665 12.2794 9.25445 12.0674 9.41073 11.9112C9.56701 11.7549 9.77897 11.6671 9.99999 11.6671C10.221 11.6671 10.433 11.7549 10.5892 11.9112C10.7455 12.0674 10.8333 12.2794 10.8333 12.5004C10.8333 12.7214 10.7455 12.9334 10.5892 13.0897C10.433 13.246 10.221 13.3338 9.99999 13.3338Z" fill="#0C0D0D"/>
</svg>
