<svg width="20" height="20" viewBox="0 0 20 20" fill="none" xmlns="http://www.w3.org/2000/svg">
<path d="M14.1668 6.66712H13.3335V5.09212C13.3335 4.20807 12.9823 3.36022 12.3572 2.7351C11.7321 2.10998 10.8842 1.75879 10.0002 1.75879C9.11611 1.75879 8.26826 2.10998 7.64314 2.7351C7.01802 3.36022 6.66683 4.20807 6.66683 5.09212V6.66712H5.8335C5.17045 6.66712 4.53457 6.93051 4.06573 7.39936C3.59689 7.8682 3.3335 8.50408 3.3335 9.16712V15.8338C3.3335 16.4968 3.59689 17.1327 4.06573 17.6016C4.53457 18.0704 5.17045 18.3338 5.8335 18.3338H14.1668C14.8299 18.3338 15.4658 18.0704 15.9346 17.6016C16.4034 17.1327 16.6668 16.4968 16.6668 15.8338V9.16712C16.6668 8.50408 16.4034 7.8682 15.9346 7.39936C15.4658 6.93051 14.8299 6.66712 14.1668 6.66712ZM8.3335 5.09212C8.32229 4.6382 8.49137 4.19833 8.80373 3.86879C9.11609 3.53924 9.54629 3.34688 10.0002 3.33379C10.454 3.34688 10.8842 3.53924 11.1966 3.86879C11.509 4.19833 11.678 4.6382 11.6668 5.09212V6.66712H8.3335V5.09212ZM15.0002 15.8338C15.0002 16.0548 14.9124 16.2668 14.7561 16.423C14.5998 16.5793 14.3878 16.6671 14.1668 16.6671H5.8335C5.61248 16.6671 5.40052 16.5793 5.24424 16.423C5.08796 16.2668 5.00016 16.0548 5.00016 15.8338V9.16712C5.00016 8.94611 5.08796 8.73415 5.24424 8.57787C5.40052 8.42159 5.61248 8.33379 5.8335 8.33379H14.1668C14.3878 8.33379 14.5998 8.42159 14.7561 8.57787C14.9124 8.73415 15.0002 8.94611 15.0002 9.16712V15.8338Z" fill="#0C0D0D"/>
<path d="M10.0002 10.0004C9.66814 9.99435 9.33817 10.0545 9.0296 10.1774C8.72102 10.3003 8.44003 10.4835 8.20303 10.7162C7.96604 10.9489 7.77779 11.2265 7.64928 11.5328C7.52078 11.839 7.45459 12.1679 7.45459 12.5C7.45459 12.8321 7.52078 13.161 7.64928 13.4672C7.77779 13.7735 7.96604 14.0511 8.20303 14.2838C8.44003 14.5165 8.72102 14.6997 9.0296 14.8226C9.33817 14.9455 9.66814 15.0056 10.0002 14.9996C10.6553 14.9876 11.2794 14.719 11.7384 14.2516C12.1974 13.7841 12.4546 13.1551 12.4546 12.5C12.4546 11.8449 12.1974 11.2159 11.7384 10.7484C11.2794 10.281 10.6553 10.0124 10.0002 10.0004ZM10.0002 13.3338C9.77922 13.3338 9.56726 13.246 9.41098 13.0897C9.2547 12.9334 9.1669 12.7214 9.1669 12.5004C9.1669 12.2794 9.2547 12.0674 9.41098 11.9112C9.56726 11.7549 9.77922 11.6671 10.0002 11.6671C10.2212 11.6671 10.4332 11.7549 10.5895 11.9112C10.7458 12.0674 10.8336 12.2794 10.8336 12.5004C10.8336 12.7214 10.7458 12.9334 10.5895 13.0897C10.4332 13.246 10.2212 13.3338 10.0002 13.3338Z" fill="#0C0D0D"/>
</svg>
