<svg width="24" height="24" viewBox="0 0 24 24" fill="none" xmlns="http://www.w3.org/2000/svg">
<path d="M12 16C12.2652 16 12.5196 15.8946 12.7071 15.7071C12.8946 15.5196 13 15.2652 13 15C13 14.7348 12.8946 14.4804 12.7071 14.2929C12.5196 14.1054 12.2652 14 12 14C11.7348 14 11.4804 14.1054 11.2929 14.2929C11.1054 14.4804 11 14.7348 11 15C11 15.2652 11.1054 15.5196 11.2929 15.7071C11.4804 15.8946 11.7348 16 12 16Z" fill="#6C7275"/>
<path d="M17 8.00035H16V6.11035C16 5.04949 15.5786 4.03207 14.8284 3.28192C14.0783 2.53178 13.0609 2.11035 12 2.11035C10.9391 2.11035 9.92172 2.53178 9.17157 3.28192C8.42143 4.03207 8 5.04949 8 6.11035V8.00035H7C6.20435 8.00035 5.44129 8.31642 4.87868 8.87903C4.31607 9.44164 4 10.2047 4 11.0004V19.0004C4 19.796 4.31607 20.5591 4.87868 21.1217C5.44129 21.6843 6.20435 22.0004 7 22.0004H17C17.7956 22.0004 18.5587 21.6843 19.1213 21.1217C19.6839 20.5591 20 19.796 20 19.0004V11.0004C20 10.2047 19.6839 9.44164 19.1213 8.87903C18.5587 8.31642 17.7956 8.00035 17 8.00035ZM10 6.11035C9.98655 5.56565 10.1894 5.0378 10.5643 4.64235C10.9391 4.2469 11.4554 4.01606 12 4.00035C12.5446 4.01606 13.0609 4.2469 13.4357 4.64235C13.8106 5.0378 14.0135 5.56565 14 6.11035V8.00035H10V6.11035ZM12 18.0004C11.2042 18.0004 10.441 17.6842 9.87833 17.1215C9.31562 16.5588 8.9995 15.7956 8.9995 14.9999C8.9995 14.2041 9.31562 13.4409 9.87833 12.8782C10.441 12.3155 11.2042 11.9994 12 11.9994C12.7956 11.9994 13.5587 12.3154 14.1213 12.878C14.6839 13.4406 15 14.2037 15 14.9994C15 15.795 14.6839 16.5581 14.1213 17.1207C13.5587 17.6833 12.7956 18.0004 12 18.0004Z" fill="#6C7275"/>
</svg>
