<svg width="20" height="20" viewBox="0 0 20 20" fill="none" xmlns="http://www.w3.org/2000/svg">
<path d="M9.99996 13.3337C10.221 13.3337 10.4329 13.2459 10.5892 13.0896C10.7455 12.9333 10.8333 12.7213 10.8333 12.5003C10.8333 12.2793 10.7455 12.0674 10.5892 11.9111C10.4329 11.7548 10.221 11.667 9.99996 11.667C9.77895 11.667 9.56698 11.7548 9.4107 11.9111C9.25442 12.0674 9.16663 12.2793 9.16663 12.5003C9.16663 12.7213 9.25442 12.9333 9.4107 13.0896C9.56698 13.2459 9.77895 13.3337 9.99996 13.3337Z" fill="#6C7275"/>
<path d="M14.1667 6.66712H13.3334V5.09212C13.3334 4.20807 12.9822 3.36022 12.3571 2.7351C11.7319 2.10998 10.8841 1.75879 10 1.75879C9.11599 1.75879 8.26814 2.10998 7.64302 2.7351C7.0179 3.36022 6.66671 4.20807 6.66671 5.09212V6.66712H5.83337C5.17033 6.66712 4.53445 6.93051 4.06561 7.39936C3.59677 7.8682 3.33337 8.50408 3.33337 9.16712V15.8338C3.33337 16.4968 3.59677 17.1327 4.06561 17.6016C4.53445 18.0704 5.17033 18.3338 5.83337 18.3338H14.1667C14.8297 18.3338 15.4656 18.0704 15.9345 17.6016C16.4033 17.1327 16.6667 16.4968 16.6667 15.8338V9.16712C16.6667 8.50408 16.4033 7.8682 15.9345 7.39936C15.4656 6.93051 14.8297 6.66712 14.1667 6.66712ZM8.33337 5.09212C8.32216 4.6382 8.49125 4.19833 8.80361 3.86879C9.11597 3.53924 9.54617 3.34688 10 3.33379C10.4539 3.34688 10.8841 3.53924 11.1965 3.86879C11.5088 4.19833 11.6779 4.6382 11.6667 5.09212V6.66712H8.33337V5.09212ZM10 15.0005C9.33689 15.0005 8.7009 14.737 8.23198 14.2681C7.76306 13.7992 7.49962 13.1632 7.49962 12.5C7.49962 11.8369 7.76306 11.2009 8.23198 10.732C8.7009 10.2631 9.33689 9.99962 10 9.99962C10.6631 9.99962 11.299 10.263 11.7678 10.7319C12.2366 11.2007 12.5 11.8366 12.5 12.4996C12.5 13.1627 12.2366 13.7985 11.7678 14.2674C11.299 14.7362 10.6631 15.0005 10 15.0005Z" fill="#6C7275"/>
</svg>
