<svg width="60" height="60" viewBox="0 0 60 60" fill="none" xmlns="http://www.w3.org/2000/svg">
<g clip-path="url(#clip0_63_1257)">
<rect width="60" height="60" rx="10" fill="#45B058"/>
<path fill-rule="evenodd" clip-rule="evenodd" d="M33.4894 15H17.5454V44.9999H18V45H43V44.9999H43.4544V24.375L33.4894 15ZM41.4614 33.7499H19.5384V16.875H33.4894V24.375H41.4614V33.7499ZM26.3352 37.7509H24.592C24.5601 37.5417 24.4951 37.3558 24.3969 37.1933C24.2988 37.0284 24.1727 36.8881 24.0188 36.7724C23.8649 36.6567 23.6872 36.5681 23.4855 36.5065C23.2865 36.445 23.0703 36.4142 22.8368 36.4142C22.4149 36.4142 22.0474 36.5115 21.7343 36.7059C21.4212 36.8979 21.1784 37.1786 21.0059 37.5478C20.8335 37.9146 20.7472 38.3602 20.7472 38.8845C20.7472 39.4236 20.8335 39.8766 21.0059 40.2433C21.1811 40.6101 21.4252 40.8871 21.7383 41.0742C22.0514 41.2612 22.4136 41.3548 22.8248 41.3548C23.0557 41.3548 23.2693 41.3265 23.4656 41.2699C23.6646 41.2132 23.8411 41.1308 23.995 41.0225C24.1489 40.9117 24.2762 40.7775 24.377 40.62C24.4805 40.4624 24.5522 40.2827 24.592 40.0809L26.3352 40.0883C26.2901 40.4354 26.1774 40.7701 25.9969 41.0926C25.8191 41.4126 25.579 41.6994 25.2765 41.953C24.9767 42.2041 24.6185 42.4035 24.2019 42.5511C23.788 42.6964 23.3197 42.769 22.797 42.769C22.0699 42.769 21.4199 42.6164 20.8467 42.3111C20.2763 42.0059 19.8252 41.564 19.4935 40.9855C19.1645 40.407 19 39.7067 19 38.8845C19 38.0598 19.1672 37.3583 19.5015 36.7798C19.8358 36.2013 20.2895 35.7607 20.8627 35.4579C21.4358 35.1526 22.0806 35 22.797 35C23.2693 35 23.7071 35.0615 24.1104 35.1846C24.5163 35.3077 24.8759 35.4874 25.189 35.7237C25.5021 35.9576 25.7568 36.2444 25.9531 36.5841C26.1521 36.9238 26.2795 37.3127 26.3352 37.7509ZM31.9929 37.2783C31.961 36.9804 31.8244 36.749 31.5829 36.5841C31.3415 36.4191 31.0138 36.3367 30.5998 36.3367C30.3186 36.3367 30.0811 36.3736 29.8874 36.4475C29.6937 36.5188 29.5451 36.6185 29.4417 36.7465C29.3408 36.8746 29.2904 37.0198 29.2904 37.1823C29.2851 37.3177 29.3156 37.4358 29.382 37.5367C29.4509 37.6377 29.5451 37.7251 29.6645 37.7989C29.7839 37.8703 29.9219 37.9331 30.0785 37.9872C30.235 38.0389 30.4022 38.0832 30.5799 38.1202L31.3123 38.2826C31.6678 38.3565 31.9942 38.4549 32.2914 38.578C32.5885 38.7011 32.8459 38.8525 33.0635 39.0322C33.2811 39.2119 33.4496 39.4236 33.569 39.6673C33.691 39.911 33.7534 40.1904 33.756 40.5055C33.7534 40.9683 33.626 41.3696 33.3739 41.7093C33.1245 42.0465 32.7637 42.3087 32.2914 42.4958C31.8217 42.6804 31.2552 42.7727 30.5919 42.7727C29.9339 42.7727 29.3607 42.6792 28.8725 42.4921C28.3869 42.305 28.0075 42.028 27.7342 41.6613C27.4636 41.292 27.3216 40.8354 27.3083 40.2913H28.976C28.9946 40.5449 29.0728 40.7566 29.2108 40.9265C29.3514 41.0938 29.5385 41.2206 29.772 41.3068C30.0081 41.3905 30.2748 41.4323 30.572 41.4323C30.8639 41.4323 31.1173 41.3929 31.3322 41.3142C31.5498 41.2354 31.7182 41.1258 31.8376 40.9855C31.957 40.8452 32.0167 40.684 32.0167 40.5018C32.0167 40.332 31.9623 40.1892 31.8536 40.0735C31.7474 39.9578 31.5909 39.8593 31.3839 39.7781C31.1796 39.6969 30.9289 39.623 30.6317 39.5565L29.7441 39.3498C29.0569 39.1947 28.5143 38.9522 28.1163 38.6223C27.7183 38.2925 27.5206 37.8481 27.5233 37.2893C27.5206 36.8315 27.652 36.4315 27.9173 36.0893C28.1853 35.7471 28.5528 35.48 29.0198 35.288C29.4868 35.096 30.0174 35 30.6118 35C31.2168 35 31.7448 35.096 32.1958 35.288C32.6496 35.48 33.0025 35.7471 33.2545 36.0893C33.5066 36.4315 33.6366 36.8278 33.6446 37.2783H31.9929ZM38.358 40.8489L36.3878 35.1034H34.4734L37.2873 42.6656H39.5082L42.3181 35.1034H40.4077L38.4336 40.8489H38.358Z" fill="white"/>
</g>
<defs>
<clipPath id="clip0_63_1257">
<rect width="60" height="60" fill="white"/>
</clipPath>
</defs>
</svg>
