<svg width="60" height="60" viewBox="0 0 60 60" fill="none" xmlns="http://www.w3.org/2000/svg">
<g clip-path="url(#clip0_63_1256)">
<rect width="60" height="60" rx="10" fill="#F61C0D"/>
<path d="M30.4157 16.0908C31.3235 16.096 33.5948 16.1186 36.0089 16.2177L36.8658 16.256C39.2952 16.3725 41.7229 16.5742 42.9283 16.9167C44.5349 17.3792 45.7963 18.725 46.2231 20.4325C46.9031 23.1449 46.9881 28.4342 46.9983 29.7156L47 29.9799V30.2825C46.9881 31.5639 46.9031 36.8549 46.2231 39.5656C45.7912 41.2783 44.5281 42.6258 42.9283 43.0814C41.7229 43.4239 39.2952 43.6256 36.8658 43.7421L36.0089 43.7821C33.5948 43.8794 31.3235 43.9038 30.4157 43.9073L30.0161 43.909H29.5826C27.6615 43.8968 19.6269 43.8082 17.07 43.0814C15.4651 42.6189 14.202 41.2731 13.7752 39.5656C13.0952 36.8532 13.0102 31.5639 13 30.2825V29.7156C13.0102 28.4342 13.0952 23.1432 13.7752 20.4325C14.2071 18.7198 15.4702 17.3723 17.0717 16.9185C19.6269 16.1899 27.6632 16.1013 29.5843 16.0908H30.4157ZM26.599 23.9152V36.0864L36.7995 30.0008L26.599 23.9152Z" fill="white"/>
</g>
<defs>
<clipPath id="clip0_63_1256">
<rect width="60" height="60" fill="white"/>
</clipPath>
</defs>
</svg>
