<svg width="60" height="60" viewBox="0 0 60 60" fill="none" xmlns="http://www.w3.org/2000/svg">
<g clip-path="url(#clip0_63_1259)">
<rect width="60" height="60" rx="10" fill="black"/>
<g clip-path="url(#clip1_63_1259)">
<path d="M32.1781 30C32.1781 35.2806 27.8856 39.5625 22.588 39.5625C21.3306 39.5642 20.0851 39.3182 18.9227 38.8385C17.7604 38.3589 16.7039 37.655 15.8135 36.767C14.9232 35.879 14.2165 34.8244 13.7337 33.6633C13.251 32.5022 13.0017 31.2575 13 30C13 24.7173 17.2925 20.4375 22.588 20.4375C23.8456 20.4356 25.0913 20.6814 26.2539 21.1609C27.4165 21.6404 28.4733 22.3443 29.3638 23.2323C30.2544 24.1203 30.9613 25.175 31.4442 26.3362C31.9271 27.4974 32.1765 28.7424 32.1781 30ZM42.6969 30C42.6969 34.9725 40.5506 39.0015 37.9029 39.0015C35.2551 39.0015 33.1089 34.9704 33.1089 30C33.1089 25.0275 35.2551 20.9985 37.9029 20.9985C40.5506 20.9985 42.6969 25.0296 42.6969 30ZM47 30C47 34.454 46.2456 38.0644 45.3128 38.0644C44.382 38.0644 43.6276 34.4519 43.6276 30C43.6276 25.546 44.382 21.9356 45.3149 21.9356C46.2456 21.9356 47 25.546 47 30Z" fill="white"/>
</g>
</g>
<defs>
<clipPath id="clip0_63_1259">
<rect width="60" height="60" fill="white"/>
</clipPath>
<clipPath id="clip1_63_1259">
<rect width="34" height="34" fill="white" transform="translate(13 13)"/>
</clipPath>
</defs>
</svg>
