<svg width="60" height="60" viewBox="0 0 60 60" fill="none" xmlns="http://www.w3.org/2000/svg">
<g clip-path="url(#clip0_63_1258)">
<rect width="60" height="60" rx="10" fill="#E1574C"/>
<path fill-rule="evenodd" clip-rule="evenodd" d="M22.8154 37.5H21.1538V39.375H22.8154C23.4385 39.375 23.8538 39 23.8538 38.4375C23.8538 37.875 23.4385 37.5 22.8154 37.5ZM33.6154 15H17V45H44V24.375L33.6154 15ZM25.7231 38.625C25.7231 40.125 24.4769 41.25 22.8154 41.25H21.1538V43.125H19.0769V35.625H22.8154C24.4769 35.625 25.7231 36.75 25.7231 38.25V38.625ZM34.2385 39.5625C34.2385 41.4375 32.5769 43.125 30.2923 43.125H27.3846V35.625H30.2923C32.3692 35.625 34.2385 37.125 34.2385 39.1875V39.5625ZM41.9231 37.5H37.7692V39.375H40.8846V41.25H37.7692V43.125H35.6923V35.625H41.9231V37.5ZM41.9231 33.75H19.0769V16.875H33.6154V24.375H41.9231V33.75ZM30.2923 37.5H29.4615V41.25H30.2923C31.5385 41.25 32.3692 40.5 32.3692 39.375C32.3692 38.25 31.3308 37.5 30.2923 37.5Z" fill="white"/>
</g>
<defs>
<clipPath id="clip0_63_1258">
<rect width="60" height="60" fill="white"/>
</clipPath>
</defs>
</svg>
