<svg width="24" height="24" viewBox="0 0 24 24" fill="none" xmlns="http://www.w3.org/2000/svg">
<mask id="path-1-inside-1_501_5980" fill="white">
<path d="M8.61003 22C8.12206 21.9971 7.64825 21.8357 7.26004 21.54L5.19003 20C4.71234 19.6276 4.39539 19.0863 4.30426 18.4875C4.21314 17.8887 4.35476 17.2777 4.70003 16.78C4.88272 16.5102 4.99883 16.201 5.03881 15.8777C5.07879 15.5543 5.04151 15.2261 4.93003 14.92L4.87003 14.76C4.79241 14.4829 4.65054 14.228 4.45594 14.0161C4.26134 13.8041 4.01949 13.641 3.75003 13.54H3.59003C3.00591 13.3436 2.52284 12.9247 2.24574 12.3742C1.96864 11.8237 1.91988 11.1862 2.11003 10.6L2.93003 8C3.04154 7.5566 3.28962 7.15948 3.6392 6.86482C3.98879 6.57015 4.42216 6.39285 4.87803 6.358C5.16703 6.338 5.45703 6.375 5.73003 6.47C6.02792 6.57025 6.34578 6.59624 6.65599 6.5457C6.9662 6.49516 7.25938 6.36962 7.51004 6.18L7.64003 6.08C7.86693 5.89895 8.05031 5.6693 8.17665 5.40796C8.30299 5.14663 8.36907 4.86027 8.37003 4.57V4.33C8.36735 3.71813 8.60648 3.12997 9.03538 2.69358C9.46428 2.25719 10.0482 2.00791 10.66 2H13.21C13.5077 2.0008 13.8023 2.0604 14.0769 2.17538C14.3515 2.29036 14.6006 2.45845 14.81 2.67C15.2503 3.11779 15.4949 3.72202 15.49 4.35V4.63C15.485 4.90575 15.5448 5.17884 15.6646 5.42723C15.7845 5.67562 15.961 5.89237 16.18 6.06L16.29 6.14C16.5145 6.3083 16.7763 6.41984 17.0531 6.46511C17.33 6.51039 17.6137 6.48805 17.88 6.4L18.22 6.29C18.5081 6.19451 18.8124 6.15802 19.1149 6.1827C19.4174 6.20737 19.7118 6.29272 19.9806 6.43364C20.2493 6.57456 20.487 6.76817 20.6793 7.00292C20.8717 7.23767 21.0147 7.50876 21.1 7.8L21.89 10.32C22.0728 10.9024 22.0229 11.533 21.7506 12.0793C21.4784 12.6256 21.0051 13.0452 20.43 13.25L20.23 13.32C19.9359 13.4163 19.6699 13.5834 19.4554 13.8066C19.2409 14.0298 19.0846 14.3022 19 14.6C18.9204 14.8768 18.9015 15.1675 18.9446 15.4523C18.9878 15.7371 19.0919 16.0092 19.25 16.25L19.51 16.63C19.8548 17.1304 19.9951 17.7438 19.9022 18.3444C19.8092 18.945 19.49 19.4872 19.01 19.86L17 21.41C16.7571 21.5954 16.4788 21.7292 16.1823 21.8032C15.8857 21.8771 15.5772 21.8897 15.2756 21.84C14.9741 21.7904 14.6858 21.6796 14.4286 21.5145C14.1715 21.3494 13.9507 21.1335 13.78 20.88L13.66 20.71C13.4963 20.4639 13.2728 20.2632 13.0105 20.1268C12.7482 19.9904 12.4556 19.9227 12.16 19.93C11.878 19.9373 11.6017 20.0108 11.3533 20.1445C11.1049 20.2783 10.8914 20.4686 10.73 20.7L10.5 21.03C10.3294 21.2855 10.1083 21.5033 9.85037 21.6702C9.5924 21.837 9.30302 21.9492 9.00003 22C8.87035 22.0127 8.73972 22.0127 8.61003 22ZM4.40003 11.62C4.96473 11.8214 5.47426 12.1525 5.88763 12.5867C6.30101 13.0209 6.60667 13.5461 6.78004 14.12V14.24C6.99597 14.8366 7.06687 15.4761 6.98689 16.1055C6.9069 16.735 6.67833 17.3363 6.32003 17.86C6.25679 17.9299 6.22177 18.0208 6.22177 18.115C6.22177 18.2092 6.25679 18.3001 6.32003 18.37L8.47004 20C8.49815 20.0219 8.53059 20.0375 8.56521 20.0459C8.59983 20.0543 8.63584 20.0552 8.67084 20.0485C8.70584 20.0419 8.73902 20.0279 8.7682 20.0075C8.79737 19.987 8.82186 19.9606 8.84003 19.93L9.07003 19.6C9.41692 19.0988 9.88018 18.6891 10.4201 18.4062C10.96 18.1232 11.5605 17.9754 12.17 17.9754C12.7796 17.9754 13.3801 18.1232 13.92 18.4062C14.4599 18.6891 14.9231 19.0988 15.27 19.6L15.39 19.78C15.433 19.841 15.4972 19.8838 15.57 19.9C15.6034 19.9049 15.6375 19.903 15.6702 19.8944C15.7028 19.8859 15.7334 19.8707 15.76 19.85L17.82 18.29C17.8921 18.2328 17.9396 18.1501 17.9526 18.0589C17.9656 17.9678 17.9432 17.8751 17.89 17.8L17.63 17.42C17.2913 16.926 17.0678 16.3622 16.976 15.7703C16.8843 15.1783 16.9267 14.5734 17.1 14C17.2758 13.3974 17.5937 12.8458 18.027 12.3916C18.4603 11.9374 18.9963 11.5939 19.59 11.39L19.79 11.32C19.8734 11.2866 19.9401 11.2216 19.9757 11.1392C20.0113 11.0567 20.0129 10.9636 19.98 10.88L19.2 8.39C19.1813 8.34643 19.1539 8.30713 19.1195 8.27446C19.0852 8.2418 19.0445 8.21647 19 8.2C18.9706 8.18507 18.938 8.17728 18.905 8.17728C18.872 8.17728 18.8395 8.18507 18.81 8.2L18.47 8.31C17.8949 8.49982 17.2822 8.54712 16.6848 8.44783C16.0873 8.34855 15.5229 8.10564 15.04 7.74L15 7.65C14.5367 7.29912 14.161 6.84561 13.9025 6.32509C13.644 5.80456 13.5096 5.23119 13.51 4.65V4.34C13.5118 4.24362 13.476 4.15033 13.41 4.08C13.3525 4.02801 13.2776 3.99946 13.2 4H10.66C10.6193 4.00254 10.5795 4.01311 10.5428 4.03109C10.5062 4.04906 10.4734 4.0741 10.4465 4.10476C10.4195 4.13542 10.3989 4.1711 10.3858 4.20976C10.3727 4.24841 10.3673 4.28927 10.37 4.33V4.58C10.37 5.17703 10.233 5.76608 9.96945 6.3018C9.70592 6.83752 9.32296 7.3056 8.85004 7.67L8.72004 7.77C8.20976 8.15851 7.61176 8.41553 6.97873 8.51842C6.3457 8.62131 5.69708 8.5669 5.09003 8.36C5.04461 8.34476 4.99546 8.34476 4.95003 8.36C4.8936 8.39429 4.8511 8.44741 4.83003 8.51L4.00003 11.12C3.9711 11.2089 3.97788 11.3056 4.01894 11.3895C4.06 11.4735 4.13211 11.5382 4.22003 11.57L4.40003 11.62Z"/>
</mask>
<path d="M8.61003 22C8.12206 21.9971 7.64825 21.8357 7.26004 21.54L5.19003 20C4.71234 19.6276 4.39539 19.0863 4.30426 18.4875C4.21314 17.8887 4.35476 17.2777 4.70003 16.78C4.88272 16.5102 4.99883 16.201 5.03881 15.8777C5.07879 15.5543 5.04151 15.2261 4.93003 14.92L4.87003 14.76C4.79241 14.4829 4.65054 14.228 4.45594 14.0161C4.26134 13.8041 4.01949 13.641 3.75003 13.54H3.59003C3.00591 13.3436 2.52284 12.9247 2.24574 12.3742C1.96864 11.8237 1.91988 11.1862 2.11003 10.6L2.93003 8C3.04154 7.5566 3.28962 7.15948 3.6392 6.86482C3.98879 6.57015 4.42216 6.39285 4.87803 6.358C5.16703 6.338 5.45703 6.375 5.73003 6.47C6.02792 6.57025 6.34578 6.59624 6.65599 6.5457C6.9662 6.49516 7.25938 6.36962 7.51004 6.18L7.64003 6.08C7.86693 5.89895 8.05031 5.6693 8.17665 5.40796C8.30299 5.14663 8.36907 4.86027 8.37003 4.57V4.33C8.36735 3.71813 8.60648 3.12997 9.03538 2.69358C9.46428 2.25719 10.0482 2.00791 10.66 2H13.21C13.5077 2.0008 13.8023 2.0604 14.0769 2.17538C14.3515 2.29036 14.6006 2.45845 14.81 2.67C15.2503 3.11779 15.4949 3.72202 15.49 4.35V4.63C15.485 4.90575 15.5448 5.17884 15.6646 5.42723C15.7845 5.67562 15.961 5.89237 16.18 6.06L16.29 6.14C16.5145 6.3083 16.7763 6.41984 17.0531 6.46511C17.33 6.51039 17.6137 6.48805 17.88 6.4L18.22 6.29C18.5081 6.19451 18.8124 6.15802 19.1149 6.1827C19.4174 6.20737 19.7118 6.29272 19.9806 6.43364C20.2493 6.57456 20.487 6.76817 20.6793 7.00292C20.8717 7.23767 21.0147 7.50876 21.1 7.8L21.89 10.32C22.0728 10.9024 22.0229 11.533 21.7506 12.0793C21.4784 12.6256 21.0051 13.0452 20.43 13.25L20.23 13.32C19.9359 13.4163 19.6699 13.5834 19.4554 13.8066C19.2409 14.0298 19.0846 14.3022 19 14.6C18.9204 14.8768 18.9015 15.1675 18.9446 15.4523C18.9878 15.7371 19.0919 16.0092 19.25 16.25L19.51 16.63C19.8548 17.1304 19.9951 17.7438 19.9022 18.3444C19.8092 18.945 19.49 19.4872 19.01 19.86L17 21.41C16.7571 21.5954 16.4788 21.7292 16.1823 21.8032C15.8857 21.8771 15.5772 21.8897 15.2756 21.84C14.9741 21.7904 14.6858 21.6796 14.4286 21.5145C14.1715 21.3494 13.9507 21.1335 13.78 20.88L13.66 20.71C13.4963 20.4639 13.2728 20.2632 13.0105 20.1268C12.7482 19.9904 12.4556 19.9227 12.16 19.93C11.878 19.9373 11.6017 20.0108 11.3533 20.1445C11.1049 20.2783 10.8914 20.4686 10.73 20.7L10.5 21.03C10.3294 21.2855 10.1083 21.5033 9.85037 21.6702C9.5924 21.837 9.30302 21.9492 9.00003 22C8.87035 22.0127 8.73972 22.0127 8.61003 22ZM4.40003 11.62C4.96473 11.8214 5.47426 12.1525 5.88763 12.5867C6.30101 13.0209 6.60667 13.5461 6.78004 14.12V14.24C6.99597 14.8366 7.06687 15.4761 6.98689 16.1055C6.9069 16.735 6.67833 17.3363 6.32003 17.86C6.25679 17.9299 6.22177 18.0208 6.22177 18.115C6.22177 18.2092 6.25679 18.3001 6.32003 18.37L8.47004 20C8.49815 20.0219 8.53059 20.0375 8.56521 20.0459C8.59983 20.0543 8.63584 20.0552 8.67084 20.0485C8.70584 20.0419 8.73902 20.0279 8.7682 20.0075C8.79737 19.987 8.82186 19.9606 8.84003 19.93L9.07003 19.6C9.41692 19.0988 9.88018 18.6891 10.4201 18.4062C10.96 18.1232 11.5605 17.9754 12.17 17.9754C12.7796 17.9754 13.3801 18.1232 13.92 18.4062C14.4599 18.6891 14.9231 19.0988 15.27 19.6L15.39 19.78C15.433 19.841 15.4972 19.8838 15.57 19.9C15.6034 19.9049 15.6375 19.903 15.6702 19.8944C15.7028 19.8859 15.7334 19.8707 15.76 19.85L17.82 18.29C17.8921 18.2328 17.9396 18.1501 17.9526 18.0589C17.9656 17.9678 17.9432 17.8751 17.89 17.8L17.63 17.42C17.2913 16.926 17.0678 16.3622 16.976 15.7703C16.8843 15.1783 16.9267 14.5734 17.1 14C17.2758 13.3974 17.5937 12.8458 18.027 12.3916C18.4603 11.9374 18.9963 11.5939 19.59 11.39L19.79 11.32C19.8734 11.2866 19.9401 11.2216 19.9757 11.1392C20.0113 11.0567 20.0129 10.9636 19.98 10.88L19.2 8.39C19.1813 8.34643 19.1539 8.30713 19.1195 8.27446C19.0852 8.2418 19.0445 8.21647 19 8.2C18.9706 8.18507 18.938 8.17728 18.905 8.17728C18.872 8.17728 18.8395 8.18507 18.81 8.2L18.47 8.31C17.8949 8.49982 17.2822 8.54712 16.6848 8.44783C16.0873 8.34855 15.5229 8.10564 15.04 7.74L15 7.65C14.5367 7.29912 14.161 6.84561 13.9025 6.32509C13.644 5.80456 13.5096 5.23119 13.51 4.65V4.34C13.5118 4.24362 13.476 4.15033 13.41 4.08C13.3525 4.02801 13.2776 3.99946 13.2 4H10.66C10.6193 4.00254 10.5795 4.01311 10.5428 4.03109C10.5062 4.04906 10.4734 4.0741 10.4465 4.10476C10.4195 4.13542 10.3989 4.1711 10.3858 4.20976C10.3727 4.24841 10.3673 4.28927 10.37 4.33V4.58C10.37 5.17703 10.233 5.76608 9.96945 6.3018C9.70592 6.83752 9.32296 7.3056 8.85004 7.67L8.72004 7.77C8.20976 8.15851 7.61176 8.41553 6.97873 8.51842C6.3457 8.62131 5.69708 8.5669 5.09003 8.36C5.04461 8.34476 4.99546 8.34476 4.95003 8.36C4.8936 8.39429 4.8511 8.44741 4.83003 8.51L4.00003 11.12C3.9711 11.2089 3.97788 11.3056 4.01894 11.3895C4.06 11.4735 4.13211 11.5382 4.22003 11.57L4.40003 11.62Z" fill="#D84C10" stroke="#D84C10" stroke-width="2" mask="url(#path-1-inside-1_501_5980)"/>
<path d="M12 15.5C11.5404 15.5 11.0852 15.4095 10.6606 15.2336C10.236 15.0577 9.85013 14.7999 9.52513 14.4749C9.20012 14.1499 8.94231 13.764 8.76642 13.3394C8.59053 12.9148 8.5 12.4596 8.5 12C8.5 11.5404 8.59053 11.0852 8.76642 10.6606C8.94231 10.236 9.20012 9.85013 9.52513 9.52513C9.85013 9.20012 10.236 8.94231 10.6606 8.76642C11.0852 8.59053 11.5404 8.5 12 8.5C12.9283 8.5 13.8185 8.86875 14.4749 9.52513C15.1313 10.1815 15.5 11.0717 15.5 12C15.5 12.9283 15.1313 13.8185 14.4749 14.4749C13.8185 15.1313 12.9283 15.5 12 15.5ZM12 10.5C11.6022 10.5 11.2206 10.658 10.9393 10.9393C10.658 11.2206 10.5 11.6022 10.5 12C10.5 12.3978 10.658 12.7794 10.9393 13.0607C11.2206 13.342 11.6022 13.5 12 13.5C12.3978 13.5 12.7794 13.342 13.0607 13.0607C13.342 12.7794 13.5 12.3978 13.5 12C13.5 11.6022 13.342 11.2206 13.0607 10.9393C12.7794 10.658 12.3978 10.5 12 10.5Z" fill="#D84C10"/>
</svg>
