<svg width="20" height="20" viewBox="0 0 20 20" fill="none" xmlns="http://www.w3.org/2000/svg">
<path d="M10 11.25C10.3315 11.25 10.6495 11.1183 10.8839 10.8839C11.1183 10.6495 11.25 10.3315 11.25 10C11.25 9.66848 11.1183 9.35054 10.8839 9.11612C10.6495 8.8817 10.3315 8.75 10 8.75C9.66848 8.75 9.35054 8.8817 9.11612 9.11612C8.8817 9.35054 8.75 9.66848 8.75 10C8.75 10.3315 8.8817 10.6495 9.11612 10.8839C9.35054 11.1183 9.66848 11.25 10 11.25Z" fill="#6C7275"/>
<path d="M18.2417 8.60033L17.5834 6.50033C17.5123 6.25762 17.393 6.03172 17.2328 5.83609C17.0725 5.64047 16.8745 5.47913 16.6505 5.36169C16.4265 5.24426 16.1812 5.17314 15.9291 5.15257C15.677 5.13201 15.4234 5.16242 15.1834 5.24199L14.9 5.33366C14.6781 5.40703 14.4417 5.42565 14.2109 5.38792C13.9802 5.35019 13.7621 5.25724 13.575 5.11699L13.4834 5.05033C13.3009 4.91064 13.1537 4.73001 13.0538 4.52302C12.954 4.31602 12.9041 4.08845 12.9084 3.85866V3.62533C12.9124 3.10201 12.7086 2.59848 12.3417 2.22533C12.1672 2.04904 11.9595 1.90896 11.7307 1.81314C11.5019 1.71733 11.2564 1.66766 11.0084 1.66699H8.88336C8.37351 1.67358 7.8869 1.88132 7.52949 2.24498C7.17207 2.60864 6.97279 3.09877 6.97503 3.60866V3.80866C6.97423 4.05055 6.91916 4.28918 6.81387 4.50696C6.70859 4.72474 6.55577 4.91612 6.3667 5.06699L6.25836 5.15033C6.04948 5.30834 5.80517 5.41296 5.54666 5.45507C5.28815 5.49719 5.02327 5.47554 4.77503 5.39199C4.54704 5.3131 4.30542 5.28128 4.06478 5.29847C3.82414 5.31566 3.58949 5.38149 3.37503 5.49199C3.15174 5.60281 2.95365 5.7584 2.79308 5.94908C2.63251 6.13975 2.5129 6.36143 2.4417 6.60033L1.75836 8.76699C1.5999 9.25549 1.64054 9.78678 1.87145 10.2455C2.10237 10.7042 2.50492 11.0533 2.9917 11.217H3.12503C3.34958 11.3011 3.55112 11.4371 3.71329 11.6137C3.87545 11.7904 3.99368 12.0028 4.05836 12.2337L4.10836 12.367C4.20126 12.6221 4.23232 12.8956 4.19901 13.1651C4.16569 13.4345 4.06894 13.6922 3.9167 13.917C3.60854 14.3367 3.47856 14.861 3.55503 15.376C3.6315 15.891 3.90823 16.355 4.32503 16.667L6.05003 17.9753C6.37666 18.2128 6.77123 18.3385 7.17503 18.3337C7.2831 18.3442 7.39195 18.3442 7.50003 18.3337C7.75012 18.2853 7.98772 18.1864 8.19833 18.0431C8.40894 17.8998 8.58816 17.7152 8.72503 17.5003L8.9167 17.2253C9.05115 17.0325 9.22905 16.8739 9.43605 16.7625C9.64304 16.651 9.87334 16.5897 10.1084 16.5837C10.3547 16.5776 10.5985 16.634 10.8171 16.7477C11.0357 16.8614 11.2219 17.0285 11.3584 17.2337L11.4584 17.3753C11.6004 17.5868 11.7843 17.7669 11.9986 17.9046C12.213 18.0423 12.4532 18.1347 12.7046 18.1761C12.9559 18.2175 13.2131 18.207 13.4603 18.1452C13.7074 18.0834 13.9393 17.9718 14.1417 17.817L15.8334 16.5503C16.2333 16.2397 16.4993 15.7878 16.5768 15.2873C16.6543 14.7868 16.5374 14.2757 16.25 13.8587L16.0334 13.542C15.9031 13.3407 15.8178 13.1136 15.7832 12.8763C15.7487 12.639 15.7658 12.3971 15.8334 12.167C15.9021 11.9207 16.0299 11.6948 16.2056 11.5089C16.3813 11.3231 16.5996 11.1828 16.8417 11.1003L17.0084 11.042C17.4906 10.8746 17.8889 10.5263 18.1191 10.0707C18.3492 9.61507 18.3932 9.08779 18.2417 8.60033ZM10 12.917C9.61701 12.917 9.23774 12.8416 8.88387 12.695C8.53 12.5484 8.20847 12.3336 7.93763 12.0627C7.6668 11.7919 7.45196 11.4704 7.30538 11.1165C7.1588 10.7626 7.08336 10.3833 7.08336 10.0003C7.08336 9.6173 7.1588 9.23803 7.30538 8.88417C7.45196 8.5303 7.6668 8.20877 7.93763 7.93793C8.20847 7.66709 8.53 7.45225 8.88387 7.30568C9.23774 7.1591 9.61701 7.08366 10 7.08366C10.7736 7.08366 11.5154 7.39095 12.0624 7.93793C12.6094 8.48491 12.9167 9.22678 12.9167 10.0003C12.9167 10.7739 12.6094 11.5157 12.0624 12.0627C11.5154 12.6097 10.7736 12.917 10 12.917Z" fill="#6C7275"/>
</svg>
