<svg width="24" height="24" viewBox="0 0 24 24" fill="none" xmlns="http://www.w3.org/2000/svg">
<mask id="path-1-inside-1_501_6298" fill="white">
<path d="M8.60979 22C8.12181 21.9971 7.648 21.8357 7.25979 21.54L5.18979 20C4.7121 19.6276 4.39515 19.0863 4.30402 18.4875C4.21289 17.8887 4.35451 17.2777 4.69979 16.78C4.88248 16.5102 4.99858 16.201 5.03856 15.8777C5.07855 15.5543 5.04127 15.2261 4.92979 14.92L4.86979 14.76C4.79217 14.4829 4.6503 14.228 4.4557 14.0161C4.2611 13.8041 4.01925 13.641 3.74979 13.54H3.58979C3.00566 13.3436 2.5226 12.9247 2.2455 12.3742C1.9684 11.8237 1.91963 11.1862 2.10979 10.6L2.92979 8C3.04129 7.5566 3.28938 7.15948 3.63896 6.86482C3.98854 6.57015 4.42192 6.39285 4.87779 6.358C5.16679 6.338 5.45679 6.375 5.72979 6.47C6.02767 6.57025 6.34554 6.59624 6.65575 6.5457C6.96596 6.49516 7.25913 6.36962 7.50979 6.18L7.63979 6.08C7.86669 5.89895 8.05006 5.6693 8.1764 5.40796C8.30274 5.14663 8.36883 4.86027 8.36979 4.57V4.33C8.3671 3.71813 8.60624 3.12997 9.03514 2.69358C9.46404 2.25719 10.048 2.00791 10.6598 2H13.2098C13.5075 2.0008 13.8021 2.0604 14.0766 2.17538C14.3512 2.29036 14.6004 2.45845 14.8098 2.67C15.2501 3.11779 15.4947 3.72202 15.4898 4.35V4.63C15.4847 4.90575 15.5445 5.17884 15.6644 5.42723C15.7842 5.67562 15.9608 5.89237 16.1798 6.06L16.2898 6.14C16.5142 6.3083 16.776 6.41984 17.0529 6.46511C17.3297 6.51039 17.6134 6.48805 17.8798 6.4L18.2198 6.29C18.5079 6.19451 18.8122 6.15802 19.1147 6.1827C19.4171 6.20737 19.7116 6.29272 19.9803 6.43364C20.2491 6.57456 20.4867 6.76817 20.6791 7.00292C20.8714 7.23767 21.0145 7.50876 21.0998 7.8L21.8898 10.32C22.0726 10.9024 22.0226 11.533 21.7504 12.0793C21.4782 12.6256 21.0048 13.0452 20.4298 13.25L20.2298 13.32C19.9356 13.4163 19.6696 13.5834 19.4552 13.8066C19.2407 14.0298 19.0843 14.3022 18.9998 14.6C18.9201 14.8768 18.9012 15.1675 18.9444 15.4523C18.9875 15.7371 19.0917 16.0092 19.2498 16.25L19.5098 16.63C19.8546 17.1304 19.9949 17.7438 19.9019 18.3444C19.809 18.945 19.4898 19.4872 19.0098 19.86L16.9998 21.41C16.7568 21.5954 16.4786 21.7292 16.182 21.8032C15.8855 21.8771 15.577 21.8897 15.2754 21.84C14.9738 21.7904 14.6856 21.6796 14.4284 21.5145C14.1712 21.3494 13.9505 21.1335 13.7798 20.88L13.6598 20.71C13.496 20.4639 13.2725 20.2632 13.0102 20.1268C12.7479 19.9904 12.4553 19.9227 12.1598 19.93C11.8778 19.9373 11.6014 20.0108 11.353 20.1445C11.1046 20.2783 10.8911 20.4686 10.7298 20.7L10.4998 21.03C10.3292 21.2855 10.1081 21.5033 9.85013 21.6702C9.59216 21.837 9.30277 21.9492 8.99979 22C8.8701 22.0127 8.73948 22.0127 8.60979 22ZM4.39979 11.62C4.96448 11.8214 5.47402 12.1525 5.88739 12.5867C6.30076 13.0209 6.60643 13.5461 6.77979 14.12V14.24C6.99573 14.8366 7.06663 15.4761 6.98664 16.1055C6.90666 16.735 6.67808 17.3363 6.31979 17.86C6.25655 17.9299 6.22153 18.0208 6.22153 18.115C6.22153 18.2092 6.25655 18.3001 6.31979 18.37L8.46979 20C8.4979 20.0219 8.53035 20.0375 8.56497 20.0459C8.59959 20.0543 8.6356 20.0552 8.67059 20.0485C8.70559 20.0419 8.73878 20.0279 8.76795 20.0075C8.79712 19.987 8.82161 19.9606 8.83979 19.93L9.06979 19.6C9.41668 19.0988 9.87993 18.6891 10.4198 18.4062C10.9598 18.1232 11.5602 17.9754 12.1698 17.9754C12.7794 17.9754 13.3798 18.1232 13.9197 18.4062C14.4596 18.6891 14.9229 19.0988 15.2698 19.6L15.3898 19.78C15.4328 19.841 15.497 19.8838 15.5698 19.9C15.6032 19.9049 15.6373 19.903 15.6699 19.8944C15.7026 19.8859 15.7331 19.8707 15.7598 19.85L17.8198 18.29C17.8919 18.2328 17.9393 18.1501 17.9524 18.0589C17.9654 17.9678 17.943 17.8751 17.8898 17.8L17.6298 17.42C17.291 16.926 17.0675 16.3622 16.9758 15.7703C16.884 15.1783 16.9264 14.5734 17.0998 14C17.2755 13.3974 17.5934 12.8458 18.0267 12.3916C18.46 11.9374 18.9961 11.5939 19.5898 11.39L19.7898 11.32C19.8731 11.2866 19.9399 11.2216 19.9755 11.1392C20.0111 11.0567 20.0126 10.9636 19.9798 10.88L19.1998 8.39C19.1811 8.34643 19.1537 8.30713 19.1193 8.27446C19.0849 8.2418 19.0443 8.21647 18.9998 8.2C18.9703 8.18507 18.9378 8.17728 18.9048 8.17728C18.8718 8.17728 18.8392 8.18507 18.8098 8.2L18.4698 8.31C17.8946 8.49982 17.282 8.54712 16.6845 8.44783C16.0871 8.34855 15.5226 8.10564 15.0398 7.74L14.9998 7.65C14.5365 7.29912 14.1608 6.84561 13.9023 6.32509C13.6437 5.80456 13.5094 5.23119 13.5098 4.65V4.34C13.5116 4.24362 13.4757 4.15033 13.4098 4.08C13.3523 4.02801 13.2773 3.99946 13.1998 4H10.6598C10.6191 4.00254 10.5792 4.01311 10.5426 4.03109C10.5059 4.04906 10.4732 4.0741 10.4462 4.10476C10.4193 4.13542 10.3987 4.1711 10.3856 4.20976C10.3724 4.24841 10.3671 4.28927 10.3698 4.33V4.58C10.3698 5.17703 10.2327 5.76608 9.96921 6.3018C9.70568 6.83752 9.32271 7.3056 8.84979 7.67L8.71979 7.77C8.20952 8.15851 7.61152 8.41553 6.97849 8.51842C6.34546 8.62131 5.69684 8.5669 5.08979 8.36C5.04437 8.34476 4.99521 8.34476 4.94979 8.36C4.89335 8.39429 4.85085 8.44741 4.82979 8.51L3.99979 11.12C3.97086 11.2089 3.97764 11.3056 4.0187 11.3895C4.05975 11.4735 4.13187 11.5382 4.21979 11.57L4.39979 11.62Z"/>
</mask>
<path d="M8.60979 22C8.12181 21.9971 7.648 21.8357 7.25979 21.54L5.18979 20C4.7121 19.6276 4.39515 19.0863 4.30402 18.4875C4.21289 17.8887 4.35451 17.2777 4.69979 16.78C4.88248 16.5102 4.99858 16.201 5.03856 15.8777C5.07855 15.5543 5.04127 15.2261 4.92979 14.92L4.86979 14.76C4.79217 14.4829 4.6503 14.228 4.4557 14.0161C4.2611 13.8041 4.01925 13.641 3.74979 13.54H3.58979C3.00566 13.3436 2.5226 12.9247 2.2455 12.3742C1.9684 11.8237 1.91963 11.1862 2.10979 10.6L2.92979 8C3.04129 7.5566 3.28938 7.15948 3.63896 6.86482C3.98854 6.57015 4.42192 6.39285 4.87779 6.358C5.16679 6.338 5.45679 6.375 5.72979 6.47C6.02767 6.57025 6.34554 6.59624 6.65575 6.5457C6.96596 6.49516 7.25913 6.36962 7.50979 6.18L7.63979 6.08C7.86669 5.89895 8.05006 5.6693 8.1764 5.40796C8.30274 5.14663 8.36883 4.86027 8.36979 4.57V4.33C8.3671 3.71813 8.60624 3.12997 9.03514 2.69358C9.46404 2.25719 10.048 2.00791 10.6598 2H13.2098C13.5075 2.0008 13.8021 2.0604 14.0766 2.17538C14.3512 2.29036 14.6004 2.45845 14.8098 2.67C15.2501 3.11779 15.4947 3.72202 15.4898 4.35V4.63C15.4847 4.90575 15.5445 5.17884 15.6644 5.42723C15.7842 5.67562 15.9608 5.89237 16.1798 6.06L16.2898 6.14C16.5142 6.3083 16.776 6.41984 17.0529 6.46511C17.3297 6.51039 17.6134 6.48805 17.8798 6.4L18.2198 6.29C18.5079 6.19451 18.8122 6.15802 19.1147 6.1827C19.4171 6.20737 19.7116 6.29272 19.9803 6.43364C20.2491 6.57456 20.4867 6.76817 20.6791 7.00292C20.8714 7.23767 21.0145 7.50876 21.0998 7.8L21.8898 10.32C22.0726 10.9024 22.0226 11.533 21.7504 12.0793C21.4782 12.6256 21.0048 13.0452 20.4298 13.25L20.2298 13.32C19.9356 13.4163 19.6696 13.5834 19.4552 13.8066C19.2407 14.0298 19.0843 14.3022 18.9998 14.6C18.9201 14.8768 18.9012 15.1675 18.9444 15.4523C18.9875 15.7371 19.0917 16.0092 19.2498 16.25L19.5098 16.63C19.8546 17.1304 19.9949 17.7438 19.9019 18.3444C19.809 18.945 19.4898 19.4872 19.0098 19.86L16.9998 21.41C16.7568 21.5954 16.4786 21.7292 16.182 21.8032C15.8855 21.8771 15.577 21.8897 15.2754 21.84C14.9738 21.7904 14.6856 21.6796 14.4284 21.5145C14.1712 21.3494 13.9505 21.1335 13.7798 20.88L13.6598 20.71C13.496 20.4639 13.2725 20.2632 13.0102 20.1268C12.7479 19.9904 12.4553 19.9227 12.1598 19.93C11.8778 19.9373 11.6014 20.0108 11.353 20.1445C11.1046 20.2783 10.8911 20.4686 10.7298 20.7L10.4998 21.03C10.3292 21.2855 10.1081 21.5033 9.85013 21.6702C9.59216 21.837 9.30277 21.9492 8.99979 22C8.8701 22.0127 8.73948 22.0127 8.60979 22ZM4.39979 11.62C4.96448 11.8214 5.47402 12.1525 5.88739 12.5867C6.30076 13.0209 6.60643 13.5461 6.77979 14.12V14.24C6.99573 14.8366 7.06663 15.4761 6.98664 16.1055C6.90666 16.735 6.67808 17.3363 6.31979 17.86C6.25655 17.9299 6.22153 18.0208 6.22153 18.115C6.22153 18.2092 6.25655 18.3001 6.31979 18.37L8.46979 20C8.4979 20.0219 8.53035 20.0375 8.56497 20.0459C8.59959 20.0543 8.6356 20.0552 8.67059 20.0485C8.70559 20.0419 8.73878 20.0279 8.76795 20.0075C8.79712 19.987 8.82161 19.9606 8.83979 19.93L9.06979 19.6C9.41668 19.0988 9.87993 18.6891 10.4198 18.4062C10.9598 18.1232 11.5602 17.9754 12.1698 17.9754C12.7794 17.9754 13.3798 18.1232 13.9197 18.4062C14.4596 18.6891 14.9229 19.0988 15.2698 19.6L15.3898 19.78C15.4328 19.841 15.497 19.8838 15.5698 19.9C15.6032 19.9049 15.6373 19.903 15.6699 19.8944C15.7026 19.8859 15.7331 19.8707 15.7598 19.85L17.8198 18.29C17.8919 18.2328 17.9393 18.1501 17.9524 18.0589C17.9654 17.9678 17.943 17.8751 17.8898 17.8L17.6298 17.42C17.291 16.926 17.0675 16.3622 16.9758 15.7703C16.884 15.1783 16.9264 14.5734 17.0998 14C17.2755 13.3974 17.5934 12.8458 18.0267 12.3916C18.46 11.9374 18.9961 11.5939 19.5898 11.39L19.7898 11.32C19.8731 11.2866 19.9399 11.2216 19.9755 11.1392C20.0111 11.0567 20.0126 10.9636 19.9798 10.88L19.1998 8.39C19.1811 8.34643 19.1537 8.30713 19.1193 8.27446C19.0849 8.2418 19.0443 8.21647 18.9998 8.2C18.9703 8.18507 18.9378 8.17728 18.9048 8.17728C18.8718 8.17728 18.8392 8.18507 18.8098 8.2L18.4698 8.31C17.8946 8.49982 17.282 8.54712 16.6845 8.44783C16.0871 8.34855 15.5226 8.10564 15.0398 7.74L14.9998 7.65C14.5365 7.29912 14.1608 6.84561 13.9023 6.32509C13.6437 5.80456 13.5094 5.23119 13.5098 4.65V4.34C13.5116 4.24362 13.4757 4.15033 13.4098 4.08C13.3523 4.02801 13.2773 3.99946 13.1998 4H10.6598C10.6191 4.00254 10.5792 4.01311 10.5426 4.03109C10.5059 4.04906 10.4732 4.0741 10.4462 4.10476C10.4193 4.13542 10.3987 4.1711 10.3856 4.20976C10.3724 4.24841 10.3671 4.28927 10.3698 4.33V4.58C10.3698 5.17703 10.2327 5.76608 9.96921 6.3018C9.70568 6.83752 9.32271 7.3056 8.84979 7.67L8.71979 7.77C8.20952 8.15851 7.61152 8.41553 6.97849 8.51842C6.34546 8.62131 5.69684 8.5669 5.08979 8.36C5.04437 8.34476 4.99521 8.34476 4.94979 8.36C4.89335 8.39429 4.85085 8.44741 4.82979 8.51L3.99979 11.12C3.97086 11.2089 3.97764 11.3056 4.0187 11.3895C4.05975 11.4735 4.13187 11.5382 4.21979 11.57L4.39979 11.62Z" fill="#D84C10" stroke="#D84C10" stroke-width="2" mask="url(#path-1-inside-1_501_6298)"/>
<path d="M12 15.5C11.5404 15.5 11.0852 15.4095 10.6606 15.2336C10.236 15.0577 9.85013 14.7999 9.52513 14.4749C9.20012 14.1499 8.94231 13.764 8.76642 13.3394C8.59053 12.9148 8.5 12.4596 8.5 12C8.5 11.5404 8.59053 11.0852 8.76642 10.6606C8.94231 10.236 9.20012 9.85013 9.52513 9.52513C9.85013 9.20012 10.236 8.94231 10.6606 8.76642C11.0852 8.59053 11.5404 8.5 12 8.5C12.9283 8.5 13.8185 8.86875 14.4749 9.52513C15.1313 10.1815 15.5 11.0717 15.5 12C15.5 12.9283 15.1313 13.8185 14.4749 14.4749C13.8185 15.1313 12.9283 15.5 12 15.5ZM12 10.5C11.6022 10.5 11.2206 10.658 10.9393 10.9393C10.658 11.2206 10.5 11.6022 10.5 12C10.5 12.3978 10.658 12.7794 10.9393 13.0607C11.2206 13.342 11.6022 13.5 12 13.5C12.3978 13.5 12.7794 13.342 13.0607 13.0607C13.342 12.7794 13.5 12.3978 13.5 12C13.5 11.6022 13.342 11.2206 13.0607 10.9393C12.7794 10.658 12.3978 10.5 12 10.5Z" fill="#D84C10"/>
</svg>
