<svg width="60" height="60" viewBox="0 0 60 60" fill="none" xmlns="http://www.w3.org/2000/svg">
<g clip-path="url(#clip0_501_3521)">
<rect width="60" height="60" rx="10" fill="#00A1F6"/>
<path d="M47 19.1486C46.7726 19.6287 46.3493 20.2352 45.7302 20.968C45.1111 21.7007 44.3468 22.3451 43.437 22.9011C43.4623 23.1032 43.4813 23.2927 43.4939 23.4696C43.592 26.193 42.9396 29.0186 42.0346 31.3726C40.2802 35.7494 37.592 39.2718 33.7525 41.6636C29.7486 43.9602 25.0856 44.4487 20.7893 44.0326C17.9371 43.705 15.1259 42.7737 13 41.0192C16.8883 41.484 20.517 40.1613 23.3857 38.0248C20.199 38.1054 17.8836 35.8002 16.7904 33.1351C17.2832 33.2643 17.7988 33.2487 18.2687 33.211C18.8471 33.1566 19.3963 33.1024 19.9365 32.9836C17.9045 32.328 16.1265 31.1228 15.1985 29.3068C14.6541 28.1562 14.4083 27.0605 14.4025 25.8197C15.3546 26.321 16.5 26.8096 17.5485 26.7672C15.9649 25.4257 14.6954 23.7113 14.4594 21.7449C14.3104 20.1054 14.7206 18.6088 15.3122 17.2154C17.6811 19.8188 20.339 21.9613 23.4047 23.2801C25.5013 24.1386 27.592 24.5978 29.7537 24.6067C29.5042 22.6759 29.6982 20.8086 30.6066 19.2243C31.6756 17.5209 33.2353 16.5327 34.9845 16.0403C37.4874 15.3985 39.9286 16.3051 41.4661 18.0493C43.1242 17.8702 44.7126 17.1346 45.9767 16.3815C45.4396 18.0081 44.3936 19.6254 42.8686 20.3993C44.3206 20.1305 45.7061 19.7006 47 19.1486Z" fill="white"/>
</g>
<defs>
<clipPath id="clip0_501_3521">
<rect width="60" height="60" fill="white"/>
</clipPath>
</defs>
</svg>
