<svg width="60" height="60" viewBox="0 0 60 60" fill="none" xmlns="http://www.w3.org/2000/svg">
<g clip-path="url(#clip0_501_3475)">
<rect width="60" height="60" rx="10" fill="#45B058"/>
<path fill-rule="evenodd" clip-rule="evenodd" d="M33.4895 15H17.5455V44.9999H18.0001V45H43.0001V44.9999H43.4545V24.375L33.4895 15ZM41.4615 33.7499H19.5385V16.875H33.4895V24.375H41.4615V33.7499ZM26.3353 37.7509H24.592C24.5602 37.5417 24.4952 37.3558 24.397 37.1933C24.2988 37.0284 24.1728 36.8881 24.0189 36.7724C23.865 36.6567 23.6872 36.5681 23.4856 36.5065C23.2866 36.445 23.0703 36.4142 22.8368 36.4142C22.4149 36.4142 22.0475 36.5115 21.7344 36.7059C21.4213 36.8979 21.1785 37.1786 21.006 37.5478C20.8335 37.9146 20.7473 38.3602 20.7473 38.8845C20.7473 39.4236 20.8335 39.8766 21.006 40.2433C21.1811 40.6101 21.4252 40.8871 21.7383 41.0742C22.0514 41.2612 22.4136 41.3548 22.8249 41.3548C23.0557 41.3548 23.2693 41.3265 23.4657 41.2699C23.6647 41.2132 23.8411 41.1308 23.995 41.0225C24.1489 40.9117 24.2763 40.7775 24.3771 40.62C24.4806 40.4624 24.5522 40.2827 24.592 40.0809L26.3353 40.0883C26.2902 40.4354 26.1774 40.7701 25.997 41.0926C25.8192 41.4126 25.5791 41.6994 25.2766 41.953C24.9768 42.2041 24.6186 42.4035 24.202 42.5511C23.7881 42.6964 23.3197 42.769 22.797 42.769C22.07 42.769 21.4199 42.6164 20.8468 42.3111C20.2763 42.0059 19.8253 41.564 19.4936 40.9855C19.1646 40.407 19.0001 39.7067 19.0001 38.8845C19.0001 38.0598 19.1672 37.3583 19.5015 36.7798C19.8359 36.2013 20.2896 35.7607 20.8627 35.4579C21.4359 35.1526 22.0806 35 22.797 35C23.2693 35 23.7071 35.0615 24.1104 35.1846C24.5164 35.3077 24.8759 35.4874 25.189 35.7237C25.5021 35.9576 25.7569 36.2444 25.9532 36.5841C26.1522 36.9238 26.2796 37.3127 26.3353 37.7509ZM31.9929 37.2783C31.9611 36.9804 31.8244 36.749 31.583 36.5841C31.3415 36.4191 31.0138 36.3367 30.5999 36.3367C30.3187 36.3367 30.0812 36.3736 29.8875 36.4475C29.6938 36.5188 29.5452 36.6185 29.4417 36.7465C29.3409 36.8746 29.2905 37.0198 29.2905 37.1823C29.2852 37.3177 29.3157 37.4358 29.382 37.5367C29.451 37.6377 29.5452 37.7251 29.6646 37.7989C29.784 37.8703 29.922 37.9331 30.0785 37.9872C30.2351 38.0389 30.4022 38.0832 30.58 38.1202L31.3123 38.2826C31.6679 38.3565 31.9943 38.4549 32.2914 38.578C32.5886 38.7011 32.846 38.8525 33.0636 39.0322C33.2811 39.2119 33.4496 39.4236 33.569 39.6673C33.6911 39.911 33.7534 40.1904 33.7561 40.5055C33.7534 40.9683 33.6261 41.3696 33.374 41.7093C33.1246 42.0465 32.7637 42.3087 32.2914 42.4958C31.8218 42.6804 31.2553 42.7727 30.5919 42.7727C29.9339 42.7727 29.3608 42.6792 28.8726 42.4921C28.387 42.305 28.0076 42.028 27.7343 41.6613C27.4636 41.292 27.3217 40.8354 27.3084 40.2913H28.976C28.9946 40.5449 29.0729 40.7566 29.2109 40.9265C29.3515 41.0938 29.5386 41.2206 29.7721 41.3068C30.0082 41.3905 30.2749 41.4323 30.572 41.4323C30.8639 41.4323 31.1173 41.3929 31.3322 41.3142C31.5498 41.2354 31.7183 41.1258 31.8377 40.9855C31.9571 40.8452 32.0168 40.684 32.0168 40.5018C32.0168 40.332 31.9624 40.1892 31.8536 40.0735C31.7475 39.9578 31.5909 39.8593 31.384 39.7781C31.1797 39.6969 30.9289 39.623 30.6317 39.5565L29.7442 39.3498C29.057 39.1947 28.5144 38.9522 28.1164 38.6223C27.7184 38.2925 27.5207 37.8481 27.5233 37.2893C27.5207 36.8315 27.652 36.4315 27.9174 36.0893C28.1853 35.7471 28.5528 35.48 29.0198 35.288C29.4868 35.096 30.0175 35 30.6118 35C31.2168 35 31.7448 35.096 32.1959 35.288C32.6496 35.48 33.0025 35.7471 33.2546 36.0893C33.5067 36.4315 33.6367 36.8278 33.6446 37.2783H31.9929ZM38.358 40.8489L36.3879 35.1034H34.4735L37.2874 42.6656H39.5082L42.3182 35.1034H40.4077L38.4336 40.8489H38.358Z" fill="white"/>
</g>
<defs>
<clipPath id="clip0_501_3475">
<rect width="60" height="60" fill="white"/>
</clipPath>
</defs>
</svg>
