<svg width="20" height="20" viewBox="0 0 20 20" fill="none" xmlns="http://www.w3.org/2000/svg">
<path d="M10.5916 9.41204C10.4358 9.25935 10.2264 9.17383 10.0083 9.17383C9.79014 9.17383 9.58071 9.25935 9.42494 9.41204L6.92494 11.8287C6.8385 11.9022 6.76801 11.9927 6.71779 12.0944C6.66757 12.1962 6.63869 12.3071 6.63291 12.4205C6.62714 12.5338 6.6446 12.6471 6.68421 12.7535C6.72383 12.8598 6.78476 12.9569 6.86328 13.0388C6.9418 13.1208 7.03623 13.1858 7.14079 13.2299C7.24535 13.274 7.35782 13.2962 7.47129 13.2953C7.58477 13.2943 7.69685 13.2702 7.80066 13.2244C7.90446 13.1785 7.9978 13.1119 8.07494 13.0287L9.1666 11.9704V16.6704C9.1666 16.8914 9.2544 17.1034 9.41068 17.2596C9.56696 17.4159 9.77892 17.5037 9.99994 17.5037C10.2209 17.5037 10.4329 17.4159 10.5892 17.2596C10.7455 17.1034 10.8333 16.8914 10.8333 16.6704V12.012L11.9083 13.0954C12.0053 13.1935 12.1251 13.2661 12.2571 13.3065C12.389 13.347 12.5289 13.3541 12.6643 13.3272C12.7997 13.3002 12.9262 13.2401 13.0326 13.1523C13.1391 13.0644 13.222 12.9515 13.2741 12.8237C13.3377 12.6708 13.3543 12.5023 13.3216 12.3399C13.2889 12.1775 13.2086 12.0285 13.0908 11.912L10.5908 9.41204H10.5916Z" fill="#FEFEFE"/>
<path d="M14.7249 5.83242C14.3849 4.84997 13.7471 3.99794 12.9002 3.39489C12.0533 2.79184 11.0395 2.46777 9.99991 2.46777C8.96028 2.46777 7.9465 2.79184 7.09963 3.39489C6.25277 3.99794 5.61495 4.84997 5.27491 5.83242C4.52621 5.9327 3.81884 6.23463 3.2285 6.70592C2.63815 7.1772 2.18703 7.8001 1.92338 8.508C1.65974 9.21589 1.5935 9.98214 1.73175 10.7248C1.87 11.4674 2.20753 12.1585 2.70825 12.7241C2.76873 12.8306 2.85196 12.9225 2.952 12.9932C3.05205 13.0639 3.16645 13.1117 3.28707 13.1331C3.40769 13.1546 3.53155 13.1492 3.64983 13.1173C3.76812 13.0854 3.87792 13.0278 3.97141 12.9487C4.06491 12.8695 4.1398 12.7707 4.19076 12.6593C4.24172 12.5479 4.26748 12.4266 4.26623 12.3041C4.26497 12.1816 4.23672 12.0609 4.18349 11.9506C4.13025 11.8402 4.05335 11.743 3.95825 11.6658C3.63584 11.3053 3.4249 10.8591 3.35099 10.3812C3.27707 9.90325 3.34336 9.41415 3.54181 8.97315C3.74026 8.53215 4.06236 8.15816 4.46907 7.89653C4.87579 7.6349 5.34965 7.49684 5.83325 7.49909H5.91658C6.11153 7.50302 6.3017 7.43846 6.45396 7.31665C6.60623 7.19484 6.71095 7.02349 6.74991 6.83242C6.90292 6.0789 7.31173 5.40144 7.90707 4.91484C8.50242 4.42823 9.24768 4.16241 10.0166 4.16241C10.7855 4.16241 11.5307 4.42823 12.1261 4.91484C12.7214 5.40144 13.1302 6.0789 13.2832 6.83242C13.3222 7.02349 13.4269 7.19484 13.5792 7.31665C13.7315 7.43846 13.9216 7.50302 14.1166 7.49909H14.1666C14.6502 7.49684 15.124 7.6349 15.5308 7.89653C15.9375 8.15816 16.2596 8.53215 16.458 8.97315C16.6565 9.41415 16.7228 9.90325 16.6488 10.3812C16.5749 10.8591 16.364 11.3053 16.0416 11.6658C15.9682 11.7481 15.9118 11.8441 15.8758 11.9484C15.8398 12.0527 15.8249 12.163 15.8319 12.2731C15.8389 12.3832 15.8676 12.4908 15.9165 12.5896C15.9654 12.6885 16.0334 12.7767 16.1166 12.8491C16.2824 12.9948 16.4993 13.0687 16.7196 13.0546C16.9399 13.0406 17.1456 12.9397 17.2916 12.7741C17.8062 12.2095 18.1556 11.5142 18.3018 10.7644C18.4479 10.0145 18.385 9.23894 18.1201 8.5224C17.8552 7.80586 17.3983 7.17595 16.7995 6.70153C16.2008 6.22712 15.4831 5.92646 14.7249 5.83242Z" fill="#FEFEFE"/>
</svg>
