<svg width="20" height="20" viewBox="0 0 20 20" fill="none" xmlns="http://www.w3.org/2000/svg">
<path d="M10.5916 9.41204C10.4358 9.25935 10.2264 9.17383 10.0083 9.17383C9.79014 9.17383 9.58071 9.25935 9.42494 9.41204L6.92494 11.8287C6.8385 11.9022 6.76801 11.9927 6.71779 12.0944C6.66757 12.1962 6.63869 12.3071 6.63291 12.4205C6.62714 12.5338 6.6446 12.6471 6.68421 12.7535C6.72383 12.8598 6.78476 12.9569 6.86328 13.0388C6.9418 13.1208 7.03623 13.1858 7.14079 13.2299C7.24535 13.274 7.35782 13.2962 7.47129 13.2953C7.58477 13.2943 7.69685 13.2702 7.80066 13.2244C7.90446 13.1785 7.9978 13.1119 8.07494 13.0287L9.1666 11.9704V16.6704C9.1666 16.8914 9.2544 17.1034 9.41068 17.2596C9.56696 17.4159 9.77892 17.5037 9.99994 17.5037C10.2209 17.5037 10.4329 17.4159 10.5892 17.2596C10.7455 17.1034 10.8333 16.8914 10.8333 16.6704V12.012L11.9083 13.0954C12.0053 13.1935 12.1251 13.2661 12.2571 13.3065C12.389 13.347 12.5289 13.3541 12.6643 13.3272C12.7997 13.3002 12.9262 13.2401 13.0326 13.1523C13.1391 13.0644 13.222 12.9515 13.2741 12.8237C13.3377 12.6708 13.3543 12.5023 13.3216 12.3399C13.2889 12.1775 13.2086 12.0285 13.0908 11.912L10.5908 9.41204H10.5916Z" fill="#FEFEFE"/>
<path d="M14.7252 5.83242C14.3851 4.84997 13.7473 3.99794 12.9004 3.39489C12.0536 2.79184 11.0398 2.46777 10.0002 2.46777C8.96052 2.46777 7.94674 2.79184 7.09988 3.39489C6.25302 3.99794 5.61519 4.84997 5.27516 5.83242C4.52645 5.9327 3.81909 6.23463 3.22874 6.70592C2.63839 7.1772 2.18727 7.8001 1.92363 8.508C1.65999 9.21589 1.59375 9.98214 1.732 10.7248C1.87024 11.4674 2.20778 12.1585 2.70849 12.7241C2.76897 12.8306 2.8522 12.9225 2.95225 12.9932C3.05229 13.0639 3.1667 13.1117 3.28731 13.1331C3.40793 13.1546 3.53179 13.1492 3.65008 13.1173C3.76836 13.0854 3.87816 13.0278 3.97166 12.9487C4.06515 12.8695 4.14005 12.7707 4.191 12.6593C4.24196 12.5479 4.26773 12.4266 4.26647 12.3041C4.26521 12.1816 4.23696 12.0609 4.18373 11.9506C4.1305 11.8402 4.05359 11.743 3.95849 11.6658C3.63609 11.3053 3.42514 10.8591 3.35123 10.3812C3.27732 9.90325 3.3436 9.41415 3.54205 8.97315C3.7405 8.53215 4.0626 8.15816 4.46932 7.89653C4.87603 7.6349 5.3499 7.49684 5.83349 7.49909H5.91682C6.11178 7.50302 6.30194 7.43846 6.45421 7.31665C6.60647 7.19484 6.7112 7.02349 6.75016 6.83242C6.90317 6.0789 7.31198 5.40144 7.90732 4.91484C8.50266 4.42823 9.24792 4.16241 10.0168 4.16241C10.7857 4.16241 11.531 4.42823 12.1263 4.91484C12.7217 5.40144 13.1305 6.0789 13.2835 6.83242C13.3224 7.02349 13.4272 7.19484 13.5794 7.31665C13.7317 7.43846 13.9219 7.50302 14.1168 7.49909H14.1668C14.6504 7.49684 15.1243 7.6349 15.531 7.89653C15.9377 8.15816 16.2598 8.53215 16.4583 8.97315C16.6567 9.41415 16.723 9.90325 16.6491 10.3812C16.5752 10.8591 16.3642 11.3053 16.0418 11.6658C15.9684 11.7481 15.9121 11.8441 15.8761 11.9484C15.8401 12.0527 15.8251 12.163 15.8321 12.2731C15.8391 12.3832 15.8679 12.4908 15.9167 12.5896C15.9656 12.6885 16.0336 12.7767 16.1168 12.8491C16.2827 12.9948 16.4995 13.0687 16.7198 13.0546C16.9401 13.0406 17.1458 12.9397 17.2918 12.7741C17.8064 12.2095 18.1559 11.5142 18.302 10.7644C18.4481 10.0145 18.3853 9.23894 18.1204 8.5224C17.8554 7.80586 17.3986 7.17595 16.7998 6.70153C16.201 6.22712 15.4833 5.92646 14.7252 5.83242Z" fill="#FEFEFE"/>
</svg>
