<svg width="20" height="20" viewBox="0 0 20 20" fill="none" xmlns="http://www.w3.org/2000/svg">
<path d="M10.5917 9.41204C10.4359 9.25935 10.2265 9.17383 10.0083 9.17383C9.7902 9.17383 9.58077 9.25935 9.425 9.41204L6.925 11.8287C6.83856 11.9022 6.76807 11.9927 6.71785 12.0944C6.66763 12.1962 6.63875 12.3071 6.63298 12.4205C6.6272 12.5338 6.64466 12.6471 6.68427 12.7535C6.72389 12.8598 6.78483 12.9569 6.86334 13.0388C6.94186 13.1208 7.0363 13.1858 7.14085 13.2299C7.24541 13.274 7.35788 13.2962 7.47136 13.2953C7.58483 13.2943 7.69691 13.2702 7.80072 13.2244C7.90452 13.1785 7.99786 13.1119 8.075 13.0287L9.16666 11.9704V16.6704C9.16666 16.8914 9.25446 17.1034 9.41074 17.2596C9.56702 17.4159 9.77898 17.5037 10 17.5037C10.221 17.5037 10.433 17.4159 10.5893 17.2596C10.7455 17.1034 10.8333 16.8914 10.8333 16.6704V12.012L11.9083 13.0954C12.0053 13.1935 12.1252 13.2661 12.2571 13.3065C12.3891 13.347 12.529 13.3541 12.6644 13.3272C12.7997 13.3002 12.9263 13.2401 13.0327 13.1523C13.1391 13.0644 13.2221 12.9515 13.2742 12.8237C13.3378 12.6708 13.3543 12.5023 13.3217 12.3399C13.289 12.1775 13.2086 12.0285 13.0908 11.912L10.5908 9.41204H10.5917Z" fill="#FEFEFE"/>
<path d="M14.725 5.83242C14.3849 4.84997 13.7471 3.99794 12.9003 3.39489C12.0534 2.79184 11.0396 2.46777 9.99997 2.46777C8.96034 2.46777 7.94656 2.79184 7.09969 3.39489C6.25283 3.99794 5.61501 4.84997 5.27497 5.83242C4.52627 5.9327 3.81891 6.23463 3.22856 6.70592C2.63821 7.1772 2.18709 7.8001 1.92345 8.508C1.6598 9.21589 1.59357 9.98214 1.73181 10.7248C1.87006 11.4674 2.20759 12.1585 2.70831 12.7241C2.76879 12.8306 2.85202 12.9225 2.95206 12.9932C3.05211 13.0639 3.16652 13.1117 3.28713 13.1331C3.40775 13.1546 3.53161 13.1492 3.64989 13.1173C3.76818 13.0854 3.87798 13.0278 3.97147 12.9487C4.06497 12.8695 4.13986 12.7707 4.19082 12.6593C4.24178 12.5479 4.26754 12.4266 4.26629 12.3041C4.26503 12.1816 4.23678 12.0609 4.18355 11.9506C4.13031 11.8402 4.05341 11.743 3.95831 11.6658C3.6359 11.3053 3.42496 10.8591 3.35105 10.3812C3.27713 9.90325 3.34342 9.41415 3.54187 8.97315C3.74032 8.53215 4.06242 8.15816 4.46913 7.89653C4.87585 7.6349 5.34971 7.49684 5.83331 7.49909H5.91664C6.1116 7.50302 6.30176 7.43846 6.45402 7.31665C6.60629 7.19484 6.71102 7.02349 6.74997 6.83242C6.90298 6.0789 7.31179 5.40144 7.90714 4.91484C8.50248 4.42823 9.24774 4.16241 10.0166 4.16241C10.7855 4.16241 11.5308 4.42823 12.1261 4.91484C12.7215 5.40144 13.1303 6.0789 13.2833 6.83242C13.3223 7.02349 13.427 7.19484 13.5793 7.31665C13.7315 7.43846 13.9217 7.50302 14.1166 7.49909H14.1666C14.6502 7.49684 15.1241 7.6349 15.5308 7.89653C15.9375 8.15816 16.2596 8.53215 16.4581 8.97315C16.6565 9.41415 16.7228 9.90325 16.6489 10.3812C16.575 10.8591 16.364 11.3053 16.0416 11.6658C15.9682 11.7481 15.9119 11.8441 15.8759 11.9484C15.8399 12.0527 15.825 12.163 15.8319 12.2731C15.8389 12.3832 15.8677 12.4908 15.9165 12.5896C15.9654 12.6885 16.0334 12.7767 16.1166 12.8491C16.2825 12.9948 16.4994 13.0687 16.7197 13.0546C16.9399 13.0406 17.1457 12.9397 17.2916 12.7741C17.8062 12.2095 18.1557 11.5142 18.3018 10.7644C18.448 10.0145 18.3851 9.23894 18.1202 8.5224C17.8552 7.80586 17.3984 7.17595 16.7996 6.70153C16.2008 6.22712 15.4831 5.92646 14.725 5.83242Z" fill="#FEFEFE"/>
</svg>
