<svg width="20" height="20" viewBox="0 0 20 20" fill="none" xmlns="http://www.w3.org/2000/svg">
<path d="M9.99996 9.16667C10.884 9.16667 11.7319 8.81548 12.357 8.19036C12.9821 7.56524 13.3333 6.71739 13.3333 5.83333C13.3333 4.94928 12.9821 4.10143 12.357 3.47631C11.7319 2.85119 10.884 2.5 9.99996 2.5C9.1159 2.5 8.26806 2.85119 7.64294 3.47631C7.01782 4.10143 6.66663 4.94928 6.66663 5.83333C6.66663 6.71739 7.01782 7.56524 7.64294 8.19036C8.26806 8.81548 9.1159 9.16667 9.99996 9.16667Z" fill="#6C7275"/>
<path d="M15 17.4997C15.221 17.4997 15.4329 17.4119 15.5892 17.2556C15.7455 17.0993 15.8333 16.8874 15.8333 16.6663C15.8333 15.9003 15.6824 15.1418 15.3893 14.434C15.0961 13.7263 14.6664 13.0832 14.1247 12.5416C13.5831 11.9999 12.94 11.5702 12.2323 11.277C11.5245 10.9839 10.766 10.833 9.99996 10.833C9.23391 10.833 8.47537 10.9839 7.76764 11.277C7.05991 11.5702 6.41684 11.9999 5.87517 12.5416C5.33349 13.0832 4.90381 13.7263 4.61066 14.434C4.31751 15.1418 4.16663 15.9003 4.16663 16.6663C4.16663 16.8874 4.25442 17.0993 4.4107 17.2556C4.56698 17.4119 4.77895 17.4997 4.99996 17.4997H15Z" fill="#6C7275"/>
</svg>
