<svg width="24" height="24" viewBox="0 0 24 24" fill="none" xmlns="http://www.w3.org/2000/svg">
<path d="M12 11C13.0609 11 14.0783 10.5786 14.8284 9.82843C15.5786 9.07828 16 8.06087 16 7C16 5.93913 15.5786 4.92172 14.8284 4.17157C14.0783 3.42143 13.0609 3 12 3C10.9391 3 9.92172 3.42143 9.17157 4.17157C8.42143 4.92172 8 5.93913 8 7C8 8.06087 8.42143 9.07828 9.17157 9.82843C9.92172 10.5786 10.9391 11 12 11Z" fill="#6C7275"/>
<path d="M18 21C18.2652 21 18.5196 20.8946 18.7071 20.7071C18.8946 20.5196 19 20.2652 19 20C19 19.0807 18.8189 18.1705 18.4672 17.3212C18.1154 16.4719 17.5998 15.7003 16.9497 15.0503C16.2997 14.4002 15.5281 13.8846 14.6788 13.5328C13.8295 13.1811 12.9193 13 12 13C11.0807 13 10.1705 13.1811 9.32122 13.5328C8.47194 13.8846 7.70026 14.4002 7.05025 15.0503C6.40024 15.7003 5.88463 16.4719 5.53284 17.3212C5.18106 18.1705 5 19.0807 5 20C5 20.2652 5.10536 20.5196 5.29289 20.7071C5.48043 20.8946 5.73478 21 6 21H18Z" fill="#6C7275"/>
</svg>
