<svg width="20" height="20" viewBox="0 0 20 20" fill="none" xmlns="http://www.w3.org/2000/svg">
<path d="M10.0001 9.16667C10.8841 9.16667 11.732 8.81548 12.3571 8.19036C12.9822 7.56524 13.3334 6.71739 13.3334 5.83333C13.3334 4.94928 12.9822 4.10143 12.3571 3.47631C11.732 2.85119 10.8841 2.5 10.0001 2.5C9.11603 2.5 8.26818 2.85119 7.64306 3.47631C7.01794 4.10143 6.66675 4.94928 6.66675 5.83333C6.66675 6.71739 7.01794 7.56524 7.64306 8.19036C8.26818 8.81548 9.11603 9.16667 10.0001 9.16667Z" fill="#6C7275"/>
<path d="M15.0001 17.4997C15.2211 17.4997 15.4331 17.4119 15.5893 17.2556C15.7456 17.0993 15.8334 16.8874 15.8334 16.6663C15.8334 15.9003 15.6825 15.1418 15.3894 14.434C15.0962 13.7263 14.6665 13.0832 14.1249 12.5416C13.5832 11.9999 12.9401 11.5702 12.2324 11.277C11.5247 10.9839 10.7661 10.833 10.0001 10.833C9.23404 10.833 8.47549 10.9839 7.76776 11.277C7.06003 11.5702 6.41697 11.9999 5.87529 12.5416C5.33362 13.0832 4.90394 13.7263 4.61078 14.434C4.31763 15.1418 4.16675 15.9003 4.16675 16.6663C4.16675 16.8874 4.25455 17.0993 4.41083 17.2556C4.56711 17.4119 4.77907 17.4997 5.00008 17.4997H15.0001Z" fill="#6C7275"/>
</svg>
